<?xml version="1.0" encoding="utf-8"?>
<!-- Generated by IcoMoon.io -->
<!DOCTYPE svg PUBLIC "-//W3C//DTD SVG 1.1//EN" "http://www.w3.org/Graphics/SVG/1.1/DTD/svg11.dtd">
<svg version="1.1" xmlns="http://www.w3.org/2000/svg" xmlns:xlink="http://www.w3.org/1999/xlink" width="32" height="32" viewBox="0 0 32 32">
<g>
</g>
	<path d="M18.272 25.12h11.456v-2.304h-11.456v2.304zM11.424 15.968h18.304v-2.272h-18.304v2.272zM22.848 6.816h6.88v-2.272h-6.88v2.272zM32 21.696v4.544q0 0.48-0.352 0.8t-0.8 0.352h-29.696q-0.48 0-0.8-0.352t-0.352-0.8v-4.544q0-0.48 0.352-0.832t0.8-0.32h29.696q0.48 0 0.8 0.32t0.352 0.832zM32 12.544v4.576q0 0.448-0.352 0.8t-0.8 0.32h-29.696q-0.48 0-0.8-0.32t-0.352-0.8v-4.576q0-0.48 0.352-0.8t0.8-0.352h29.696q0.48 0 0.8 0.352t0.352 0.8zM32 3.392v4.576q0 0.48-0.352 0.8t-0.8 0.352h-29.696q-0.48 0-0.8-0.352t-0.352-0.8v-4.576q0-0.448 0.352-0.8t0.8-0.352h29.696q0.48 0 0.8 0.352t0.352 0.8z" fill="#000000" />
</svg>
