<?xml version="1.0" encoding="utf-8"?>
<!-- Generated by IcoMoon.io -->
<!DOCTYPE svg PUBLIC "-//W3C//DTD SVG 1.1//EN" "http://www.w3.org/Graphics/SVG/1.1/DTD/svg11.dtd">
<svg version="1.1" xmlns="http://www.w3.org/2000/svg" xmlns:xlink="http://www.w3.org/1999/xlink" width="11" height="32" viewBox="0 0 11 32">
<g>
</g>
	<path d="M9.152 22.24v4q0 0.48-0.352 0.8t-0.8 0.352h-4.576q-0.448 0-0.8-0.352t-0.352-0.8v-4q0-0.448 0.352-0.8t0.8-0.32h4.576q0.48 0 0.8 0.32t0.352 0.8zM9.664 3.392l-0.48 13.728q-0.032 0.448-0.384 0.8t-0.8 0.32h-4.576q-0.448 0-0.8-0.32t-0.384-0.8l-0.48-13.728q-0.032-0.448 0.288-0.8t0.8-0.352h5.728q0.448 0 0.8 0.352t0.288 0.8z" fill="#000000" />
</svg>
