<?xml version="1.0" encoding="utf-8"?>
<!-- Generated by IcoMoon.io -->
<!DOCTYPE svg PUBLIC "-//W3C//DTD SVG 1.1//EN" "http://www.w3.org/Graphics/SVG/1.1/DTD/svg11.dtd">
<svg version="1.1" xmlns="http://www.w3.org/2000/svg" xmlns:xlink="http://www.w3.org/1999/xlink" width="27" height="32" viewBox="0 0 27 32">
<g>
</g>
	<path d="M13.728 2.24q3.712 0 6.88 1.856t4.992 4.992 1.824 6.88-1.824 6.88-4.992 4.992-6.88 1.856-6.912-1.856-4.96-4.992-1.856-6.88 1.856-6.88 4.96-4.992 6.912-1.856zM16 24.512v-3.392q0-0.256-0.16-0.416t-0.384-0.16h-3.424q-0.256 0-0.416 0.16t-0.192 0.416v3.392q0 0.256 0.192 0.416t0.416 0.192h3.424q0.224 0 0.384-0.192t0.16-0.416zM15.968 18.368l0.32-11.072q0-0.224-0.192-0.32-0.16-0.16-0.416-0.16h-3.936q-0.256 0-0.416 0.16-0.192 0.096-0.192 0.32l0.32 11.072q0 0.192 0.16 0.32t0.448 0.128h3.296q0.256 0 0.416-0.128t0.192-0.32z" fill="#000000" />
</svg>
