<?xml version="1.0" encoding="utf-8"?>
<!-- Generated by IcoMoon.io -->
<!DOCTYPE svg PUBLIC "-//W3C//DTD SVG 1.1//EN" "http://www.w3.org/Graphics/SVG/1.1/DTD/svg11.dtd">
<svg version="1.1" xmlns="http://www.w3.org/2000/svg" xmlns:xlink="http://www.w3.org/1999/xlink" width="27" height="32" viewBox="0 0 27 32">
<g>
</g>
	<path d="M23.424 15.904q0-2.88-1.536-5.248l-13.472 13.44q2.432 1.6 5.312 1.6 1.984 0 3.776-0.8t3.072-2.080 2.080-3.104 0.768-3.808zM5.6 21.248l13.472-13.472q-2.4-1.6-5.344-1.6-2.656 0-4.896 1.28t-3.52 3.584-1.312 4.864q0 2.912 1.6 5.344zM27.424 15.904q0 2.816-1.088 5.376t-2.912 4.384-4.384 2.944-5.312 1.088-5.344-1.088-4.384-2.944-2.912-4.384-1.088-5.376 1.088-5.344 2.912-4.384 4.384-2.912 5.344-1.088 5.312 1.088 4.384 2.912 2.912 4.384 1.088 5.344z" fill="#000000" />
</svg>
