<?xml version="1.0" encoding="utf-8"?>
<!-- Generated by IcoMoon.io -->
<!DOCTYPE svg PUBLIC "-//W3C//DTD SVG 1.1//EN" "http://www.w3.org/Graphics/SVG/1.1/DTD/svg11.dtd">
<svg version="1.1" xmlns="http://www.w3.org/2000/svg" xmlns:xlink="http://www.w3.org/1999/xlink" width="32" height="32" viewBox="0 0 32 32">
<g>
</g>
	<path d="M29.952 27.808c-3.072 0.16-8.864 0.672-12 2.304-0.16 0.96-0.96 1.696-1.952 1.696-0.992 0-1.76-0.736-1.92-1.696-3.136-1.632-8.96-2.176-12-2.304-1.088 0-1.984-0.896-1.984-1.984v-23.872c0-1.088 0.896-1.984 1.984-1.984 0.064 0 0.128 0.032 0.192 0.032 13.696 0.352 13.728 3.936 13.728 3.936s0.064-3.584 13.728-3.936c0.096 0 0.128-0.032 0.224-0.032 1.088 0 1.984 0.896 1.984 1.984v23.872c0 1.088-0.896 1.984-1.984 1.984zM14.016 6.208c-2.56-1.312-6.816-1.856-9.952-2.080v19.808c5.344 0.288 8.352 1.088 9.952 1.888v-19.616zM27.936 4.128c-3.136 0.224-7.36 0.768-9.92 2.080v19.616c1.6-0.8 4.608-1.6 9.92-1.888v-19.808zM25.952 7.936v3.968c0 0-5.952 0-5.952 1.984v-3.968c0 0 0-1.984 5.952-1.984zM25.952 15.872v4c0 0-5.952 0-5.952 1.984v-4c0 0 0-1.984 5.952-1.984zM12.032 9.92v3.968c0-1.984-5.952-1.984-5.952-1.984v-3.968c5.952 0 5.952 1.984 5.952 1.984zM12.032 17.856v4c0-1.984-5.952-1.984-5.952-1.984v-4c5.952 0 5.952 1.984 5.952 1.984z" fill="#000000" />
</svg>
