<?xml version="1.0" encoding="utf-8"?>
<!-- Generated by IcoMoon.io -->
<!DOCTYPE svg PUBLIC "-//W3C//DTD SVG 1.1//EN" "http://www.w3.org/Graphics/SVG/1.1/DTD/svg11.dtd">
<svg version="1.1" xmlns="http://www.w3.org/2000/svg" xmlns:xlink="http://www.w3.org/1999/xlink" width="32" height="32" viewBox="0 0 32 32">
<g>
</g>
	<path d="M0 15.968q0-6.624 4.704-11.328t11.296-4.672 11.328 4.672 4.672 11.328-4.672 11.328-11.328 4.672-11.296-4.672-4.704-11.328zM3.488 15.968q0 5.184 3.68 8.832t8.832 3.68 8.832-3.68 3.68-8.832-3.68-8.832-8.832-3.68-8.832 3.68-3.68 8.832zM8.128 20.352l4.384-4.384-4.384-4.384 3.488-3.488 4.384 4.384 4.384-4.384 3.488 3.488-4.384 4.384 4.384 4.384-3.488 3.488-4.384-4.384-4.384 4.384z" fill="#000000" />
</svg>
