<?xml version="1.0" encoding="utf-8"?>
<!-- Generated by IcoMoon.io -->
<!DOCTYPE svg PUBLIC "-//W3C//DTD SVG 1.1//EN" "http://www.w3.org/Graphics/SVG/1.1/DTD/svg11.dtd">
<svg version="1.1" xmlns="http://www.w3.org/2000/svg" xmlns:xlink="http://www.w3.org/1999/xlink" width="32" height="32" viewBox="0 0 32 32">
<g>
</g>
	<path d="M24 32.041h-18c-1.105 0-2-0.893-2-1.996v-24.097c0-1.102 0.895-1.995 2-1.995h5v2.079h-4c-0.552 0-1 0.446-1 0.998v22.017c0 0.553 0.448 0.998 1 0.998h16c0.553 0 1-0.445 1-0.998v-22.017c0-0.552-0.447-0.998-1-0.998h-4v-2.079h5c1.104 0 2 0.894 2 1.995v24.097c0 1.103-0.896 1.996-2 1.996zM11 12.019h11v0.998h-11v-0.998zM11 15.013h11v0.998h-11v-0.998zM11 18.008h11v0.998h-11v-0.998zM11 21.002h11v0.998h-11v-0.998zM22 27.986h-11v-0.996h11v0.996zM11 23.996h11v0.998h-11v-0.998zM8 11.999h1v0.998h-1v-0.998zM8 14.993h1v0.998h-1v-0.998zM8 17.986h1v0.998h-1v-0.998zM8 20.98h1v0.998h-1v-0.998zM9 27.967h-1v-0.998h1v0.998zM8 23.975h1v0.998h-1v-0.998zM21 7.091c0.553 0 1 0.447 1 0.999 0 0.551 0 1.933 0 1.933h-14c0 0 0-1.382 0-1.933 0-0.552 0.447-0.999 1-0.999h3c0 0 0.012-1.419 0.012-3.041 0-1.684 1.3-3.092 2.988-3.092s3.033 1.48 3.033 3.102c0 1.747-0.033 3.031-0.033 3.031h3zM15 3.953c-0.553 0-1 0.446-1 0.997 0 0.552 0.447 0.998 1 0.998s1-0.446 1-0.998c0-0.551-0.447-0.997-1-0.997z" fill="#000000" />
</svg>
