<?xml version="1.0" encoding="utf-8"?>
<!-- Generated by IcoMoon.io -->
<!DOCTYPE svg PUBLIC "-//W3C//DTD SVG 1.1//EN" "http://www.w3.org/Graphics/SVG/1.1/DTD/svg11.dtd">
<svg version="1.1" xmlns="http://www.w3.org/2000/svg" xmlns:xlink="http://www.w3.org/1999/xlink" width="27" height="32" viewBox="0 0 27 32">
<g>
</g>
	<path d="M16 9.696v8q0 0.224-0.16 0.384t-0.416 0.16h-5.696q-0.256 0-0.416-0.16t-0.16-0.384v-1.152q0-0.256 0.16-0.416t0.416-0.16h4v-6.272q0-0.256 0.16-0.416t0.384-0.16h1.152q0.256 0 0.416 0.16t0.16 0.416zM23.424 15.968q0-2.656-1.312-4.864t-3.52-3.552-4.864-1.312-4.896 1.312-3.52 3.552-1.312 4.864 1.312 4.864 3.52 3.552 4.896 1.312 4.864-1.312 3.52-3.552 1.312-4.864zM27.424 15.968q0 3.744-1.824 6.88t-4.992 4.992-6.88 1.856-6.912-1.856-4.96-4.992-1.856-6.88 1.856-6.88 4.96-4.992 6.912-1.856 6.88 1.856 4.992 4.992 1.824 6.88z" fill="#000000" />
</svg>
