<?xml version="1.0" encoding="utf-8"?>
<!-- Generated by IcoMoon.io -->
<!DOCTYPE svg PUBLIC "-//W3C//DTD SVG 1.1//EN" "http://www.w3.org/Graphics/SVG/1.1/DTD/svg11.dtd">
<svg version="1.1" xmlns="http://www.w3.org/2000/svg" xmlns:xlink="http://www.w3.org/1999/xlink" width="27" height="32" viewBox="0 0 27 32">
<g>
</g>
	<path d="M18.272 15.968q0-1.888-1.312-3.232t-3.232-1.344-3.232 1.344-1.344 3.232 1.344 3.232 3.232 1.344 3.232-1.344 1.312-3.232zM27.424 14.016v3.968q0 0.224-0.128 0.416t-0.352 0.224l-3.328 0.512q-0.32 0.96-0.672 1.632 0.608 0.864 1.888 2.464 0.192 0.192 0.192 0.416t-0.16 0.416q-0.48 0.672-1.76 1.952t-1.696 1.248q-0.224 0-0.448-0.16l-2.464-1.92q-0.8 0.416-1.632 0.672-0.288 2.432-0.512 3.328-0.128 0.512-0.64 0.512h-3.968q-0.256 0-0.448-0.16t-0.192-0.384l-0.512-3.296q-0.864-0.288-1.6-0.672l-2.528 1.92q-0.192 0.16-0.448 0.16t-0.448-0.192q-2.24-2.048-2.944-3.008-0.128-0.16-0.128-0.416 0-0.192 0.16-0.384 0.256-0.384 0.896-1.184t0.96-1.28q-0.48-0.896-0.736-1.76l-3.264-0.48q-0.224-0.032-0.352-0.224t-0.16-0.416v-3.968q0-0.224 0.16-0.416t0.32-0.224l3.328-0.512q0.256-0.8 0.704-1.632-0.736-1.024-1.92-2.464-0.192-0.224-0.192-0.448 0-0.16 0.16-0.384 0.48-0.64 1.76-1.92t1.696-1.28q0.224 0 0.48 0.16l2.464 1.92q0.768-0.416 1.6-0.672 0.288-2.432 0.544-3.328 0.096-0.48 0.64-0.48h3.968q0.224 0 0.416 0.128t0.224 0.384l0.48 3.296q0.896 0.288 1.6 0.672l2.56-1.92q0.16-0.16 0.416-0.16 0.224 0 0.448 0.16 2.304 2.144 2.944 3.040 0.128 0.16 0.128 0.416 0 0.192-0.128 0.384-0.288 0.384-0.928 1.216t-0.96 1.248q0.448 0.896 0.736 1.76l3.264 0.48q0.224 0.032 0.384 0.224t0.128 0.416z" fill="#000000" />
</svg>
