<?xml version="1.0" encoding="utf-8"?>
<!-- Generated by IcoMoon.io -->
<!DOCTYPE svg PUBLIC "-//W3C//DTD SVG 1.1//EN" "http://www.w3.org/Graphics/SVG/1.1/DTD/svg11.dtd">
<svg version="1.1" xmlns="http://www.w3.org/2000/svg" xmlns:xlink="http://www.w3.org/1999/xlink" width="32" height="32" viewBox="0 0 32 32">
<g>
</g>
	<path d="M32 28.416c0 1.888-1.504 3.424-3.392 3.424h-25.056c-1.888 0-3.424-1.536-3.424-3.424v-25.024c0-1.888 1.536-3.424 3.424-3.424h25.056c1.888 0 3.392 1.536 3.392 3.424v25.024zM29.024 3.072c0-0.064-0.032-0.128-0.096-0.128h-25.696c-0.064 0-0.096 0.064-0.096 0.128v25.664c0 0.064 0.032 0.128 0.096 0.128h25.696c0.064 0 0.096-0.064 0.096-0.128v-25.664zM6.304 23.2l-2.432-1.728 6.016-8.416 3.84 3.84 4.096-7.168 4.064 5.056 3.84-6.176 2.56 1.568-6.112 9.76-3.936-4.896-3.84 6.752-4.128-4.128-3.968 5.536z" fill="#000000" />
</svg>
