<?xml version="1.0" encoding="utf-8"?>
<!-- Generated by IcoMoon.io -->
<!DOCTYPE svg PUBLIC "-//W3C//DTD SVG 1.1//EN" "http://www.w3.org/Graphics/SVG/1.1/DTD/svg11.dtd">
<svg version="1.1" xmlns="http://www.w3.org/2000/svg" xmlns:xlink="http://www.w3.org/1999/xlink" width="32" height="32" viewBox="0 0 32 32">
<g>
</g>
	<path d="M15.648 31.808c-6.56 0-11.904-2.656-11.904-5.952v0-3.36c0 3.296 5.344 5.344 11.904 5.344 6.592 0 11.936-2.048 11.936-5.344v3.36c0 3.296-5.344 5.952-11.936 5.952zM15.648 25.856c-6.56 0-11.904-2.656-11.904-5.952v-3.36c0 3.296 5.344 5.344 11.904 5.344 6.592 0 11.936-2.048 11.936-5.344v3.36c0 3.296-5.344 5.952-11.936 5.952zM15.648 19.904c-6.56 0-11.904-2.688-11.904-5.984v-3.328c0 3.296 5.344 5.344 11.904 5.344 6.592 0 11.936-2.048 11.936-5.344v3.328c0 3.296-5.344 5.984-11.936 5.984zM15.648 13.92c-6.56 0-11.904-2.656-11.904-5.952v-1.984c0-3.296 5.344-5.952 11.904-5.952s11.936 2.656 11.936 5.952v1.984c0 3.296-5.344 5.952-11.936 5.952z" fill="#000000" />
</svg>
