<?xml version="1.0" encoding="utf-8"?>
<!-- Generated by IcoMoon.io -->
<!DOCTYPE svg PUBLIC "-//W3C//DTD SVG 1.1//EN" "http://www.w3.org/Graphics/SVG/1.1/DTD/svg11.dtd">
<svg version="1.1" xmlns="http://www.w3.org/2000/svg" xmlns:xlink="http://www.w3.org/1999/xlink" width="32" height="32" viewBox="0 0 32 32">
<g>
</g>
	<path d="M32 21.12v3.424q0 0.224-0.16 0.384t-0.416 0.192h-24.576v3.424q0 0.224-0.16 0.384t-0.416 0.192q-0.192 0-0.416-0.192l-5.696-5.696q-0.16-0.16-0.16-0.416t0.16-0.416l5.728-5.696q0.16-0.16 0.384-0.16 0.256 0 0.416 0.16t0.16 0.416v3.424h24.576q0.224 0 0.416 0.16t0.16 0.416zM32 11.392q0 0.256-0.16 0.416l-5.728 5.728q-0.16 0.16-0.384 0.16-0.256 0-0.416-0.192t-0.16-0.384v-3.424h-24.576q-0.224 0-0.416-0.192t-0.16-0.384v-3.424q0-0.256 0.16-0.416t0.416-0.16h24.576v-3.424q0-0.256 0.16-0.416t0.416-0.16q0.192 0 0.416 0.16l5.696 5.696q0.16 0.16 0.16 0.416z" fill="#000000" />
</svg>
