<?xml version="1.0" encoding="utf-8"?>
<!-- Generated by IcoMoon.io -->
<!DOCTYPE svg PUBLIC "-//W3C//DTD SVG 1.1//EN" "http://www.w3.org/Graphics/SVG/1.1/DTD/svg11.dtd">
<svg version="1.1" xmlns="http://www.w3.org/2000/svg" xmlns:xlink="http://www.w3.org/1999/xlink" width="30" height="32" viewBox="0 0 30 32">
<g>
</g>
	<path d="M14.88 5.248q2.176 0 4.48 1.088t3.968 2.624 3.040 3.104 2.048 2.656l0.736 1.088q-0.288 0.448-0.768 1.184t-2.016 2.592-3.104 3.296-3.872 2.624-4.512 1.152-4.48-1.088-3.968-2.72-3.072-3.2-2.048-2.752l-0.736-1.088q0.256-0.448 0.736-1.152t2.016-2.528 3.136-3.232 3.904-2.528 4.512-1.12zM14.88 23.104q2.944 0 5.056-2.080t2.080-5.056-2.080-5.056-5.056-2.112-5.056 2.112-2.112 5.056 2.112 5.056 5.056 2.080zM11.296 15.968q0-3.584 3.584-3.584t3.552 3.584-3.552 3.552-3.584-3.552z" fill="#000000" />
</svg>
