<?xml version="1.0" encoding="utf-8"?>
<!-- Generated by IcoMoon.io -->
<!DOCTYPE svg PUBLIC "-//W3C//DTD SVG 1.1//EN" "http://www.w3.org/Graphics/SVG/1.1/DTD/svg11.dtd">
<svg version="1.1" xmlns="http://www.w3.org/2000/svg" xmlns:xlink="http://www.w3.org/1999/xlink" width="27" height="32" viewBox="0 0 27 32">
<g>
</g>
	<path d="M16 24.544v-3.424q0-0.256-0.16-0.416t-0.416-0.16h-3.424q-0.256 0-0.416 0.16t-0.16 0.416v3.424q0 0.256 0.16 0.416t0.416 0.16h3.424q0.256 0 0.416-0.16t0.16-0.416zM20.576 12.544q0-1.568-0.992-2.912t-2.464-2.080-3.040-0.736q-4.352 0-6.624 3.808-0.288 0.448 0.128 0.768l2.368 1.76q0.128 0.128 0.32 0.128 0.288 0 0.448-0.224 0.96-1.216 1.536-1.632 0.608-0.448 1.536-0.448 0.864 0 1.536 0.48t0.672 1.056q0 0.672-0.352 1.088t-1.216 0.8q-1.12 0.512-2.080 1.536t-0.928 2.24v0.64q0 0.256 0.16 0.416t0.416 0.16h3.424q0.256 0 0.416-0.16t0.16-0.416q0-0.32 0.384-0.864t0.96-0.896q0.576-0.32 0.896-0.512t0.8-0.608 0.8-0.864 0.512-1.088 0.224-1.44zM27.424 15.968q0 3.744-1.824 6.88t-4.992 4.992-6.88 1.856-6.912-1.856-4.96-4.992-1.856-6.88 1.856-6.88 4.96-4.992 6.912-1.856 6.88 1.856 4.992 4.992 1.824 6.88z" fill="#000000" />
</svg>
