<?xml version="1.0" encoding="utf-8"?>
<!-- Generated by IcoMoon.io -->
<!DOCTYPE svg PUBLIC "-//W3C//DTD SVG 1.1//EN" "http://www.w3.org/Graphics/SVG/1.1/DTD/svg11.dtd">
<svg version="1.1" xmlns="http://www.w3.org/2000/svg" xmlns:xlink="http://www.w3.org/1999/xlink" width="18" height="32" viewBox="0 0 18 32">
<g>
</g>
	<path d="M12.576 22.4v4.288q0 0.288-0.224 0.512t-0.48 0.192h-4.288q-0.288 0-0.512-0.192t-0.224-0.512v-4.288q0-0.288 0.224-0.512t0.512-0.192h4.288q0.256 0 0.48 0.192t0.224 0.512zM18.208 11.68q0 0.96-0.256 1.792t-0.64 1.376-0.992 1.056-1.024 0.8-1.088 0.608q-0.736 0.416-1.216 1.184t-0.48 1.184q0 0.32-0.224 0.576t-0.512 0.288h-4.288q-0.256 0-0.448-0.32t-0.192-0.672v-0.832q0-1.472 1.184-2.784t2.528-1.92q1.056-0.48 1.504-1.024t0.448-1.344q0-0.736-0.832-1.312t-1.92-0.576q-1.152 0-1.92 0.512-0.64 0.448-1.92 2.048-0.224 0.288-0.544 0.288-0.224 0-0.448-0.128l-2.912-2.24q-0.256-0.192-0.288-0.448t0.096-0.512q2.848-4.736 8.288-4.736 1.44 0 2.88 0.544t2.592 1.472 1.888 2.304 0.736 2.816z" fill="#000000" />
</svg>
