<?xml version="1.0" encoding="utf-8"?>
<!-- Generated by IcoMoon.io -->
<!DOCTYPE svg PUBLIC "-//W3C//DTD SVG 1.1//EN" "http://www.w3.org/Graphics/SVG/1.1/DTD/svg11.dtd">
<svg version="1.1" xmlns="http://www.w3.org/2000/svg" xmlns:xlink="http://www.w3.org/1999/xlink" width="32" height="32" viewBox="0 0 32 32">
<g>
</g>
	<path d="M5.888 3.296c-0.96 0.64-1.44 1.824-1.44 3.552 0 0.576 0.032 1.056 0.064 1.536 0.032 0.448 0.064 0.896 0.096 1.312 0.064 0.416 0.096 0.832 0.128 1.248 0.032 0.448 0.032 0.896 0.032 1.376 0 0.288-0.064 0.576-0.192 0.832-0.128 0.288-0.352 0.544-0.704 0.768-0.32 0.224-0.8 0.384-1.344 0.544-0.576 0.128-1.28 0.224-2.144 0.224v2.752c0.864 0.032 1.568 0.096 2.144 0.256s1.024 0.32 1.344 0.544c0.352 0.224 0.576 0.48 0.704 0.736 0.128 0.288 0.192 0.576 0.192 0.832 0 0.512 0 0.992-0.032 1.408-0.032 0.416-0.064 0.832-0.128 1.248-0.032 0.416-0.064 0.832-0.096 1.28s-0.064 0.96-0.064 1.536c0 1.728 0.48 2.912 1.44 3.584 0.96 0.64 2.464 0.96 4.512 0.96h2.464v-2.496h-1.312c-0.64 0-1.184-0.032-1.632-0.096-0.416-0.064-0.736-0.192-0.992-0.352-0.224-0.16-0.384-0.384-0.48-0.672-0.096-0.288-0.16-0.672-0.16-1.12 0-0.864 0.032-1.696 0.096-2.528 0.032-0.8 0.064-1.696 0.064-2.688 0-1.216-0.224-2.080-0.736-2.624s-1.312-0.928-2.464-1.12v-0.128c1.152-0.192 1.984-0.544 2.464-1.088s0.736-1.44 0.736-2.656c0-0.96-0.032-1.856-0.064-2.688-0.064-0.832-0.096-1.664-0.096-2.528 0-0.448 0.064-0.8 0.16-1.088 0.096-0.288 0.256-0.512 0.48-0.704 0.256-0.16 0.576-0.288 0.992-0.352s0.992-0.096 1.632-0.096h1.312v-2.496h-2.464c-2.048 0-3.552 0.32-4.512 0.992zM29.888 14.464c-0.576-0.16-1.024-0.32-1.376-0.544-0.32-0.224-0.576-0.48-0.704-0.768-0.128-0.256-0.192-0.544-0.192-0.832 0-0.48 0.032-0.928 0.064-1.376 0.032-0.416 0.064-0.832 0.128-1.248 0.032-0.416 0.096-0.864 0.128-1.312 0.032-0.48 0.032-0.96 0.032-1.536 0-1.728-0.48-2.912-1.44-3.552-0.96-0.672-2.464-0.992-4.512-0.992h-2.464v2.496h1.312c0.672 0 1.216 0.032 1.632 0.096s0.736 0.192 0.96 0.352c0.256 0.192 0.416 0.416 0.512 0.704 0.096 0.288 0.128 0.64 0.128 1.088 0 0.864 0 1.696-0.064 2.528s-0.064 1.728-0.064 2.688c0 1.216 0.256 2.112 0.736 2.656 0.512 0.544 1.312 0.896 2.464 1.088v0.128c-1.152 0.192-1.952 0.576-2.464 1.12-0.48 0.544-0.736 1.408-0.736 2.624 0 0.992 0.032 1.888 0.064 2.688 0.064 0.832 0.064 1.664 0.064 2.528 0 0.448-0.032 0.832-0.128 1.12-0.096 0.288-0.256 0.512-0.512 0.672-0.224 0.192-0.544 0.288-0.96 0.352-0.416 0.064-0.96 0.096-1.632 0.096h-1.312v2.496h2.464c2.048 0 3.552-0.32 4.512-0.96 0.96-0.672 1.44-1.856 1.44-3.584 0-0.576 0-1.088-0.032-1.536-0.032-0.448-0.096-0.864-0.128-1.28-0.064-0.416-0.096-0.832-0.128-1.248-0.032-0.416-0.064-0.896-0.064-1.408 0-0.256 0.064-0.544 0.192-0.832 0.128-0.256 0.384-0.512 0.704-0.736 0.352-0.224 0.8-0.416 1.376-0.544s1.28-0.224 2.144-0.256v-2.752c-0.864 0-1.6-0.096-2.144-0.224z" fill="#000000" />
</svg>
