<?xml version="1.0" encoding="utf-8"?>
<!-- Generated by IcoMoon.io -->
<!DOCTYPE svg PUBLIC "-//W3C//DTD SVG 1.1//EN" "http://www.w3.org/Graphics/SVG/1.1/DTD/svg11.dtd">
<svg version="1.1" xmlns="http://www.w3.org/2000/svg" xmlns:xlink="http://www.w3.org/1999/xlink" width="30" height="32" viewBox="0 0 30 32">
<g>
</g>
	<path d="M20.256 5.248q-2.24 0-3.808 1.568t-1.6 3.744q0 0.448 0.128 1.024l0.352 1.824q-1.856 1.856-5.6 5.6t-5.568 5.536v2.112h3.552v-3.552h3.584v-3.584h3.552v-1.504l2.56-2.528 1.824 0.352q0.576 0.096 0.992 0.096 2.24 0 3.808-1.568t1.536-3.776-1.536-3.776-3.776-1.568zM20.256 1.664q3.68 0 6.304 2.624t2.592 6.304-2.592 6.304-6.336 2.624q-0.896 0-1.632-0.16l-0.16 0.16v3.584h-3.584v3.552h-3.552v3.616h-10.72v-7.168l10.88-10.88q-0.16-0.736-0.16-1.664 0-3.68 2.624-6.272t6.336-2.624zM18.432 10.56q0-1.76 1.792-1.76t1.792 1.76q0 1.824-1.792 1.824t-1.792-1.824z" fill="#000000" />
</svg>
