<?xml version="1.0" encoding="utf-8"?>
<!-- Generated by IcoMoon.io -->
<!DOCTYPE svg PUBLIC "-//W3C//DTD SVG 1.1//EN" "http://www.w3.org/Graphics/SVG/1.1/DTD/svg11.dtd">
<svg version="1.1" xmlns="http://www.w3.org/2000/svg" xmlns:xlink="http://www.w3.org/1999/xlink" width="30" height="32" viewBox="0 0 30 32">
<g>
</g>
	<path d="M26.016 21.696q0-0.736-0.512-1.216l-3.712-3.712q-0.512-0.512-1.216-0.512-0.768 0-1.28 0.576 0.032 0.032 0.32 0.32t0.384 0.384 0.288 0.352 0.224 0.448 0.064 0.48q0 0.736-0.512 1.216t-1.216 0.512q-0.256 0-0.48-0.064t-0.448-0.224-0.352-0.288-0.384-0.384-0.32-0.32q-0.608 0.544-0.608 1.28 0 0.736 0.512 1.216l3.68 3.712q0.48 0.48 1.216 0.48 0.704 0 1.216-0.48l2.624-2.592q0.512-0.512 0.512-1.216zM13.44 9.088q0-0.704-0.48-1.216l-3.68-3.68q-0.512-0.512-1.216-0.512-0.704 0-1.216 0.48l-2.624 2.624q-0.512 0.48-0.512 1.184t0.512 1.216l3.712 3.712q0.48 0.48 1.216 0.48 0.736 0 1.28-0.544-0.064-0.064-0.352-0.352t-0.384-0.384-0.256-0.32-0.224-0.448-0.064-0.512q0-0.704 0.48-1.216t1.216-0.48q0.288 0 0.512 0.064t0.448 0.224 0.32 0.256 0.384 0.384 0.352 0.352q0.576-0.544 0.576-1.312zM29.44 21.696q0 2.112-1.536 3.616l-2.624 2.592q-1.472 1.504-3.616 1.504-2.176 0-3.648-1.536l-3.68-3.68q-1.472-1.504-1.472-3.648 0-2.176 1.568-3.712l-1.568-1.568q-1.536 1.568-3.712 1.568-2.144 0-3.648-1.504l-3.712-3.712q-1.504-1.504-1.504-3.648t1.504-3.616l2.624-2.624q1.504-1.472 3.648-1.472t3.648 1.504l3.68 3.712q1.472 1.472 1.472 3.616 0 2.208-1.568 3.744l1.568 1.568q1.536-1.568 3.712-1.568 2.144 0 3.648 1.504l3.712 3.712q1.504 1.504 1.504 3.648z" fill="#000000" />
</svg>
