<?xml version="1.0" encoding="utf-8"?>
<!-- Generated by IcoMoon.io -->
<!DOCTYPE svg PUBLIC "-//W3C//DTD SVG 1.1//EN" "http://www.w3.org/Graphics/SVG/1.1/DTD/svg11.dtd">
<svg version="1.1" xmlns="http://www.w3.org/2000/svg" xmlns:xlink="http://www.w3.org/1999/xlink" width="32" height="32" viewBox="0 0 32 32">
<g>
</g>
	<path d="M6.848 21.12v1.12q0 0.256-0.16 0.416t-0.416 0.16h-1.12q-0.224 0-0.416-0.16t-0.16-0.416v-1.12q0-0.256 0.16-0.416t0.416-0.16h1.12q0.256 0 0.416 0.16t0.16 0.416zM6.848 16.544v1.152q0 0.224-0.16 0.384t-0.416 0.16h-1.12q-0.224 0-0.416-0.16t-0.16-0.384v-1.152q0-0.224 0.16-0.416t0.416-0.16h1.12q0.256 0 0.416 0.16t0.16 0.416zM6.848 11.968v1.152q0 0.224-0.16 0.384t-0.416 0.192h-1.12q-0.224 0-0.416-0.192t-0.16-0.384v-1.152q0-0.224 0.16-0.416t0.416-0.16h1.12q0.256 0 0.416 0.16t0.16 0.416zM27.424 21.12v1.12q0 0.256-0.16 0.416t-0.416 0.16h-17.12q-0.256 0-0.416-0.16t-0.16-0.416v-1.12q0-0.256 0.16-0.416t0.416-0.16h17.12q0.256 0 0.416 0.16t0.16 0.416zM27.424 16.544v1.152q0 0.224-0.16 0.384t-0.416 0.16h-17.12q-0.256 0-0.416-0.16t-0.16-0.384v-1.152q0-0.224 0.16-0.416t0.416-0.16h17.12q0.256 0 0.416 0.16t0.16 0.416zM27.424 11.968v1.152q0 0.224-0.16 0.384t-0.416 0.192h-17.12q-0.256 0-0.416-0.192t-0.16-0.384v-1.152q0-0.224 0.16-0.416t0.416-0.16h17.12q0.256 0 0.416 0.16t0.16 0.416zM29.728 24.544v-14.848q0-0.256-0.192-0.416t-0.384-0.16h-26.304q-0.224 0-0.384 0.16t-0.192 0.416v14.848q0 0.224 0.192 0.384t0.384 0.192h26.304q0.224 0 0.384-0.192t0.192-0.384zM32 5.12v19.424q0 1.184-0.832 2.016t-2.016 0.832h-26.304q-1.152 0-2.016-0.832t-0.832-2.016v-19.424q0-1.184 0.832-2.016t2.016-0.864h26.304q1.184 0 2.016 0.864t0.832 2.016z" fill="#000000" />
</svg>
