<?xml version="1.0" encoding="utf-8"?>
<!-- Generated by IcoMoon.io -->
<!DOCTYPE svg PUBLIC "-//W3C//DTD SVG 1.1//EN" "http://www.w3.org/Graphics/SVG/1.1/DTD/svg11.dtd">
<svg version="1.1" xmlns="http://www.w3.org/2000/svg" xmlns:xlink="http://www.w3.org/1999/xlink" width="32" height="32" viewBox="0 0 32 32">
<g>
</g>
	<path d="M29.728 26.816v-13.696q-0.576 0.64-1.248 1.184-4.768 3.648-7.616 6.016-0.896 0.768-1.472 1.216t-1.536 0.864-1.824 0.416h-0.064q-0.832 0-1.824-0.416t-1.536-0.864-1.472-1.216q-2.816-2.368-7.616-6.016-0.672-0.544-1.248-1.184v13.696q0 0.256 0.192 0.416t0.384 0.16h26.304q0.224 0 0.384-0.16t0.192-0.416zM29.728 8.064v-0.448t-0.032-0.224-0.032-0.224-0.096-0.16-0.16-0.128-0.256-0.064h-26.304q-0.224 0-0.384 0.192t-0.192 0.384q0 3.008 2.624 5.088 3.456 2.72 7.168 5.664 0.128 0.064 0.64 0.512t0.8 0.672 0.8 0.576 0.896 0.48 0.768 0.16h0.064q0.352 0 0.768-0.16t0.896-0.48 0.8-0.576 0.8-0.672 0.64-0.512q3.712-2.944 7.168-5.664 0.96-0.768 1.792-2.080t0.832-2.336zM32 7.392v19.424q0 1.184-0.832 2.016t-2.016 0.864h-26.304q-1.152 0-2.016-0.864t-0.832-2.016v-19.424q0-1.184 0.832-2.016t2.016-0.832h26.304q1.184 0 2.016 0.832t0.832 2.016z" fill="#000000" />
</svg>
