<?xml version="1.0" encoding="utf-8"?>
<!-- Generated by IcoMoon.io -->
<!DOCTYPE svg PUBLIC "-//W3C//DTD SVG 1.1//EN" "http://www.w3.org/Graphics/SVG/1.1/DTD/svg11.dtd">
<svg version="1.1" xmlns="http://www.w3.org/2000/svg" xmlns:xlink="http://www.w3.org/1999/xlink" width="32" height="32" viewBox="0 0 32 32">
<g>
</g>
	<path d="M29.728 11.392q0.928 0 1.6 0.672t0.672 1.632-0.672 1.6-1.6 0.672v6.848q0 0.928-0.704 1.6t-1.6 0.704q-7.456-6.208-14.496-6.784-1.024 0.32-1.632 1.152t-0.544 1.824 0.704 1.632q-0.352 0.608-0.416 1.184t0.128 1.024 0.576 0.992 0.864 0.896 1.12 0.896q-0.544 1.024-2.016 1.472t-3.008 0.224-2.336-0.992q-0.128-0.416-0.544-1.568t-0.576-1.696-0.384-1.6-0.288-1.792 0.064-1.76 0.384-1.984h-2.176q-1.152 0-2.016-0.832t-0.832-2.016v-3.424q0-1.184 0.832-2.016t2.016-0.832h8.576q7.776 0 16-6.88 0.928 0 1.6 0.704t0.704 1.6v6.848zM27.424 22.176v-17.024q-7.040 5.376-13.696 6.112v4.832q6.72 0.736 13.696 6.080z" fill="#000000" />
</svg>
