<?xml version="1.0" encoding="utf-8"?>
<!-- Generator: Adobe Illustrator 17.1.0, SVG Export Plug-In . SVG Version: 6.00 Build 0)  -->
<!DOCTYPE svg PUBLIC "-//W3C//DTD SVG 1.1//EN" "http://www.w3.org/Graphics/SVG/1.1/DTD/svg11.dtd">
<svg version="1.1" id="Layer_1" xmlns="http://www.w3.org/2000/svg" xmlns:xlink="http://www.w3.org/1999/xlink" x="0px" y="0px"
	 viewBox="0 0 32 32" enable-background="new 0 0 32 32" xml:space="preserve">
<path d="M6.8,18.6h18.4v-5.2H6.8V18.6z M0,16c0-4.4,1.6-8.2,4.7-11.3S11.6-0.1,16,0s8.2,1.6,11.3,4.7C30.5,7.7,32,11.5,32,16
	c0,4.5-1.6,8.2-4.7,11.3S20.5,31.9,16,32s-8.2-1.5-11.3-4.7S0.1,20.4,0,16z M3.5,16c0,3.5,1.2,6.4,3.7,8.8c2.5,2.4,5.4,3.7,8.8,3.7
	c3.4,0,6.4-1.2,8.8-3.7s3.7-5.4,3.7-8.8s-1.2-6.4-3.7-8.8S19.4,3.4,16,3.5c-3.4,0-6.4,1.2-8.8,3.7S3.5,12.5,3.5,16z"/>
</svg>
