<?xml version="1.0" encoding="utf-8"?>
<!-- Generated by IcoMoon.io -->
<!DOCTYPE svg PUBLIC "-//W3C//DTD SVG 1.1//EN" "http://www.w3.org/Graphics/SVG/1.1/DTD/svg11.dtd">
<svg version="1.1" xmlns="http://www.w3.org/2000/svg" xmlns:xlink="http://www.w3.org/1999/xlink" width="32" height="32" viewBox="0 0 32 32">
<g>
</g>
	<path d="M25.952 31.808h-19.808c-3.296 0-5.952-2.688-5.952-5.952v-19.808c0-3.296 2.656-5.952 5.952-5.952h19.808c3.264 0 5.952 2.656 5.952 5.952v19.808c0 3.264-2.688 5.952-5.952 5.952zM27.936 6.048c0-1.12-0.896-1.984-1.984-1.984h-19.808c-1.12 0-1.984 0.896-1.984 1.984v19.808c0 1.088 0.864 1.984 1.984 1.984h19.808c1.088 0 1.984-0.896 1.984-1.984v-19.808zM21.984 21.888v2.976c0 0.544-0.448 0.992-0.992 0.992s-0.992-0.448-0.992-0.992v-2.976c-1.088 0-1.984-0.896-1.984-1.984v-1.984c0-1.088 0.896-1.984 1.984-1.984v-8.896c0-0.544 0.448-0.992 0.992-0.992s0.992 0.448 0.992 0.992v8.896c1.088 0 1.984 0.896 1.984 1.984v1.984c0 1.088-0.896 1.984-1.984 1.984zM12.064 15.936v8.928c0 0.544-0.448 0.992-0.992 0.992s-0.992-0.448-0.992-0.992v-8.928c-1.088 0-1.984-0.896-1.984-1.984v-1.984c0-1.088 0.896-1.952 1.984-1.952v-2.976c0-0.544 0.448-0.992 0.992-0.992s0.992 0.448 0.992 0.992v2.976c1.12 0 1.984 0.864 1.984 1.952v1.984c0 1.12-0.864 1.984-1.984 1.984z" fill="#000000" />
</svg>
