<?xml version="1.0" encoding="utf-8"?>
<!-- Generated by IcoMoon.io -->
<!DOCTYPE svg PUBLIC "-//W3C//DTD SVG 1.1//EN" "http://www.w3.org/Graphics/SVG/1.1/DTD/svg11.dtd">
<svg version="1.1" xmlns="http://www.w3.org/2000/svg" xmlns:xlink="http://www.w3.org/1999/xlink" width="32" height="32" viewBox="0 0 32 32">
<g>
</g>
	<path d="M1.6 8v-1.984c0-3.296 5.344-5.952 11.904-5.952s11.936 2.656 11.936 5.952v1.984c0 2.272-2.464 4.224-6.144 5.216-0.128 0.032-0.256 0.064-0.384 0.096-1.6 0.416-3.456 0.672-5.408 0.672-6.56 0-11.904-2.688-11.904-5.984zM24 13.312c0.512 0.128 0.992 0.288 1.44 0.512v-3.2c0 1.024-0.512 1.952-1.44 2.688zM12.864 27.872c-6.272-0.128-11.264-2.144-11.264-5.312v3.36c0 3.296 5.344 5.952 11.904 5.952 1.12 0 2.176-0.064 3.2-0.224-1.6-0.864-2.944-2.176-3.84-3.776zM11.968 25.856c-0.288-0.928-0.448-1.92-0.448-2.944 0-0.352 0.032-0.704 0.064-1.056-5.664-0.352-9.984-2.304-9.984-5.28v3.36c0 3.040 4.512 5.536 10.368 5.92zM12 19.904c0.48-1.504 1.312-2.848 2.4-3.968-0.288 0.032-0.576 0.032-0.896 0.032-6.56 0-11.904-2.048-11.904-5.344v3.36c0 3.040 4.544 5.536 10.4 5.92zM30.432 22.912c0 4.96-4.032 8.96-8.96 8.96s-8.96-4-8.96-8.96 4.032-8.928 8.96-8.928c4.928 0 8.96 4 8.96 8.928zM27.424 21.92h-4.96v-4.96h-1.984v4.96h-4.96v1.984h4.96v4.992h1.984v-4.992h4.96v-1.984z" fill="#000000" />
</svg>
