<?xml version="1.0" encoding="utf-8"?>
<!-- Generated by IcoMoon.io -->
<!DOCTYPE svg PUBLIC "-//W3C//DTD SVG 1.1//EN" "http://www.w3.org/Graphics/SVG/1.1/DTD/svg11.dtd">
<svg version="1.1" xmlns="http://www.w3.org/2000/svg" xmlns:xlink="http://www.w3.org/1999/xlink" width="34" height="32" viewBox="0 0 34 32">
<g>
</g>
	<path d="M11.424 10.24q0 1.44-0.992 2.432t-2.432 1.024-2.432-1.024-0.992-2.432 0.992-2.4 2.432-1.024 2.432 1.024 0.992 2.4zM29.728 17.12v8h-25.152v-3.424l5.696-5.728 2.88 2.848 9.12-9.12zM31.424 4.544h-28.576q-0.224 0-0.384 0.16t-0.192 0.416v21.696q0 0.256 0.192 0.416t0.384 0.16h28.576q0.224 0 0.416-0.16t0.16-0.416v-21.696q0-0.224-0.16-0.416t-0.416-0.16zM34.272 5.12v21.696q0 1.184-0.832 2.016t-2.016 0.864h-28.576q-1.152 0-2.016-0.864t-0.832-2.016v-21.696q0-1.184 0.832-2.016t2.016-0.864h28.576q1.184 0 2.016 0.864t0.832 2.016z" fill="#000000" />
</svg>
