<?xml version="1.0" encoding="utf-8"?>
<!-- Generated by IcoMoon.io -->
<!DOCTYPE svg PUBLIC "-//W3C//DTD SVG 1.1//EN" "http://www.w3.org/Graphics/SVG/1.1/DTD/svg11.dtd">
<svg version="1.1" xmlns="http://www.w3.org/2000/svg" xmlns:xlink="http://www.w3.org/1999/xlink" width="25" height="32" viewBox="0 0 25 32">
<g>
</g>
	<path d="M20.576 14.24v1.152q0 0.256-0.16 0.416t-0.416 0.16h-6.272v6.272q0 0.256-0.16 0.416t-0.416 0.16h-1.152q-0.256 0-0.416-0.16t-0.16-0.416v-6.272h-6.272q-0.256 0-0.416-0.16t-0.16-0.416v-1.152q0-0.224 0.16-0.384t0.416-0.16h6.272v-6.304q0-0.256 0.16-0.416t0.416-0.16h1.152q0.256 0 0.416 0.16t0.16 0.416v6.304h6.272q0.256 0 0.416 0.16t0.16 0.416zM22.848 22.24v-14.848q0-1.184-0.832-2.016t-2.016-0.832h-14.848q-1.184 0-2.016 0.832t-0.864 2.016v14.848q0 1.184 0.864 2.048t2.016 0.832h14.848q1.184 0 2.016-0.832t0.832-2.048zM25.152 7.392v14.848q0 2.144-1.504 3.648t-3.648 1.504h-14.848q-2.144 0-3.648-1.504t-1.504-3.648v-14.848q0-2.112 1.504-3.616t3.648-1.536h14.848q2.112 0 3.648 1.536t1.504 3.616z" fill="#000000" />
</svg>
