<?xml version="1.0" encoding="utf-8"?>
<!-- Generated by IcoMoon.io -->
<!DOCTYPE svg PUBLIC "-//W3C//DTD SVG 1.1//EN" "http://www.w3.org/Graphics/SVG/1.1/DTD/svg11.dtd">
<svg version="1.1" xmlns="http://www.w3.org/2000/svg" xmlns:xlink="http://www.w3.org/1999/xlink" width="27" height="32" viewBox="0 0 27 32">
<g>
</g>
	<path d="M22.848 17.12v-2.304q0-0.448-0.32-0.8t-0.8-0.32h-5.728v-5.728q0-0.48-0.352-0.8t-0.8-0.352h-2.272q-0.48 0-0.8 0.352t-0.352 0.8v5.728h-5.696q-0.48 0-0.832 0.32t-0.32 0.8v2.304q0 0.448 0.32 0.8t0.832 0.32h5.696v5.728q0 0.448 0.352 0.8t0.8 0.352h2.272q0.48 0 0.8-0.352t0.352-0.8v-5.728h5.728q0.448 0 0.8-0.32t0.32-0.8zM27.424 7.392v17.152q0 2.112-1.504 3.616t-3.648 1.536h-17.12q-2.144 0-3.648-1.536t-1.504-3.616v-17.152q0-2.112 1.504-3.616t3.648-1.536h17.12q2.144 0 3.648 1.536t1.504 3.616z" fill="#000000" />
</svg>
