<?xml version="1.0" encoding="utf-8"?>
<!-- Generated by IcoMoon.io -->
<!DOCTYPE svg PUBLIC "-//W3C//DTD SVG 1.1//EN" "http://www.w3.org/Graphics/SVG/1.1/DTD/svg11.dtd">
<svg version="1.1" xmlns="http://www.w3.org/2000/svg" xmlns:xlink="http://www.w3.org/1999/xlink" width="32" height="32" viewBox="0 0 32 32">
<g>
</g>
	<path d="M30.784 31.904h-29.664c0-3.84 4.48-7.040 10.592-8.096v-1.568c-2.528-1.472-4.224-4.192-4.224-7.296v-0.224c-1.248-0.448-2.112-1.6-2.112-2.976s0.864-2.528 2.112-2.944v-0.224c0-4.672 3.776-8.48 8.48-8.48s8.48 3.808 8.48 8.48v0.224c1.216 0.416 2.112 1.568 2.112 2.944s-0.896 2.528-2.112 2.976v0.224c0 3.104-1.728 5.824-4.256 7.296v1.568c6.112 1.056 10.592 4.256 10.592 8.096z" fill="#000000" />
</svg>
