<?xml version="1.0" encoding="utf-8"?>
<!-- Generated by IcoMoon.io -->
<!DOCTYPE svg PUBLIC "-//W3C//DTD SVG 1.1//EN" "http://www.w3.org/Graphics/SVG/1.1/DTD/svg11.dtd">
<svg version="1.1" xmlns="http://www.w3.org/2000/svg" xmlns:xlink="http://www.w3.org/1999/xlink" width="32" height="32" viewBox="0 0 32 32">
<g>
</g>
	<path d="M12 21.952h2.016v4h-2.016v-4zM16 21.952h2.016v4h-2.016v-4zM20 21.952h2.016v4h-2.016v-4zM26.016 18.976h-2.016v9.984h2.016l5.984-4.992-5.984-4.992zM32 2.976h-9.984v9.984h9.984v-9.984zM28.992 9.952h-4v-4h4v4zM0 28.96h10.016v-9.984h-10.016v9.984zM3.008 21.952h4v4h-4v-4zM18.016 5.952h1.984v4h-1.984v-4zM14.016 5.952h1.984v4h-1.984v-4zM10.016 5.952h1.984v4h-1.984v-4zM8 12.96v-9.984h-2.016l-5.984 4.992 5.984 4.992h2.016z" fill="#000000" />
</svg>
