<?xml version="1.0" encoding="utf-8"?>
<!-- Generated by IcoMoon.io -->
<!DOCTYPE svg PUBLIC "-//W3C//DTD SVG 1.1//EN" "http://www.w3.org/Graphics/SVG/1.1/DTD/svg11.dtd">
<svg version="1.1" xmlns="http://www.w3.org/2000/svg" xmlns:xlink="http://www.w3.org/1999/xlink" width="27" height="32" viewBox="0 0 27 32">
<g>
</g>
	<path d="M20.576 16q0 0.256-0.16 0.416l-5.728 5.696q-0.16 0.16-0.416 0.16-0.224 0-0.384-0.16t-0.16-0.384v-3.456h-6.304q-0.224 0-0.384-0.16t-0.192-0.384v-3.456q0-0.224 0.192-0.384t0.384-0.16h6.304v-3.456q0-0.224 0.16-0.384t0.384-0.16 0.448 0.16l5.696 5.696q0.16 0.16 0.16 0.416zM23.424 16q0-2.656-1.312-4.864t-3.52-3.552-4.864-1.312-4.896 1.312-3.52 3.552-1.312 4.864 1.312 4.864 3.52 3.552 4.896 1.312 4.864-1.312 3.52-3.552 1.312-4.864zM27.424 16q0 3.744-1.824 6.88t-4.992 4.992-6.88 1.856-6.912-1.856-4.96-4.992-1.856-6.88 1.856-6.88 4.96-4.992 6.912-1.856 6.88 1.856 4.992 4.992 1.824 6.88z" fill="#000000" />
</svg>
