<?xml version="1.0" encoding="utf-8"?>
<!-- Generated by IcoMoon.io -->
<!DOCTYPE svg PUBLIC "-//W3C//DTD SVG 1.1//EN" "http://www.w3.org/Graphics/SVG/1.1/DTD/svg11.dtd">
<svg version="1.1" xmlns="http://www.w3.org/2000/svg" xmlns:xlink="http://www.w3.org/1999/xlink" width="27" height="32" viewBox="0 0 27 32">
<g>
</g>
	<path d="M6.848 27.392h13.728v-6.848h-13.728v6.848zM22.848 27.392h2.304v-16q0-0.256-0.192-0.672t-0.352-0.64l-5.024-4.992q-0.16-0.192-0.608-0.384t-0.704-0.16v7.424q0 0.704-0.48 1.216t-1.216 0.512h-10.304q-0.704 0-1.184-0.512t-0.512-1.216v-7.424h-2.304v22.848h2.304v-7.424q0-0.704 0.512-1.216t1.184-0.512h14.88q0.704 0 1.216 0.512t0.48 1.216v7.424zM16 10.816v-5.696q0-0.256-0.16-0.416t-0.416-0.16h-3.424q-0.224 0-0.416 0.16t-0.16 0.416v5.696q0 0.256 0.16 0.416t0.416 0.16h3.424q0.224 0 0.416-0.16t0.16-0.416zM27.424 11.392v16.576q0 0.704-0.48 1.216t-1.216 0.512h-24q-0.736 0-1.216-0.512t-0.512-1.216v-24q0-0.704 0.512-1.216t1.216-0.512h16.544q0.736 0 1.6 0.384t1.344 0.832l4.992 5.024q0.512 0.48 0.864 1.344t0.352 1.568z" fill="#000000" />
</svg>
