<?xml version="1.0" encoding="utf-8"?>
<!-- Generated by IcoMoon.io -->
<!DOCTYPE svg PUBLIC "-//W3C//DTD SVG 1.1//EN" "http://www.w3.org/Graphics/SVG/1.1/DTD/svg11.dtd">
<svg version="1.1" xmlns="http://www.w3.org/2000/svg" xmlns:xlink="http://www.w3.org/1999/xlink" width="32" height="32" viewBox="0 0 32 32">
<g>
</g>
	<path d="M30.976 26.752l-6.976-6.976c1.216-1.984 1.952-4.288 1.952-6.752 0-7.136-5.792-12.928-12.928-12.928s-12.928 5.792-12.928 12.928c0 7.136 5.792 12.928 12.928 12.928 2.496 0 4.768-0.736 6.752-1.952l6.976 6.976c1.184 1.184 3.072 1.184 4.224 0 1.184-1.152 1.184-3.040 0-4.224zM13.024 21.952c-4.96 0-8.96-4-8.96-8.928 0-4.96 4-8.96 8.96-8.96 4.928 0 8.928 4 8.928 8.96 0 4.928-4 8.928-8.928 8.928z" fill="#000000" />
</svg>
