<?xml version="1.0" encoding="iso-8859-1"?>
<!-- Generator: Adobe Illustrator 17.1.0, SVG Export Plug-In . SVG Version: 6.00 Build 0)  -->
<!DOCTYPE svg PUBLIC "-//W3C//DTD SVG 1.1//EN" "http://www.w3.org/Graphics/SVG/1.1/DTD/svg11.dtd">
<svg version="1.1" id="Layer_1" xmlns="http://www.w3.org/2000/svg" xmlns:xlink="http://www.w3.org/1999/xlink" x="0px" y="0px"
	 viewBox="0 0 32 32" style="enable-background:new 0 0 32 32;" xml:space="preserve">
<path d="M15.774,12.714h-4.571v1.524h3.048v1.523h-3.048v3.048H8.156V11.19h7.619V12.714z M24.917,12.714h-4.571v1.524h3.048v1.523
	h-3.048v3.048h-3.048V11.19h7.619V12.714z M24.904,27H7.095C3.183,27,0,23.816,0,19.904v-8.809C0,7.183,3.183,4,7.095,4h17.809
	C28.816,4,32,7.183,32,11.095v8.809C32,23.816,28.816,27,24.904,27z M7.095,6C4.286,6,2,8.286,2,11.095v8.809
	C2,22.714,4.286,25,7.095,25h17.809C27.714,25,30,22.714,30,19.904v-8.809C30,8.286,27.714,6,24.904,6H7.095z"/>
</svg>
