<?xml version="1.0" encoding="iso-8859-1"?>
<!-- Generator: Adobe Illustrator 17.1.0, SVG Export Plug-In . SVG Version: 6.00 Build 0)  -->
<!DOCTYPE svg PUBLIC "-//W3C//DTD SVG 1.1//EN" "http://www.w3.org/Graphics/SVG/1.1/DTD/svg11.dtd">
<svg version="1.1" id="Layer_1" xmlns="http://www.w3.org/2000/svg" xmlns:xlink="http://www.w3.org/1999/xlink" x="0px" y="0px"
	 viewBox="0 0 32 32" style="enable-background:new 0 0 32 32;" xml:space="preserve">
<g id="New_Symbol">
	<path d="M15.203,19.81H7.584V12.19h3.047v6.096h1.524V12.19h3.048V19.81z M24.346,13.714h-4.571v1.524h3.048v1.523h-3.048v3.048
		h-3.047V12.19h7.619V13.714z M24.904,28H7.095C3.183,28,0,24.816,0,20.904v-8.809C0,8.183,3.183,5,7.095,5h17.809
		C28.816,5,32,8.183,32,12.095v8.809C32,24.816,28.816,28,24.904,28z M7.095,7C4.286,7,2,9.286,2,12.095v8.809
		C2,23.714,4.286,26,7.095,26h17.809C27.714,26,30,23.714,30,20.904v-8.809C30,9.286,27.714,7,24.904,7H7.095z"/>
</g>
</svg>
