<?xml version="1.0" encoding="iso-8859-1"?>
<!-- Generator: Adobe Illustrator 17.1.0, SVG Export Plug-In . SVG Version: 6.00 Build 0)  -->
<!DOCTYPE svg PUBLIC "-//W3C//DTD SVG 1.1//EN" "http://www.w3.org/Graphics/SVG/1.1/DTD/svg11.dtd">
<svg version="1.1" id="Layer_1" xmlns="http://www.w3.org/2000/svg" xmlns:xlink="http://www.w3.org/1999/xlink" x="0px" y="0px"
	 viewBox="0 0 32 32" style="enable-background:new 0 0 32 32;" xml:space="preserve">
<g id="New_Symbol">
	<path d="M17.775,12.19v7.619h-3.048v-6.095h-1.524v6.095h-3.048v-6.095H8.631v6.095H5.584V12.19H17.775z M25.394,16.762h1.523
		v3.048H23.87v-3.048h-1.524v3.048h-3.048V12.19h7.619v3.048h-1.523V16.762z M22.346,15.238h1.463v-1.524h-1.463V15.238z M24.904,28
		H7.095C3.183,28,0,24.816,0,20.904v-8.809C0,8.183,3.183,5,7.095,5h17.809C28.816,5,32,8.183,32,12.095v8.809
		C32,24.816,28.816,28,24.904,28z M7.095,7C4.286,7,2,9.286,2,12.095v8.809C2,23.714,4.286,26,7.095,26h17.809
		C27.714,26,30,23.714,30,20.904v-8.809C30,9.286,27.714,7,24.904,7H7.095z"/>
</g>
</svg>
