<?xml version="1.0" encoding="iso-8859-1"?>
<!-- Generator: Adobe Illustrator 17.1.0, SVG Export Plug-In . SVG Version: 6.00 Build 0)  -->
<!DOCTYPE svg PUBLIC "-//W3C//DTD SVG 1.1//EN" "http://www.w3.org/Graphics/SVG/1.1/DTD/svg11.dtd">
<svg version="1.1" id="Layer_1" xmlns="http://www.w3.org/2000/svg" xmlns:xlink="http://www.w3.org/1999/xlink" x="0px" y="0px"
	 viewBox="0 0 32 32" style="enable-background:new 0 0 32 32;" xml:space="preserve">
<g id="New_Symbol">
	<g>
		<path d="M24.904,5H7.095C3.183,5,0,8.183,0,12.095v8.809C0,24.816,3.183,28,7.095,28h17.809C28.816,28,32,24.816,32,20.904v-8.809
			C32,8.183,28.816,5,24.904,5z M30,20.904C30,23.714,27.714,26,24.904,26H7.095C4.286,26,2,23.714,2,20.904v-8.809
			C2,9.286,4.286,7,7.095,7h17.809C27.714,7,30,9.286,30,12.095V20.904z"/>
		<polygon points="19,18 19,14 15,14 12,14 12,18 15,18 15,21 12,21 12,24 15,24 19,24 20,24 20,21 19,21 		"/>
		<rect x="16" y="9" width="3" height="3"/>
	</g>
</g>
</svg>
