<?xml version="1.0" encoding="iso-8859-1"?>
<!-- Generator: Adobe Illustrator 17.1.0, SVG Export Plug-In . SVG Version: 6.00 Build 0)  -->
<!DOCTYPE svg PUBLIC "-//W3C//DTD SVG 1.1//EN" "http://www.w3.org/Graphics/SVG/1.1/DTD/svg11.dtd">
<svg version="1.1" id="Layer_1" xmlns="http://www.w3.org/2000/svg" xmlns:xlink="http://www.w3.org/1999/xlink" x="0px" y="0px"
	 viewBox="0 0 32 32" style="enable-background:new 0 0 32 32;" xml:space="preserve">
<g id="New_Symbol">
	<path d="M24.904,28H7.095C3.183,28,0,24.816,0,20.904v-8.809C0,8.183,3.183,5,7.095,5h17.809C28.816,5,32,8.183,32,12.095v8.809
		C32,24.816,28.816,28,24.904,28z M7.095,7C4.286,7,2,9.286,2,12.095v8.809C2,23.714,4.286,26,7.095,26h17.809
		C27.714,26,30,23.714,30,20.904v-8.809C30,9.286,27.714,7,24.904,7H7.095z M22.428,20.333c0.223,0.223,0.334,0.492,0.334,0.81
		s-0.111,0.587-0.334,0.81s-0.492,0.334-0.809,0.334c-0.318,0-0.588-0.111-0.811-0.334l-2.643-2.666
		c-0.824,0.492-1.682,0.737-2.571,0.737c-1.35,0-2.508-0.479-3.477-1.439c-0.968-0.961-1.452-2.124-1.452-3.489
		c0-1.349,0.48-2.503,1.44-3.464c0.96-0.96,2.123-1.44,3.488-1.44c1.366,0,2.528,0.48,3.489,1.44
		c0.959,0.961,1.439,2.115,1.439,3.464c0,0.857-0.254,1.714-0.762,2.571L22.428,20.333z M13.178,17.5c0.675,0.666,1.48,1,2.417,1
		c0.936,0,1.739-0.334,2.405-1c0.666-0.667,1-1.468,1-2.405c0-0.937-0.334-1.738-1-2.405c-0.666-0.667-1.469-1-2.405-1
		c-0.937,0-1.742,0.333-2.417,1c-0.675,0.667-1.012,1.468-1.012,2.405C12.167,16.032,12.503,16.833,13.178,17.5z"/>
</g>
</svg>
