<?xml version="1.0" encoding="utf-8"?>
<!-- Generated by IcoMoon.io -->
<!DOCTYPE svg PUBLIC "-//W3C//DTD SVG 1.1//EN" "http://www.w3.org/Graphics/SVG/1.1/DTD/svg11.dtd">
<svg version="1.1" xmlns="http://www.w3.org/2000/svg" xmlns:xlink="http://www.w3.org/1999/xlink" width="32" height="32" viewBox="0 0 32 32">
<g>
</g>
	<path d="M31.872 15.936c0 0.672-0.064 1.312-0.128 1.984-0.032 0.16-0.064 0.32-0.064 0.48-0.096 0.544-0.192 1.056-0.352 1.6-0.032 0.096-0.032 0.192-0.064 0.288-0.384 1.312-0.928 2.56-1.6 3.712-1.376 2.304-3.296 4.224-5.6 5.6-1.152 0.672-2.4 1.216-3.712 1.6-0.096 0.032-0.192 0.032-0.288 0.064-0.512 0.128-1.056 0.256-1.6 0.32-0.16 0.032-0.32 0.064-0.48 0.096-0.64 0.064-1.312 0.128-1.984 0.128v0 0c-0.672 0-1.312-0.064-1.984-0.128-0.16-0.032-0.288-0.064-0.448-0.064-0.544-0.096-1.088-0.224-1.632-0.352-0.064-0.032-0.16-0.032-0.256-0.064-1.312-0.384-2.56-0.928-3.712-1.6-2.336-1.376-4.256-3.296-5.632-5.6-0.672-1.152-1.216-2.4-1.6-3.712 0-0.096-0.032-0.192-0.064-0.288-0.128-0.544-0.256-1.056-0.32-1.6-0.032-0.16-0.064-0.32-0.064-0.48-0.096-0.672-0.16-1.312-0.16-1.984v0 0c0-0.672 0.064-1.344 0.128-1.984 0.032-0.16 0.064-0.32 0.096-0.48 0.064-0.544 0.192-1.056 0.32-1.6 0.032-0.096 0.032-0.192 0.064-0.288 0.384-1.312 0.928-2.56 1.6-3.712 1.376-2.304 3.296-4.224 5.632-5.6 1.12-0.672 2.4-1.216 3.712-1.6 0.064-0.032 0.16-0.032 0.256-0.064 0.544-0.128 1.056-0.256 1.6-0.32 0.16-0.032 0.32-0.064 0.48-0.096 0.672-0.064 1.312-0.128 1.984-0.128v0 0c0.672 0 1.344 0.064 1.984 0.128 0.16 0.032 0.32 0.064 0.48 0.064 0.544 0.096 1.056 0.224 1.6 0.352 0.096 0.032 0.192 0.032 0.288 0.064 1.312 0.384 2.56 0.928 3.712 1.6 2.304 1.376 4.224 3.296 5.6 5.6 0.672 1.152 1.216 2.4 1.6 3.712 0.032 0.096 0.032 0.192 0.064 0.288 0.128 0.512 0.256 1.056 0.32 1.6 0.032 0.16 0.064 0.32 0.096 0.48 0.064 0.64 0.128 1.312 0.128 1.984v0 0zM6.784 12.32l-2.944-2.944c-1.056 1.952-1.728 4.16-1.728 6.56s0.672 4.608 1.728 6.56l2.944-2.944c-0.448-1.12-0.704-2.336-0.704-3.616 0-1.28 0.256-2.496 0.704-3.616zM16 29.824c2.4 0 4.608-0.64 6.56-1.728l-2.944-2.944c-1.12 0.448-2.336 0.704-3.616 0.704-1.28 0-2.496-0.256-3.616-0.704l-2.944 2.944c1.952 1.088 4.16 1.728 6.56 1.728zM16 2.048c-2.4 0-4.608 0.672-6.56 1.728l2.944 2.944c1.12-0.448 2.336-0.704 3.616-0.704s2.496 0.256 3.616 0.704l2.944-2.944c-1.952-1.056-4.16-1.728-6.56-1.728zM23.648 13.92v0c-0.736-2.752-2.88-4.896-5.632-5.632v0 0c-0.256-0.064-0.512-0.128-0.8-0.16-0.384-0.064-0.8-0.128-1.216-0.128-0.416 0-0.832 0.064-1.216 0.128-0.288 0.032-0.544 0.096-0.8 0.16v0 0c-2.752 0.736-4.896 2.88-5.632 5.632v0 0c-0.064 0.256-0.128 0.512-0.16 0.8-0.064 0.384-0.128 0.8-0.128 1.216 0 0.416 0.064 0.832 0.128 1.216 0.032 0.288 0.096 0.544 0.16 0.8v0 0c0.736 2.752 2.88 4.896 5.632 5.632v0 0c0.256 0.064 0.512 0.128 0.8 0.16 0.384 0.064 0.8 0.128 1.216 0.128 0.416 0 0.832-0.064 1.216-0.128 0.288-0.032 0.544-0.096 0.832-0.16v0 0c2.72-0.736 4.864-2.88 5.6-5.632v0 0c0.064-0.256 0.128-0.512 0.16-0.8 0.064-0.384 0.128-0.8 0.128-1.216 0-0.416-0.064-0.832-0.128-1.216-0.032-0.288-0.096-0.544-0.16-0.8v0zM28.16 9.376l-2.944 2.944c0.448 1.12 0.704 2.336 0.704 3.616s-0.256 2.496-0.704 3.616l2.944 2.944c1.088-1.952 1.728-4.16 1.728-6.56 0-2.4-0.64-4.608-1.728-6.56z" fill="#000000" />
</svg>
