<?xml version="1.0" encoding="utf-8"?>
<!-- Generated by IcoMoon.io -->
<!DOCTYPE svg PUBLIC "-//W3C//DTD SVG 1.1//EN" "http://www.w3.org/Graphics/SVG/1.1/DTD/svg11.dtd">
<svg version="1.1" xmlns="http://www.w3.org/2000/svg" xmlns:xlink="http://www.w3.org/1999/xlink" width="30" height="32" viewBox="0 0 30 32">
<g>
</g>
	<path d="M9.152 24.544v-3.424q0-0.256-0.16-0.416t-0.416-0.16h-5.728q-0.224 0-0.416 0.16t-0.16 0.416v3.424q0 0.256 0.16 0.416t0.416 0.16h5.728q0.256 0 0.416-0.16t0.16-0.416zM9.152 17.696v-3.456q0-0.224-0.16-0.384t-0.416-0.16h-5.728q-0.224 0-0.416 0.16t-0.16 0.384v3.456q0 0.224 0.16 0.384t0.416 0.16h5.728q0.256 0 0.416-0.16t0.16-0.384zM18.272 24.544v-3.424q0-0.256-0.16-0.416t-0.384-0.16h-5.728q-0.256 0-0.416 0.16t-0.16 0.416v3.424q0 0.256 0.16 0.416t0.416 0.16h5.728q0.224 0 0.384-0.16t0.16-0.416zM9.152 10.816v-3.424q0-0.256-0.16-0.416t-0.416-0.16h-5.728q-0.224 0-0.416 0.16t-0.16 0.416v3.424q0 0.256 0.16 0.416t0.416 0.16h5.728q0.256 0 0.416-0.16t0.16-0.416zM18.272 17.696v-3.456q0-0.224-0.16-0.384t-0.384-0.16h-5.728q-0.256 0-0.416 0.16t-0.16 0.384v3.456q0 0.224 0.16 0.384t0.416 0.16h5.728q0.224 0 0.384-0.16t0.16-0.384zM27.424 24.544v-3.424q0-0.256-0.16-0.416t-0.416-0.16h-5.696q-0.256 0-0.416 0.16t-0.16 0.416v3.424q0 0.256 0.16 0.416t0.416 0.16h5.696q0.256 0 0.416-0.16t0.16-0.416zM18.272 10.816v-3.424q0-0.256-0.16-0.416t-0.384-0.16h-5.728q-0.256 0-0.416 0.16t-0.16 0.416v3.424q0 0.256 0.16 0.416t0.416 0.16h5.728q0.224 0 0.384-0.16t0.16-0.416zM27.424 17.696v-3.456q0-0.224-0.16-0.384t-0.416-0.16h-5.696q-0.256 0-0.416 0.16t-0.16 0.384v3.456q0 0.224 0.16 0.384t0.416 0.16h5.696q0.256 0 0.416-0.16t0.16-0.384zM27.424 10.816v-3.424q0-0.256-0.16-0.416t-0.416-0.16h-5.696q-0.256 0-0.416 0.16t-0.16 0.416v3.424q0 0.256 0.16 0.416t0.416 0.16h5.696q0.256 0 0.416-0.16t0.16-0.416zM29.728 5.12v19.424q0 1.184-0.864 2.016t-2.016 0.832h-24q-1.152 0-2.016-0.832t-0.832-2.016v-19.424q0-1.184 0.832-2.016t2.016-0.864h24q1.184 0 2.016 0.864t0.864 2.016z" fill="#000000" />
</svg>
