<?xml version="1.0" encoding="utf-8"?>
<!-- Generated by IcoMoon.io -->
<!DOCTYPE svg PUBLIC "-//W3C//DTD SVG 1.1//EN" "http://www.w3.org/Graphics/SVG/1.1/DTD/svg11.dtd">
<svg version="1.1" xmlns="http://www.w3.org/2000/svg" xmlns:xlink="http://www.w3.org/1999/xlink" width="25" height="32" viewBox="0 0 25 32">
<g>
</g>
	<path d="M9.152 13.12v10.272q0 0.256-0.16 0.416t-0.416 0.16h-1.152q-0.256 0-0.416-0.16t-0.16-0.416v-10.272q0-0.256 0.16-0.416t0.416-0.16h1.152q0.256 0 0.416 0.16t0.16 0.416zM13.728 13.12v10.272q0 0.256-0.16 0.416t-0.416 0.16h-1.152q-0.256 0-0.416-0.16t-0.16-0.416v-10.272q0-0.256 0.16-0.416t0.416-0.16h1.152q0.256 0 0.416 0.16t0.16 0.416zM18.272 13.12v10.272q0 0.256-0.16 0.416t-0.384 0.16h-1.152q-0.256 0-0.416-0.16t-0.16-0.416v-10.272q0-0.256 0.16-0.416t0.416-0.16h1.152q0.224 0 0.384 0.16t0.16 0.416zM20.576 26.048v-16.928h-16v16.928q0 0.384 0.128 0.704t0.256 0.48 0.192 0.16h14.848q0.064 0 0.192-0.16t0.256-0.48 0.128-0.704zM8.576 6.816h8l-0.864-2.080q-0.128-0.16-0.288-0.192h-5.664q-0.192 0.032-0.32 0.192zM25.152 7.392v1.152q0 0.256-0.16 0.416t-0.416 0.16h-1.728v16.928q0 1.472-0.832 2.56t-2.016 1.088h-14.848q-1.184 0-2.016-1.056t-0.864-2.528v-16.992h-1.696q-0.256 0-0.416-0.16t-0.16-0.416v-1.152q0-0.256 0.16-0.416t0.416-0.16h5.504l1.248-2.976q0.288-0.672 0.992-1.12t1.408-0.48h5.696q0.704 0 1.408 0.48t0.96 1.12l1.248 2.976h5.536q0.256 0 0.416 0.16t0.16 0.416z" fill="#000000" />
</svg>
