<?xml version="1.0" encoding="utf-8"?>
<!-- Generated by IcoMoon.io -->
<!DOCTYPE svg PUBLIC "-//W3C//DTD SVG 1.1//EN" "http://www.w3.org/Graphics/SVG/1.1/DTD/svg11.dtd">
<svg version="1.1" xmlns="http://www.w3.org/2000/svg" xmlns:xlink="http://www.w3.org/1999/xlink" width="32" height="32" viewBox="0 0 32 32">
<g>
</g>
	<path d="M20.736 31.904h-11.968c-3.296 0-5.952-2.656-5.952-5.984v0c0.608-3.648 3.072-6.72 6.176-8.448-1.344-1.408-2.208-3.36-2.208-5.472v-4c0-4.384 3.552-7.968 7.968-7.968s7.968 3.584 7.968 7.968v4c0 2.112-0.864 4.064-2.208 5.472 3.104 1.728 5.568 4.8 6.176 8.448v0c0 3.328-2.656 5.984-5.952 5.984zM18.72 12v-4c0-2.176-1.76-3.968-3.968-3.968s-3.968 1.792-3.968 3.968v4c0 2.176 1.76 3.968 3.968 3.968s3.968-1.792 3.968-3.968zM22.72 25.92c-0.896-3.424-4.256-5.952-7.968-5.952v0 0c-3.712 0-7.072 2.528-7.968 5.952v0c0 1.12 0.896 2.016 1.984 2.016h11.936c1.12 0 2.016-0.896 2.016-2.016v0z" fill="#000000" />
</svg>
