<?xml version="1.0" encoding="utf-8"?>
<!-- Generated by IcoMoon.io -->
<!DOCTYPE svg PUBLIC "-//W3C//DTD SVG 1.1//EN" "http://www.w3.org/Graphics/SVG/1.1/DTD/svg11.dtd">
<svg version="1.1" xmlns="http://www.w3.org/2000/svg" xmlns:xlink="http://www.w3.org/1999/xlink" width="32" height="32" viewBox="0 0 32 32">
<g>
</g>
	<path d="M25.664 17.344c3.104 1.728 5.568 4.8 6.176 8.416 0 3.296-2.656 5.952-5.952 5.952h-2.752c1.184-1.024 2.048-2.4 2.464-3.968h0.288c1.088 0 1.984-0.864 1.984-1.984-0.512-1.984-1.856-3.616-3.616-4.704-0.928-1.6-2.176-3.040-3.68-4.224 0.224-0.384 0.416-0.8 0.576-1.216 1.6-0.512 2.752-1.984 2.752-3.744v-3.968c0-1.76-1.152-3.232-2.752-3.744-0.64-1.568-1.696-2.944-3.008-3.968 0.576-0.128 1.184-0.224 1.792-0.224 4.384 0 7.936 3.552 7.936 7.936v3.968c0 2.144-0.864 4.064-2.208 5.472zM17.952 31.712h-11.904c-3.296 0-5.952-2.656-5.952-5.952v0c0.608-3.648 3.040-6.688 6.176-8.416-1.376-1.408-2.208-3.328-2.208-5.472v-3.968c0-4.384 3.552-7.936 7.936-7.936s7.936 3.552 7.936 7.936v3.968c0 2.112-0.864 4.032-2.208 5.472 3.104 1.728 5.568 4.768 6.176 8.416v0c0 3.296-2.656 5.952-5.952 5.952zM15.968 11.872v-3.968c0-2.176-1.792-3.968-3.968-3.968-2.208 0-3.968 1.792-3.968 3.968v3.968c0 2.208 1.76 3.968 3.968 3.968 2.176 0 3.968-1.76 3.968-3.968zM19.936 25.76c-0.896-3.424-4.256-5.952-7.936-5.952v0 0c-3.712 0-7.072 2.528-7.936 5.952v0c0 1.12 0.864 1.984 1.984 1.984h11.904c1.088 0 1.984-0.864 1.984-1.984v0z" fill="#000000" />
</svg>
