<?xml version="1.0" encoding="utf-8"?>
<!-- Generated by IcoMoon.io -->
<!DOCTYPE svg PUBLIC "-//W3C//DTD SVG 1.1//EN" "http://www.w3.org/Graphics/SVG/1.1/DTD/svg11.dtd">
<svg version="1.1" xmlns="http://www.w3.org/2000/svg" xmlns:xlink="http://www.w3.org/1999/xlink" width="32" height="32" viewBox="0 0 32 32">
<g>
</g>
	<path d="M31.607 5.643l-5.023 5.023h-5.25v-5.332l4.961-4.959c-0.734-0.221-1.492-0.375-2.297-0.375-4.416 0-7.998 3.584-7.998 8 0 1.232 0.301 2.385 0.801 3.43l-16.020 16.015c-0.48 0.485-0.781 1.149-0.781 1.891 0 1.469 1.191 2.664 2.668 2.664 0.738 0 1.406-0.297 1.883-0.781l16.023-16.018c1.041 0.496 2.197 0.799 3.424 0.799 4.422 0 8-3.584 8-8 0-0.826-0.156-1.607-0.391-2.357z" fill="#000000" />
</svg>
