<?xml version="1.0" standalone="no"?>
<!DOCTYPE svg PUBLIC "-//W3C//DTD SVG 1.1//EN" "http://www.w3.org/Graphics/SVG/1.1/DTD/svg11.dtd" >
<!--
2014-6-11: Created.
-->
<svg xmlns="http://www.w3.org/2000/svg">
<metadata>
Created by FontForge 20120731 at Wed Jun 11 14:21:19 2014
 By Sean Barclay
Created by Sean Barclay with FontForge 2.0 (http://fontforge.sf.net)
</metadata>
<defs>
<font id="fauxtonicon" horiz-adv-x="512" >
  <font-face 
    font-family="fauxtonicon"
    font-weight="500"
    font-stretch="normal"
    units-per-em="512"
    panose-1="2 0 6 9 0 0 0 0 0 0"
    ascent="448"
    descent="-64"
    bbox="-0.0730828 -64.6562 516.096 448.515"
    underline-thickness="25.6"
    underline-position="-51.2"
    unicode-range="U+F101-F176"
  />
    <missing-glyph />
    <glyph glyph-name="uniF108" unicode="&#xf108;" 
d="M219.648 412.16c39.5944 0 76.2874 -9.89876 110.079 -29.6963c33.7923 -19.7975 60.4163 -46.4215 79.8721 -79.8721c19.4564 -33.4505 29.1846 -70.1439 29.1846 -110.08c0 -39.9355 -9.72819 -76.6289 -29.1846 -110.08
c-19.4557 -33.4505 -46.0798 -60.0745 -79.8721 -79.8721c-33.7917 -19.7969 -70.4847 -29.6953 -110.079 -29.6953c-39.5951 0 -76.4593 9.89844 -110.593 29.6953c-34.1328 19.7975 -60.5859 46.4215 -79.3594 79.8721c-18.7734 33.4512 -28.6722 70.1445 -29.6963 110.08
c-1.02409 39.9362 8.87467 76.6296 29.6963 110.08c20.821 33.4505 47.2741 60.0745 79.3594 79.8721s68.9495 29.6963 110.593 29.6963zM256 55.8076v54.2725c0 2.73047 -0.85319 4.94922 -2.55957 6.65625c-1.70703 1.70638 -3.75521 2.55957 -6.14453 2.55957h-54.7842
c-2.73047 0 -4.94889 -0.85319 -6.65527 -2.55957c-1.70703 -1.70703 -2.73112 -3.92578 -3.07227 -6.65625v-54.2725c0 -2.73047 1.02409 -4.94889 3.07227 -6.65527c2.04753 -1.70703 4.26595 -2.73112 6.65527 -3.07227h54.7842
c2.38932 0 4.4375 1.02409 6.14453 3.07227c1.70638 2.04753 2.55957 4.26595 2.55957 6.65527zM255.488 154.112l5.12012 177.151c0 2.38932 -1.02409 4.09603 -3.07227 5.12012c-1.70703 1.70703 -3.92578 2.56055 -6.65625 2.56055h-62.9756
c-2.73112 0 -4.94987 -0.853516 -6.65625 -2.56055c-2.04818 -1.02409 -3.07227 -2.73079 -3.07227 -5.12012l5.12012 -177.151c0 -2.04818 0.853516 -3.75488 2.56055 -5.12012c1.70638 -1.36523 4.0957 -2.04785 7.16797 -2.04785h52.7354
c2.73112 0 4.94987 0.682617 6.65625 2.04785s2.73047 3.07194 3.07227 5.12012z" />
    <glyph glyph-name="uniF12A" unicode="&#xf12a;" 
d="M201.216 89.5996v-68.6074c0 -3.07227 -1.19466 -5.80306 -3.58398 -8.19238s-4.94922 -3.41341 -7.67969 -3.07227h-68.6084c-3.07161 0 -5.80208 1.02409 -8.19141 3.07227s-3.58398 4.77897 -3.58398 8.19238v68.6074c0 3.07227 1.19466 5.80306 3.58398 8.19238
s5.11979 3.41341 8.19141 3.07227h68.6084c2.73047 0 5.29036 -1.02409 7.67969 -3.07227s3.58398 -4.77897 3.58398 -8.19238zM291.328 261.12c0 -10.2402 -1.36523 -19.7975 -4.0957 -28.6719c-2.73112 -8.875 -6.14453 -16.2139 -10.2402 -22.0166
c-4.09635 -5.80273 -9.38704 -11.4346 -15.8721 -16.8955c-6.48568 -5.46159 -11.9469 -9.72819 -16.3838 -12.7998c-4.4375 -3.07227 -10.2402 -6.3151 -17.4082 -9.72852c-7.85091 -4.4375 -14.3363 -10.752 -19.4561 -18.9434
c-5.11979 -8.19206 -7.67969 -14.5068 -7.67969 -18.9443c0 -3.41341 -1.19466 -6.48535 -3.58398 -9.21582c-2.38932 -2.73112 -5.12012 -4.26725 -8.19238 -4.6084h-68.6084c-2.73047 0 -5.11979 1.70671 -7.16797 5.12012
c-2.04753 3.41341 -3.07129 6.9974 -3.07129 10.752v13.3125c0 15.7012 6.31445 30.5492 18.9434 44.5439c12.6296 13.9941 26.1123 24.234 40.4482 30.7197c11.2643 5.11979 19.2858 10.5811 24.0645 16.3838s7.16797 12.9707 7.16797 21.5039
c0 7.85091 -4.4375 14.8483 -13.3125 20.9922c-8.87435 6.14388 -19.1143 9.21582 -30.7197 9.21582c-12.2884 0 -22.5283 -2.73047 -30.7197 -8.19141c-6.82682 -4.77865 -17.0671 -15.7015 -30.7207 -32.7686c-2.38932 -3.07161 -5.29069 -4.60742 -8.7041 -4.60742
c-2.38932 0 -4.77865 0.682617 -7.16797 2.04785l-46.5918 35.8398c-2.73047 2.04818 -4.26628 4.4375 -4.60742 7.16797c-0.341797 2.73047 0.169922 5.46094 1.53516 8.19141c30.3789 50.5176 74.5817 75.7764 132.608 75.7764c15.36 0 30.7201 -2.90137 46.0801 -8.7041
s29.1839 -13.6533 41.4717 -23.5518c12.2884 -9.89844 22.3577 -22.1865 30.208 -36.8643c7.85091 -14.6771 11.7764 -29.6956 11.7764 -45.0557z" />
    <glyph glyph-name="uniF133" unicode="&#xf133;" 
d="M0 192.512l75.7764 76.2881l180.224 179.712l75.7764 -75.7754l-179.712 -180.225l179.712 -180.224l-75.7764 -75.7764l-180.224 180.225z" />
    <glyph glyph-name="uniF107" unicode="&#xf107;" 
d="M146.432 92.1602v-64c0 -5.11979 -1.87728 -9.38639 -5.63184 -12.7998c-3.75456 -3.41341 -8.02116 -5.29102 -12.7998 -5.63281h-73.2158c-4.77865 0 -9.04525 1.8776 -12.7998 5.63281c-3.75521 3.75456 -5.63281 8.02116 -5.63281 12.7998v64
c0 4.77865 1.8776 9.04525 5.63281 12.7998c3.75456 3.75456 8.02116 5.46126 12.7998 5.12012h73.2158c5.11979 0 9.38639 -1.70671 12.7998 -5.12012s5.29069 -7.68001 5.63184 -12.7998zM154.624 393.728l-7.67969 -219.647
c-0.341797 -4.77865 -2.38997 -9.04525 -6.14453 -12.7998s-8.02116 -5.46126 -12.7998 -5.12012h-73.2158c-4.77865 0 -9.04525 1.70671 -12.7998 5.12012c-3.75521 3.41341 -5.80339 7.68001 -6.14453 12.7998l-7.67969 219.647
c-0.341146 4.7793 1.19466 9.04622 4.60742 12.8008c3.41341 3.75456 7.68034 5.63184 12.8008 5.63184h91.6475c4.77865 0 9.04525 -1.87728 12.7998 -5.63184c3.75521 -3.75456 5.29134 -8.02148 4.6084 -12.8008z" />
    <glyph glyph-name="uniF139" unicode="&#xf139;" 
d="M512 245.76v-226.815c0 -12.6296 -4.43717 -23.3815 -13.3115 -32.2559c-8.875 -8.875 -19.6273 -13.4831 -32.2568 -13.8242h-420.863c-12.2884 0 -23.0407 4.60807 -32.2568 13.8242c-9.21549 9.21549 -13.6527 19.9674 -13.3115 32.2559v226.815
c8.5332 -9.55729 18.0905 -17.9199 28.6719 -25.0879c68.9492 -46.7624 116.395 -79.5303 142.336 -98.3037c10.9225 -8.19206 19.6266 -14.5068 26.1123 -18.9443c6.48503 -4.4375 15.5303 -9.04557 27.1357 -13.8242s22.0163 -6.99707 31.2324 -6.65527h1.02344
c9.55729 0 19.9681 2.21842 31.2324 6.65527c11.2637 4.4375 20.3089 9.04557 27.1357 13.8242s15.5309 11.0934 26.1123 18.9443c32.4264 23.2103 79.8717 55.9782 142.336 98.3037c10.9225 7.50911 20.4798 15.8717 28.6719 25.0879zM512 329.728
c0 -15.0182 -4.60807 -29.3542 -13.8242 -43.0078c-9.21615 -13.653 -20.8213 -25.429 -34.8154 -35.3281c-71.6803 -49.8346 -116.395 -80.7253 -134.145 -92.6719c-1.70638 -1.36523 -5.63151 -4.2666 -11.7754 -8.7041
c-6.14453 -4.43685 -11.2646 -8.19141 -15.3604 -11.2637c-4.09635 -3.07227 -9.04557 -6.14421 -14.8477 -9.21582c-5.80273 -3.07227 -11.4349 -5.63216 -16.8965 -7.67969c-5.46159 -2.04818 -10.0697 -2.90169 -13.8242 -2.56055h-1.02344
c-4.09635 0 -8.70443 0.853516 -13.8242 2.56055c-5.11979 1.70638 -10.752 4.26628 -16.8965 7.67969c-6.14388 3.41341 -11.0931 6.48535 -14.8477 9.21582s-8.87467 6.48503 -15.3604 11.2637c-6.48503 4.77865 -10.4102 7.68001 -11.7754 8.7041
c-17.4082 11.9466 -42.4964 29.1839 -75.2646 51.7119c-32.7676 22.528 -52.2233 36.1813 -58.3672 40.96c-11.9466 7.85091 -23.04 18.7738 -33.2803 32.7686s-15.5309 27.1361 -15.8721 39.4238c0 14.6771 3.92546 26.9652 11.7764 36.8643
c7.85026 9.89844 19.1143 14.8477 33.792 14.8477h420.863c12.2884 0 22.8698 -4.43717 31.7441 -13.3115c8.875 -8.875 13.4831 -19.6273 13.8242 -32.2568z" />
    <glyph glyph-name="uniF144" unicode="&#xf144;" 
d="M208.766 -59.6162c-46.3301 0 -89.874 18.0889 -122.595 50.8799c-32.7598 32.7432 -50.8096 76.2324 -50.8096 122.586c0.0302734 46.3223 18.0498 89.8584 50.8096 122.58l175.544 171.749c47.1777 47.2002 130.493 47.3848 178.093 -0.253906
c49.1084 -49.1934 49.1084 -129.184 0 -178.322l-157.979 -154.101c-30.4199 -30.4355 -80.4199 -30.4961 -111.148 0.276367c-30.7285 30.79 -30.7285 80.7598 0 111.479l61.1465 61.1553l44.583 -44.582l-61.1465 -61.1475
c-4.04199 -4.06348 -4.61914 -8.74414 -4.61914 -11.1465c0 -2.43066 0.577148 -7.11133 4.61914 -11.1758c8.06641 -8.03613 14.2168 -8.03613 22.291 0l157.888 154.123c24.3232 24.292 24.3232 64.2871 -0.24707 88.8965c-23.8301 23.8311 -65.334 23.8311 -89.165 0
l-175.529 -171.766c-20.5908 -20.6211 -32.082 -48.3018 -32.082 -77.7656c0 -29.4971 11.4912 -57.2051 32.3281 -78.0195c41.6963 -41.7354 114.359 -41.7354 156.039 0l78.8203 78.8203l44.5527 -44.5674l-78.8213 -78.8193
c-32.7275 -32.7617 -76.2568 -50.8799 -122.571 -50.8799z" />
    <glyph glyph-name="uniF138" unicode="&#xf138;" 
d="M475.648 18.9443v219.136c-6.14453 -6.82682 -12.8008 -13.1416 -19.9688 -18.9443c-50.8587 -38.9121 -91.4772 -70.9974 -121.855 -96.2559c-9.55729 -8.19206 -17.4079 -14.6774 -23.5518 -19.4561c-6.14453 -4.77865 -14.3366 -9.38672 -24.5762 -13.8242
c-10.2402 -4.43685 -19.9684 -6.65527 -29.1846 -6.65527h-1.02344c-8.875 0 -18.6032 2.21842 -29.1846 6.65527c-10.5814 4.4375 -18.7734 9.04557 -24.5762 13.8242c-5.80208 4.77865 -13.6527 11.264 -23.5518 19.4561
c-30.0371 25.2585 -70.6556 57.3438 -121.855 96.2559c-7.16797 5.80273 -13.8242 12.1175 -19.9688 18.9443v-219.136c0 -2.73112 1.02409 -4.94987 3.07227 -6.65625c2.04818 -1.70703 4.09635 -2.56055 6.14453 -2.56055h420.863
c2.38932 0 4.4375 0.853516 6.14453 2.56055c1.70638 1.70638 2.73047 3.92513 3.07227 6.65625zM475.648 318.976v7.16797l-0.512695 3.58398l-0.511719 3.58398l-1.53613 2.56055l-2.55957 2.04785l-4.09668 1.02441h-420.863
c-2.38932 0 -4.4375 -1.02409 -6.14453 -3.07227c-1.70638 -2.04818 -2.73047 -4.09635 -3.07227 -6.14453c0 -32.0853 13.9948 -59.221 41.9844 -81.4072c36.8639 -29.0137 75.0934 -59.2217 114.688 -90.624c1.36523 -0.682943 4.77832 -3.41374 10.2393 -8.19238
c5.46159 -4.77865 9.72852 -8.36263 12.8008 -10.752c3.07161 -2.38932 7.33822 -5.46126 12.7998 -9.21582c5.46094 -3.75456 10.2396 -6.31445 14.3359 -7.67969c4.0957 -1.36589 8.19173 -2.2194 12.2881 -2.56055h1.02344c3.75456 0 7.85059 0.853516 12.2881 2.56055
c4.4375 1.70638 9.21615 4.26628 14.3359 7.67969c5.12044 3.41341 9.38704 6.48535 12.7998 9.21582c3.41341 2.73047 7.68034 6.31445 12.8008 10.752c5.11979 4.4375 8.53288 7.16829 10.2393 8.19238c39.5951 31.4023 77.8245 61.6104 114.688 90.624
c10.2402 8.19206 19.7975 19.2852 28.6719 33.2793c8.875 13.9948 13.3125 26.4535 13.3125 37.376zM512 329.728v-310.783c0 -12.6296 -4.43717 -23.3815 -13.3115 -32.2559c-8.875 -8.875 -19.6273 -13.4831 -32.2568 -13.8242h-420.863
c-12.2884 0 -23.0407 4.60807 -32.2568 13.8242c-9.21549 9.21549 -13.6527 19.9674 -13.3115 32.2559v310.783c0 12.6296 4.43717 23.3818 13.3115 32.2568c8.875 8.87435 19.6273 13.3115 32.2568 13.3115h420.863c12.6296 0 23.3818 -4.43717 32.2568 -13.3115
c8.87435 -8.875 13.3115 -19.6273 13.3115 -32.2568z" />
    <glyph glyph-name="uniF15B" unicode="&#xf15b;" 
d="M109.568 9.72754h219.647v109.568h-219.647v-109.568zM365.568 9.72754h36.8633v256c0 2.73112 -1.02376 6.31543 -3.07129 10.7529c-2.04818 4.43685 -3.92578 7.84993 -5.63281 10.2393l-80.3838 79.8721c-1.70638 2.04818 -4.94889 4.09635 -9.72754 6.14453
c-4.77865 2.04753 -8.53353 2.90072 -11.2646 2.55957v-118.784c0 -7.50911 -2.5599 -13.9945 -7.67969 -19.4561c-5.11979 -5.46094 -11.6051 -8.19141 -19.4561 -8.19141h-164.864c-7.50911 0 -13.8236 2.73047 -18.9434 8.19141
c-5.12044 5.46159 -7.85124 11.9469 -8.19238 19.4561v118.784h-36.8643v-365.568h36.8643v118.784c0 7.50977 2.73079 13.9951 8.19238 19.4561c5.46094 5.46159 11.7754 8.19238 18.9434 8.19238h238.08c7.50977 0 13.9951 -2.73079 19.4561 -8.19238
c5.46159 -5.46094 8.02181 -11.9463 7.68066 -19.4561v-118.784zM256 274.944v91.1357c0 2.73047 -0.85319 4.94922 -2.55957 6.65625c-1.70703 1.70638 -3.92578 2.55957 -6.65625 2.55957h-54.7842c-2.38932 0 -4.60807 -0.85319 -6.65625 -2.55957
c-2.04753 -1.70703 -2.90072 -3.92578 -2.55957 -6.65625v-91.1357c0 -2.73112 0.85319 -4.94987 2.55957 -6.65625c1.70703 -1.70703 3.92578 -2.56055 6.65625 -2.56055h54.7842c2.38932 0 4.60807 0.853516 6.65625 2.56055
c2.04753 1.70638 2.90072 3.92513 2.55957 6.65625zM438.784 265.728v-265.216c0 -7.50911 -2.56022 -13.9945 -7.68066 -19.4561c-5.11979 -5.46094 -11.6048 -8.19141 -19.4551 -8.19141h-384c-7.85091 0 -14.3363 2.73047 -19.4561 8.19141
c-5.12044 5.46159 -7.85124 11.9469 -8.19238 19.4561v384c0 7.50977 2.73079 13.9951 8.19238 19.4561c5.46094 5.46159 11.9463 8.19238 19.4561 8.19238h264.703c7.85091 0 16.3844 -2.04818 25.6006 -6.14453c9.21615 -4.0957 16.3841 -8.53288 21.5039 -13.3115
l79.8721 -80.3838c5.46094 -5.12044 10.069 -12.2884 13.8242 -21.5039c3.75456 -9.21615 5.63184 -17.5791 5.63184 -25.0889z" />
    <glyph glyph-name="uniF125" unicode="&#xf125;" 
d="M0 282.624l75.7764 75.7764l180.224 -179.712l180.224 179.712l75.7764 -75.7764l-256 -256l-75.7764 75.7764z" />
    <glyph glyph-name="uniF124" unicode="&#xf124;" 
d="M292.352 247.296c0 -4.77865 -1.70638 -9.04525 -5.11914 -12.7998l-128 -128c-3.75521 -3.75456 -8.02214 -5.63184 -12.8008 -5.63184s-9.04525 1.87728 -12.7998 5.63184l-128 128c-3.75456 3.75456 -5.63184 8.02116 -5.63184 12.7998
s1.87728 9.04525 5.63184 12.7998c3.75456 3.75456 8.02116 5.63184 12.7998 5.63184h256c4.77865 0 9.04557 -1.87728 12.8008 -5.63184c3.75456 -3.75456 5.46094 -8.02116 5.11914 -12.7998z" />
    <glyph glyph-name="uniF142" unicode="&#xf142;" 
d="M0 192.512c0 70.6562 25.0879 131.072 75.2637 181.248c50.1764 50.1764 110.422 75.0938 180.736 74.752c70.3145 -0.341146 130.73 -25.2585 181.248 -74.752s75.4349 -109.91 74.752 -181.248c-0.682943 -71.3385 -25.6003 -131.755 -74.752 -181.248
c-49.1523 -49.4928 -109.568 -74.4102 -181.248 -74.752c-71.6797 -0.341146 -131.925 24.5762 -180.736 74.752c-48.8105 50.1764 -73.8984 110.592 -75.2637 181.248zM93.1836 163.328l107.009 -107.008l52.7354 53.248l165.889 165.888l-52.7363 53.248l-165.888 -166.4
l-54.2725 54.2725z" />
    <glyph glyph-name="uniF126" unicode="&#xf126;" 
d="M192 416.768h128v-128h-128v128zM192 256.512h128v-128h-128v128zM192 96.7676h128v-128.512h-128v128.512z" />
    <glyph glyph-name="uniF122" unicode="&#xf122;" 
d="M466.432 193.024l-228.863 -229.376l-228.353 229.376l80.8965 80.8955l90.624 -90.1123v237.568h114.176v-237.568l90.1123 89.6006z" />
    <glyph glyph-name="uniF14B" unicode="&#xf14b;" 
d="M329.216 220.16v-18.4326c0 -2.73047 -0.85319 -4.94889 -2.55957 -6.65527c-1.70703 -1.70703 -3.92578 -2.56055 -6.65625 -2.56055h-100.352v-100.352c0 -2.73047 -0.853516 -4.94922 -2.56055 -6.65625c-1.70638 -1.70638 -3.92513 -2.55957 -6.65625 -2.55957
h-18.4316c-2.73047 0 -4.94922 0.85319 -6.65625 2.55957c-1.70638 1.70703 -2.55957 3.92578 -2.55957 6.65625v100.352h-100.353c-2.73047 0 -4.94889 0.853516 -6.65527 2.56055c-1.70703 1.70638 -2.56055 3.9248 -2.56055 6.65527v18.4326
c0 2.38932 0.853516 4.43717 2.56055 6.14355c1.70638 1.70703 3.9248 2.56055 6.65527 2.56055h100.353v100.863c0 2.73112 0.85319 4.94987 2.55957 6.65625c1.70703 1.70703 3.92578 2.56055 6.65625 2.56055h18.4316c2.73112 0 4.94987 -0.853516 6.65625 -2.56055
c1.70703 -1.70638 2.56055 -3.92513 2.56055 -6.65625v-100.863h100.352c2.73047 0 4.94922 -0.853516 6.65625 -2.56055c1.70638 -1.70638 2.55957 -3.9248 2.55957 -6.65527v0.511719zM365.568 92.1602v237.567c0 12.6296 -4.4375 23.3818 -13.3125 32.2568
c-8.87435 8.87435 -19.6263 13.3115 -32.2559 13.3115h-237.568c-12.6289 0 -23.3809 -4.43717 -32.2559 -13.3115c-8.87435 -8.875 -13.4824 -19.6273 -13.8242 -32.2568v-237.567c0 -12.6296 4.60807 -23.5524 13.8242 -32.7686
c9.21615 -9.21549 19.9681 -13.6527 32.2559 -13.3115h237.568c12.6296 0 23.3815 4.43717 32.2559 13.3115c8.875 8.875 13.3125 19.7979 13.3125 32.7686zM402.432 329.728v-237.567c0 -22.8691 -8.02116 -42.3252 -24.0635 -58.3682
c-16.043 -16.043 -35.499 -24.0645 -58.3682 -24.0645h-237.568c-22.8691 0 -42.3249 8.02148 -58.3672 24.0645c-16.043 16.043 -24.0645 35.499 -24.0645 58.3682v237.567c0 22.528 8.02148 41.8135 24.0645 57.8564c16.0423 16.043 35.498 24.235 58.3672 24.5762
h237.568c22.528 0 41.984 -8.19206 58.3682 -24.5762s24.4053 -35.6696 24.0635 -57.8564z" />
    <glyph glyph-name="uniF173" unicode="&#xf173;" 
d="M292.352 46.0801h183.297v36.8643h-183.297v-36.8643zM182.784 192.512h292.864v36.3525h-292.864v-36.3525zM365.568 338.944h110.08v36.3516h-110.08v-36.3516zM512 100.864v-72.7041c0 -5.11979 -1.87728 -9.38639 -5.63184 -12.7998
c-3.75456 -3.41341 -8.02116 -5.29102 -12.7998 -5.63281h-475.137c-5.11979 0 -9.38639 1.8776 -12.7998 5.63281c-3.41341 3.75456 -5.29069 8.02116 -5.63184 12.7998v72.7041c0 5.11979 1.87728 9.55697 5.63184 13.3115
c3.75456 3.75456 8.02116 5.46126 12.7998 5.12012h475.137c5.11979 0 9.38639 -1.70671 12.7998 -5.12012s5.29069 -7.85059 5.63184 -13.3115zM512 247.296v-73.2158c0 -4.77865 -1.87728 -9.04525 -5.63184 -12.7998s-8.02116 -5.46126 -12.7998 -5.12012h-475.137
c-5.11979 0 -9.38639 1.70671 -12.7998 5.12012c-3.41341 3.41341 -5.29069 7.68001 -5.63184 12.7998v73.2158c0 5.11979 1.87728 9.38639 5.63184 12.7998c3.75456 3.41341 8.02116 5.29069 12.7998 5.63184h475.137c5.11979 0 9.38639 -1.87728 12.7998 -5.63184
s5.29069 -8.02116 5.63184 -12.7998zM512 393.728v-73.2158c0 -5.11979 -1.87728 -9.38639 -5.63184 -12.7998s-8.02116 -5.29069 -12.7998 -5.63184h-475.137c-5.11979 0 -9.38639 1.87728 -12.7998 5.63184c-3.41341 3.75456 -5.29069 8.02116 -5.63184 12.7998v73.2158
c0 4.7793 1.87728 9.04622 5.63184 12.8008c3.75456 3.75456 8.02116 5.63184 12.7998 5.63184h475.137c5.11979 0 9.38639 -1.87728 12.7998 -5.63184s5.29069 -8.02148 5.63184 -12.8008z" />
    <glyph glyph-name="uniF16B" unicode="&#xf16b;" 
d="M9.21582 193.536l228.353 227.84l228.863 -227.84l-81.4072 -81.4082l-90.1123 90.624v-239.104h-114.176v239.104l-90.624 -90.624z" />
    <glyph glyph-name="uniF15E" unicode="&#xf15e;" 
d="M398.464 368c62.5918 0 113.536 -50.9277 113.536 -113.52v-140.944c0 -62.5918 -50.9443 -113.536 -113.536 -113.536h-284.944c-62.5918 0 -113.52 50.9443 -113.52 113.536v140.944c0 62.5918 50.9277 113.52 113.52 113.52h284.944zM480 113.536v140.944
c0 44.9434 -36.5762 81.5195 -81.5361 81.5195h-284.944c-44.9434 0 -81.5195 -36.5762 -81.5195 -81.5195v-140.944c0 -44.96 36.5762 -81.5361 81.5195 -81.5361h284.944c44.96 0 81.5361 36.5762 81.5361 81.5361zM304 160v-48h16v-48h-16h-64h-48v48h48v48h-48v64h48h64
v-64zM256 256v48h48v-48h-48z" />
    <glyph glyph-name="uniF160" unicode="&#xf160;" 
d="M284.4 252.96v-121.904h-48.7686v97.5205h-24.3838v-97.5205h-48.7676v97.5205h-24.3848v-97.5205h-48.752v121.904h195.057zM406.304 179.808h24.3682v-48.7676h-48.752v48.7676h-24.3838v-48.7676h-48.7686v121.92h121.904v-48.7676h-24.3682v-24.3848z
M357.536 204.192h23.4082v24.3838h-23.4082v-24.3838zM398.464 0h-284.944c-62.5918 0 -113.52 50.9443 -113.52 113.536v140.944c0 62.5918 50.9277 113.52 113.52 113.52h284.944c62.5918 0 113.536 -50.9277 113.536 -113.52v-140.944
c0 -62.5918 -50.9443 -113.536 -113.536 -113.536zM113.52 336c-44.9434 0 -81.5195 -36.5762 -81.5195 -81.5195v-140.944c0 -44.96 36.5762 -81.5361 81.5195 -81.5361h284.944c44.96 0 81.5361 36.5762 81.5361 81.5361v140.944
c0 44.9434 -36.5762 81.5195 -81.5361 81.5195h-284.944z" />
    <glyph glyph-name="uniF159" unicode="&#xf159;" 
d="M164.352 192.512c0 -4.77865 -1.70638 -9.04525 -5.11914 -12.7998l-128 -128c-3.75521 -3.75456 -8.02214 -5.63184 -12.8008 -5.63184s-9.04525 1.87728 -12.7998 5.63184c-3.75456 3.75456 -5.63184 8.02116 -5.63184 12.7998v256
c0 5.12044 1.87728 9.38704 5.63184 12.7998c3.75456 3.41341 8.02116 5.29102 12.7998 5.63281c4.77865 0.341146 9.04557 -1.53646 12.8008 -5.63281l128 -128c3.41276 -3.41276 5.11914 -7.67936 5.11914 -12.7998z" />
    <glyph glyph-name="uniF169" unicode="&#xf169;" 
d="M146.432 238.08v-164.353c0 -2.73047 -0.85319 -4.94889 -2.55957 -6.65527c-1.70703 -1.70703 -3.92578 -2.56055 -6.65625 -2.56055h-18.4316c-2.73047 0 -4.94922 0.853516 -6.65625 2.56055c-1.70638 1.70638 -2.55957 3.9248 -2.55957 6.65527v164.353
c0 2.73047 0.85319 4.94922 2.55957 6.65625c1.70703 1.70638 3.92578 2.55957 6.65625 2.55957h18.4316c2.73047 0 4.94922 -0.85319 6.65625 -2.55957c1.70638 -1.70703 2.55957 -3.92578 2.55957 -6.65625zM219.648 238.08v-164.353
c0 -2.73047 -0.853516 -4.94889 -2.56055 -6.65527c-1.70638 -1.70703 -3.92513 -2.56055 -6.65625 -2.56055h-18.4316c-2.73047 0 -4.94922 0.853516 -6.65625 2.56055c-1.70638 1.70638 -2.55957 3.9248 -2.55957 6.65527v164.353
c0 2.73047 0.85319 4.94922 2.55957 6.65625c1.70703 1.70638 3.92578 2.55957 6.65625 2.55957h18.4316c2.73112 0 4.94987 -0.85319 6.65625 -2.55957c1.70703 -1.70703 2.56055 -3.92578 2.56055 -6.65625zM292.352 238.08v-164.353
c0 -2.73047 -0.85319 -4.94889 -2.55957 -6.65527c-1.70638 -1.70703 -3.75423 -2.56055 -6.14355 -2.56055h-18.4326c-2.73047 0 -4.94922 0.853516 -6.65625 2.56055c-1.70638 1.70638 -2.55957 3.9248 -2.55957 6.65527v164.353
c0 2.73047 0.85319 4.94922 2.55957 6.65625c1.70703 1.70638 3.92578 2.55957 6.65625 2.55957h18.4326c2.38932 0 4.43717 -0.85319 6.14355 -2.55957c1.70638 -1.70703 2.55957 -3.92578 2.55957 -6.65625zM329.216 31.2324v270.848h-256v-270.848
c0 -4.09635 0.682617 -7.85124 2.04785 -11.2646s2.73079 -5.97331 4.09668 -7.67969c1.36523 -1.70703 2.389 -2.56055 3.07129 -2.56055h237.568c0.682943 0 1.70703 0.853516 3.07227 2.56055c1.36523 1.70638 2.73047 4.26628 4.0957 7.67969
s2.04785 7.16829 2.04785 11.2646zM137.216 338.944h128l-13.8242 33.2793c-1.36523 1.70703 -2.90104 2.73112 -4.60742 3.07227h-90.624c-2.04818 -0.341146 -3.75488 -1.36523 -5.12012 -3.07227zM402.432 329.728v-18.4316
c0 -2.73047 -0.85319 -4.94922 -2.55957 -6.65625c-1.70703 -1.70638 -3.92578 -2.55957 -6.65625 -2.55957h-27.6475v-270.848c0 -15.7018 -4.4375 -29.3551 -13.3125 -40.96c-8.87435 -11.6055 -19.6263 -17.4082 -32.2559 -17.4082h-237.568
c-12.6289 0 -23.3809 5.63184 -32.2559 16.8955c-8.87435 11.2643 -13.4824 24.7471 -13.8242 40.4482v271.872h-27.1357c-2.73047 0 -4.94922 0.85319 -6.65625 2.55957c-1.70638 1.70703 -2.55957 3.92578 -2.55957 6.65625v18.4316
c0 2.73112 0.85319 4.94987 2.55957 6.65625c1.70703 1.70703 3.92578 2.56055 6.65625 2.56055h88.0645l19.9678 47.6152c3.07227 7.16797 8.36296 13.1416 15.8721 17.9209c7.50911 4.77865 15.0186 7.33854 22.5283 7.67969h91.1357
c7.50911 0 15.0182 -2.5599 22.5273 -7.67969c7.50977 -5.12044 12.6299 -11.0941 15.3604 -17.9209l19.9678 -47.6152h88.5762c2.73047 0 4.94922 -0.853516 6.65625 -2.56055c1.70638 -1.70638 2.55957 -3.92513 2.55957 -6.65625z" />
    <glyph glyph-name="uniF143" unicode="&#xf143;" 
d="M0 192c0 70.6562 25.0879 131.072 75.2637 181.248c50.1764 50.1758 110.422 75.0931 180.736 74.752s130.73 -25.2585 181.248 -74.752s75.4349 -109.91 74.752 -181.248c-0.682943 -71.3385 -25.6003 -131.755 -74.752 -181.248
c-49.1523 -49.4935 -109.568 -74.4108 -181.248 -74.752c-71.6797 -0.341146 -131.925 24.5762 -180.736 74.752c-48.8105 50.1758 -73.8984 110.592 -75.2637 181.248zM55.8076 192c0 -55.2962 19.627 -102.4 58.8809 -141.312
c39.2533 -38.9121 86.3571 -58.5391 141.312 -58.8809c54.9544 -0.341146 102.058 19.2858 141.312 58.8809c39.2539 39.5944 58.8809 86.6982 58.8809 141.312s-19.627 101.717 -58.8809 141.312c-39.2533 39.5951 -86.3571 59.222 -141.312 58.8809
c-54.9544 -0.341797 -102.058 -19.9688 -141.312 -58.8809c-39.2539 -38.9115 -58.8809 -86.0153 -58.8809 -141.312zM110.08 165.888l48.1279 47.1045l47.6162 -48.1279l147.968 148.992l48.1279 -47.6162l-148.992 -148.48l-47.1035 -47.6162l-47.6162 47.6162z" />
    <glyph glyph-name="uniF102" unicode="&#xf102;" 
d="M0 448.512h512v-512h-512v512zM448 0.511719v384h-384v-384h384zM384 96.7676h-256l128 192z" />
    <glyph glyph-name="uniF164" unicode="&#xf164;" 
d="M512 92.1602v-91.6484c0 -7.50911 -2.73079 -13.9945 -8.19238 -19.4561c-5.46094 -5.46094 -11.9463 -8.19141 -19.4561 -8.19141h-91.1357c-7.50911 0 -13.9945 2.73047 -19.4561 8.19141c-5.46094 5.46159 -8.19141 11.9469 -8.19141 19.4561v91.6484
c0 7.50911 2.73047 13.9945 8.19141 19.4561c5.46159 5.46094 11.9469 8.02083 19.4561 7.67969h27.1357v54.7842h-145.92v-54.7842h27.1367c7.85026 0 14.3356 -2.5599 19.4561 -7.67969c5.11979 -5.12044 7.85026 -11.6058 8.19141 -19.4561v-91.6484
c0 -7.50911 -2.73047 -13.9945 -8.19141 -19.4561c-5.46159 -5.46094 -11.9469 -8.19141 -19.4561 -8.19141h-91.1367c-7.85026 0 -14.3356 2.73047 -19.4561 8.19141c-5.11979 5.46159 -7.85026 11.9469 -8.19141 19.4561v91.6484
c0 7.50911 2.73047 13.9945 8.19141 19.4561c5.46159 5.46094 11.9469 8.02083 19.4561 7.67969h27.1367v54.7842h-145.92v-54.7842h27.1357c7.50911 0 13.9945 -2.5599 19.4561 -7.67969c5.46094 -5.12044 8.19141 -11.6058 8.19141 -19.4561v-91.6484
c0 -7.50911 -2.73047 -13.9945 -8.19141 -19.4561c-5.46159 -5.46094 -11.9469 -8.19141 -19.4561 -8.19141h-91.1357c-7.85091 0 -14.3363 2.73047 -19.4561 8.19141c-5.12044 5.46159 -7.85124 11.9469 -8.19238 19.4561v91.6484
c0 7.50911 2.73079 13.9945 8.19238 19.4561c5.46094 5.46094 11.9463 8.02083 19.4561 7.67969h27.1357v54.7842c0 9.89844 3.58398 18.6025 10.752 26.1123c7.16797 7.50911 15.8721 11.0931 26.1123 10.752h145.92v54.7832h-27.1367
c-7.85026 0 -14.3356 2.56022 -19.4561 7.68066c-5.11979 5.11979 -7.85026 11.6051 -8.19141 19.4561v91.6475c0 7.50977 2.73047 13.9951 8.19141 19.4561c5.46159 5.46159 11.9469 8.19238 19.4561 8.19238h91.1367c7.85026 0 14.3356 -2.73079 19.4561 -8.19238
c5.11979 -5.46094 7.85026 -11.9463 8.19141 -19.4561v-91.6475c0 -7.50977 -2.73047 -13.9951 -8.19141 -19.4561c-5.46159 -5.46159 -11.9469 -8.02181 -19.4561 -7.68066h-27.1367v-54.7832h145.92c9.89909 0 18.6032 -3.58398 26.1123 -10.752
s11.0931 -15.8721 10.752 -26.1123v-54.7842h27.1357c7.85091 0 14.3363 -2.5599 19.4561 -7.67969c5.12044 -5.12044 7.85124 -11.6058 8.19238 -19.4561z" />
    <glyph glyph-name="uniF156" unicode="&#xf156;" 
d="M493.568 193.536c0 -2.73047 -0.853516 -5.11979 -2.56055 -7.16797l-110.08 -100.864c-3.07161 -2.73047 -6.31413 -3.41309 -9.72754 -2.04785c-3.75456 1.70638 -5.63184 4.60775 -5.63184 8.7041v64h-356.353c-2.73047 0 -4.94922 0.85319 -6.65625 2.55957
c-1.70638 1.70703 -2.55957 3.75521 -2.55957 6.14453v55.2959c0 2.38932 0.85319 4.43717 2.55957 6.14355c1.70703 1.70703 3.92578 2.56055 6.65625 2.56055h356.353v64c0 4.0957 1.87728 6.99707 5.63184 8.7041c3.75456 1.70638 6.99707 1.19434 9.72754 -1.53613
l110.08 -100.353c1.70703 -1.70638 2.56055 -3.75423 2.56055 -6.14355z" />
    <glyph glyph-name="uniF146" unicode="&#xf146;" 
d="M172.032 293.798c0 -14.4564 -4.97949 -26.6641 -14.9385 -36.623s-22.1667 -15.0993 -36.623 -15.4209c-14.4564 -0.320964 -26.6641 4.81934 -36.623 15.4209s-14.9385 22.8092 -14.9385 36.623s4.97949 25.8607 14.9385 36.1406
c9.95898 10.2806 22.1667 15.4209 36.623 15.4209c14.4564 0 26.6641 -5.1403 36.623 -15.4209c9.95898 -10.2799 14.9385 -22.3268 14.9385 -36.1406zM447.669 190.193v-120.471h-378.76v51.5615l85.7754 86.2568l43.3691 -42.8877l137.336 137.336zM473.208 379.572
h-430.32c-2.2487 0 -4.17643 -0.80306 -5.7832 -2.40918c-1.60612 -1.60612 -2.56966 -3.69434 -2.89062 -6.26465v-326.716c0 -2.57031 0.963542 -4.65853 2.89062 -6.26465c1.92773 -1.60612 3.85547 -2.40918 5.7832 -2.40918h430.32
c2.24935 0 4.33757 0.80306 6.26465 2.40918c1.92773 1.60612 2.73112 3.69434 2.41016 6.26465v326.716c0 2.24935 -0.803385 4.33757 -2.41016 6.26465c-1.60612 1.92773 -3.69434 2.73079 -6.26465 2.40918zM516.096 370.898v-326.716
c0 -11.8867 -4.17611 -22.0062 -12.5283 -30.3584c-8.35286 -8.35286 -18.4727 -12.6898 -30.3594 -13.0107h-430.32c-11.5651 0 -21.6846 4.33691 -30.3584 13.0107s-12.8503 18.7933 -12.5293 30.3584v326.716c0 11.8867 4.17643 22.0065 12.5293 30.3594
c8.35221 8.35221 18.4717 12.6891 30.3584 13.0107h430.32c11.8867 0 22.0065 -4.33691 30.3594 -13.0107c8.35221 -8.67383 12.5283 -18.7936 12.5283 -30.3594z" />
    <glyph glyph-name="uniF103" unicode="&#xf103;" 
d="M102.592 304h26.3203v-80h384v-48h-384v-80h-26.3203l-102.592 104z" />
    <glyph glyph-name="uniF10C" unicode="&#xf10c;" 
d="M0 368.64h512v-96.2559h-512v96.2559zM0 240.64h512v-96.2559h-512v96.2559zM0 112.64h512v-96.2559h-512v96.2559z" />
    <glyph glyph-name="uniF152" unicode="&#xf152;" 
d="M0 -63.4883v225.792l75.7764 -75.7754l103.424 102.912l73.7275 -73.7285l-102.912 -103.424l75.7764 -75.7764h-225.792zM259.072 269.312l102.912 103.425l-75.7764 75.7754h225.792v-225.792l-75.7764 75.7764l-103.424 -102.912z" />
    <glyph glyph-name="uniF165" unicode="&#xf165;" 
d="M228.864 393.728v-227.84h227.84c0 -125.439 -101.888 -227.84 -227.84 -227.84c-125.44 0 -227.328 102.4 -227.328 227.84c0 125.44 100.864 227.328 226.304 227.84h1.02441zM510.976 201.728l-245.76 -0.511719s-0.511719 245.76 0.511719 245.76
c135.169 0 245.248 -110.079 245.248 -245.248z" />
    <glyph glyph-name="uniF118" unicode="&#xf118;" 
d="M256 292.864v-128c0 -2.38932 -0.85319 -4.4375 -2.55957 -6.14453c-1.70703 -1.70638 -3.92578 -2.55957 -6.65625 -2.55957h-91.1357c-2.73112 0 -4.94987 0.85319 -6.65625 2.55957c-1.70703 1.70703 -2.56055 3.75521 -2.56055 6.14453v18.4316
c0 2.73047 0.853516 4.94922 2.56055 6.65625c1.70638 1.70638 3.92513 2.55957 6.65625 2.55957h64v100.353c0 2.73047 0.85319 4.94889 2.55957 6.65527c1.70638 1.70703 3.75423 2.56055 6.14355 2.56055h18.4326c2.73047 0 4.94922 -0.853516 6.65625 -2.56055
c1.70638 -1.70638 2.55957 -3.9248 2.55957 -6.65527zM374.784 192.512c0 28.3307 -6.9974 54.2721 -20.9922 77.8242c-13.9948 23.5521 -32.7682 42.4961 -56.3203 56.832s-49.4932 21.3333 -77.8232 20.9922c-28.3307 -0.341146 -54.443 -7.33854 -78.3369 -20.9922
c-23.8932 -13.653 -42.6663 -32.597 -56.3193 -56.832c-13.6536 -24.2344 -20.651 -50.1758 -20.9922 -77.8242c-0.341146 -27.6478 6.65625 -53.5889 20.9922 -77.8232c14.3359 -24.235 33.109 -43.179 56.3193 -56.832c23.2109 -13.6536 49.3232 -20.651 78.3369 -20.9922
c29.013 -0.341797 54.9541 6.6556 77.8232 20.9922c22.8698 14.3359 41.6432 33.2799 56.3203 56.832c14.6771 23.5514 21.6745 49.4925 20.9922 77.8232zM438.784 192.512c0 -39.9355 -9.72819 -76.6289 -29.1846 -110.08
c-19.4557 -33.4505 -46.0798 -60.0745 -79.8721 -79.8721c-33.7917 -19.7969 -70.4847 -29.6953 -110.079 -29.6953c-39.5951 0 -76.4593 9.89844 -110.593 29.6953c-34.1328 19.7975 -60.5859 46.4215 -79.3594 79.8721c-18.7734 33.4512 -28.6722 70.1445 -29.6963 110.08
c-1.02409 39.9362 8.87467 76.6296 29.6963 110.08c20.821 33.4505 47.2741 60.0745 79.3594 79.8721s68.9495 29.6963 110.593 29.6963c41.6426 0 78.3356 -9.89876 110.079 -29.6963c31.7441 -19.7975 58.3682 -46.4215 79.8721 -79.8721
c21.5046 -33.4505 31.2327 -70.1439 29.1846 -110.08z" />
    <glyph glyph-name="uniF117" unicode="&#xf117;" 
d="M384 -64.6562h-288c-17.6797 0 -32 14.2881 -32 31.9365v385.552c0 17.6318 14.3203 31.9199 32 31.9199h80v-33.2637h-64c-8.83203 0 -16 -7.13672 -16 -15.9688v-352.271c0 -8.84766 7.16797 -15.9678 16 -15.9678h256c8.84766 0 16 7.12012 16 15.9678v352.271
c0 8.83203 -7.15234 15.9688 -16 15.9688h-64v33.2637h80c17.6641 0 32 -14.3037 32 -31.9199v-385.552c0 -17.6484 -14.3359 -31.9365 -32 -31.9365zM176 255.696h176v-15.9688h-176v15.9688zM176 207.792h176v-15.9678h-176v15.9678zM176 159.872h176v-15.9678h-176
v15.9678zM176 111.968h176v-15.9678h-176v15.9678zM352 0.223633h-176v15.9365h176v-15.9365zM176 64.0645h176v-15.9688h-176v15.9688zM128 256.016h16v-15.9678h-16v15.9678zM128 208.112h16v-15.9688h-16v15.9688zM128 160.224h16v-15.9678h-16v15.9678zM128 112.32h16
v-15.9688h-16v15.9688zM144 0.52832h-16v15.9678h16v-15.9678zM128 64.4004h16v-15.9688h-16v15.9688zM336 334.544c8.84766 0 16 -7.15234 16 -15.9844v-30.9277h-224v30.9277c0 8.83203 7.15234 15.9844 16 15.9844h48s0.192383 22.7041 0.192383 48.6562
c0 26.9434 20.7998 49.4717 47.8076 49.4717s48.5283 -23.6797 48.5283 -49.6318c0 -27.9521 -0.52832 -48.4961 -0.52832 -48.4961h48zM240 384.752c-8.84766 0 -16 -7.13574 -16 -15.9521c0 -8.83203 7.15234 -15.9678 16 -15.9678s16 7.13574 16 15.9678
c0 8.81641 -7.15234 15.9521 -16 15.9521z" />
    <glyph glyph-name="uniF150" unicode="&#xf150;" 
d="M216.01 448.432v-137.54c31.6185 -4.3112 60.9375 -10.7786 87.957 -19.4023c27.0189 -8.62305 49.8701 -18.3958 68.5537 -29.3184c18.6836 -10.9225 35.6426 -22.7074 50.877 -35.3545c15.2337 -12.6478 27.5934 -25.7262 37.0791 -39.2354
c9.48568 -13.5098 17.6777 -26.4447 24.5762 -38.8047s11.9287 -24.4323 15.0908 -36.2168c3.16146 -11.7852 5.74837 -21.7018 7.76074 -29.75c2.01172 -8.04818 2.87402 -14.8031 2.58691 -20.2646l0.430664 -7.33008c-1.72461 3.16211 -4.45508 7.33008 -8.19141 12.5039
c-3.73698 5.17383 -13.3662 14.3717 -28.8877 27.5938c-15.5221 13.2227 -33.487 24.1455 -53.8945 32.7686c-20.4082 8.62305 -48.5775 16.0964 -84.5078 22.4199c-22.1328 3.44922 -45.415 5.17383 -69.8467 5.17383c-15.8092 0 -32.3372 -0.718424 -49.584 -2.15527
v-136.246l-216.01 215.147z" />
    <glyph glyph-name="uniF155" unicode="&#xf155;" 
d="M436.8 -64l-102.399 102.4l-75.2002 -75.2002v225.6h225.6l-75.2002 -75.2002l102.4 -104zM27.2002 195.2l75.2002 75.2002l-102.4 102.399l75.2002 75.2002l104 -102.4l75.2002 75.2002v-225.6h-227.2z" />
    <glyph glyph-name="uniF13D" unicode="&#xf13d;" 
d="M365.568 174.08v36.8643c0 4.77865 -1.70671 9.04525 -5.12012 12.7998s-7.68001 5.46126 -12.7998 5.12012h-256c-5.12044 0 -9.55794 -1.70671 -13.3125 -5.12012s-5.46126 -7.68001 -5.12012 -12.7998v-36.8643c0 -4.77865 1.70671 -9.04525 5.12012 -12.7998
s7.85091 -5.46126 13.3125 -5.12012h256c4.77865 0 9.04525 1.70671 12.7998 5.12012s5.46126 7.68001 5.12012 12.7998zM438.784 329.728v-274.432c0 -22.528 -8.02148 -41.8132 -24.0645 -57.8555c-16.0423 -16.043 -35.4984 -24.235 -58.3682 -24.5762h-273.92
c-22.8691 0 -42.3249 8.19206 -58.3672 24.5762c-16.043 16.3835 -24.0645 35.6686 -24.0645 57.8555v274.432c0 22.528 8.02148 41.8135 24.0645 57.8564c16.0423 16.043 35.498 24.235 58.3672 24.5762h273.92c22.8698 0 42.3258 -8.19206 58.3682 -24.5762
c16.043 -16.3841 24.0645 -35.6696 24.0645 -57.8564z" />
    <glyph glyph-name="uniF174" unicode="&#xf174;" 
d="M219.648 348.16c-28.3307 0 -54.443 -6.9974 -78.3369 -20.9922c-23.8932 -13.9948 -42.6663 -32.9388 -56.3193 -56.832c-13.6536 -23.8932 -20.651 -49.8346 -20.9922 -77.8242c-0.341146 -27.9889 6.65625 -53.93 20.9922 -77.8232
c14.3359 -23.8939 33.109 -42.8379 56.3193 -56.832c23.2109 -13.9948 49.3232 -20.9922 78.3369 -20.9922c29.013 0 54.9541 6.9974 77.8232 20.9922c22.8698 13.9941 41.6432 32.9382 56.3203 56.832c14.6771 23.8932 21.6745 49.8343 20.9922 77.8232
c-0.682943 27.9896 -7.68034 53.931 -20.9922 77.8242c-13.3118 23.8932 -32.0853 42.8372 -56.3203 56.832c-24.2344 13.9948 -50.1755 20.9922 -77.8232 20.9922zM438.784 192.512c0 -39.9355 -9.72819 -76.6289 -29.1846 -110.08
c-19.4557 -33.4505 -46.0798 -60.0745 -79.8721 -79.8721c-33.7917 -19.7969 -70.4847 -29.6953 -110.079 -29.6953c-39.5951 0 -76.4593 9.89844 -110.593 29.6953c-34.1328 19.7975 -60.5859 46.4215 -79.3594 79.8721c-18.7734 33.4512 -28.6722 70.1445 -29.6963 110.08
c-1.02409 39.9362 8.87467 76.6296 29.6963 110.08c20.821 33.4505 47.2741 60.0745 79.3594 79.8721s68.9495 29.6963 110.593 29.6963c41.6426 0 78.3356 -9.89876 110.079 -29.6963c31.7441 -19.7975 58.3682 -46.4215 79.8721 -79.8721
c21.5046 -33.4505 31.2327 -70.1439 29.1846 -110.08z" />
    <glyph glyph-name="uniF127" unicode="&#xf127;" 
d="M512 110.08v-54.7842c0 -2.38932 -0.85319 -4.43717 -2.55957 -6.14355c-1.70703 -1.70703 -3.92578 -2.73112 -6.65625 -3.07227h-393.216v-54.7842c0 -2.38932 -0.853516 -4.43717 -2.56055 -6.14355c-1.70638 -1.70703 -3.92513 -2.73112 -6.65625 -3.07227
c-2.04753 0 -4.26595 1.02409 -6.65527 3.07227l-91.1367 91.1357c-1.70638 1.70638 -2.55957 3.92513 -2.55957 6.65625c0 2.73047 0.85319 4.94889 2.55957 6.65527l91.6484 91.1367c1.70638 1.70638 3.75423 2.55957 6.14355 2.55957
c2.73112 0 4.94987 -0.85319 6.65625 -2.55957c1.70703 -1.70703 2.56055 -3.92578 2.56055 -6.65625v-54.7842h393.216c2.38932 0 4.60807 -0.85319 6.65625 -2.55957c2.04753 -1.70703 2.90072 -3.92578 2.55957 -6.65625zM512 265.728
c0 -2.73047 -0.85319 -4.94889 -2.55957 -6.65527l-91.6484 -91.6484c-1.70638 -1.70638 -3.75423 -2.55957 -6.14355 -2.55957c-2.73112 0 -4.94987 1.02376 -6.65625 3.07129c-1.70703 2.04818 -2.56055 4.09635 -2.56055 6.14453v54.7842h-393.216
c-2.38932 0 -4.60807 1.02376 -6.65625 3.07129c-2.04753 2.04818 -2.90072 4.09635 -2.55957 6.14453v54.7842c0 2.73047 0.85319 4.94889 2.55957 6.65527c1.70703 1.70703 3.92578 2.56055 6.65625 2.56055h393.216v54.7842c0 2.73047 0.853516 4.94889 2.56055 6.65527
c1.70638 1.70703 3.92513 2.56055 6.65625 2.56055c2.04753 0 4.26595 -0.853516 6.65527 -2.56055l91.1367 -91.1357c1.70638 -1.70638 2.55957 -3.92513 2.55957 -6.65625z" />
    <glyph glyph-name="uniF10E" unicode="&#xf10e;" 
d="M0 192.512c0 70.6562 25.0879 131.072 75.2637 181.248c50.1764 50.1764 110.422 75.0938 180.736 74.752c70.3145 -0.341146 130.73 -25.2585 181.248 -74.752s75.4349 -109.91 74.752 -181.248c-0.682943 -71.3385 -25.6003 -131.755 -74.752 -181.248
c-49.1523 -49.4928 -109.568 -74.4102 -181.248 -74.752c-71.6797 -0.341146 -131.925 24.5762 -180.736 74.752c-48.8105 50.1764 -73.8984 110.592 -75.2637 181.248zM112.128 112.64l64 -64l79.8721 79.8721l79.8721 -79.8721l64 64l-79.8721 79.8721l79.8721 79.8721
l-64 64l-79.8721 -79.8721l-79.8721 79.8721l-64 -64l79.8721 -79.8721z" />
    <glyph glyph-name="uniF175" unicode="&#xf175;" 
d="M108.8 150.4v83.1992h294.4v-83.1992h-294.4zM0 192c0 70.4004 25.5996 131.2 75.2002 180.8c49.5996 49.6006 110.399 76.7998 180.8 75.2002s131.2 -25.5996 180.8 -75.2002c51.2002 -48 75.2002 -108.8 75.2002 -180.8s-25.5996 -131.2 -75.2002 -180.8
c-49.5996 -49.6006 -108.8 -73.6006 -180.8 -75.2002s-131.2 24 -180.8 75.2002c-49.6006 51.2002 -73.6006 110.399 -75.2002 180.8zM56 192c0 -56 19.2002 -102.4 59.2002 -140.8c40 -38.4004 86.3994 -59.2002 140.8 -59.2002s102.4 19.2002 140.8 59.2002
c38.4004 40 59.2002 86.3994 59.2002 140.8s-19.2002 102.4 -59.2002 140.8c-40 38.4004 -86.3994 60.7998 -140.8 59.2002c-54.4004 0 -102.4 -19.2002 -140.8 -59.2002c-38.4004 -40 -59.2002 -84.7998 -59.2002 -140.8z" />
    <glyph glyph-name="uniF12E" unicode="&#xf12e;" 
d="M324.096 364.032c-23.8932 0 -44.2025 -8.36263 -60.9277 -25.0879c-16.7253 -16.7253 -25.2585 -36.6934 -25.5996 -59.9043c0 -4.77865 0.682617 -10.2399 2.04785 -16.3838l5.63184 -29.1846c-19.7975 -19.7969 -49.6641 -49.6634 -89.5996 -89.5996
c-39.9362 -39.9362 -69.6325 -69.4616 -89.0889 -88.5762v-33.792h56.832v56.832h57.3447v57.3438h56.832v24.0645l40.96 40.4482l29.1836 -5.63281c6.14388 -1.02344 11.4346 -1.53516 15.8721 -1.53516c23.8932 0 44.2025 8.36263 60.9277 25.0879
s24.9173 36.8639 24.5762 60.416c-0.341146 23.5521 -8.5332 43.6908 -24.5762 60.416c-16.0423 16.7253 -36.181 25.0879 -60.416 25.0879zM324.096 421.376c39.2533 0 72.8747 -13.9948 100.864 -41.9844c27.9896 -27.9889 41.8135 -61.61 41.4717 -100.863
c-0.341146 -39.2533 -14.165 -72.8747 -41.4717 -100.864s-61.0986 -41.9844 -101.376 -41.9844c-9.55729 0 -18.2614 0.853516 -26.1123 2.56055l-2.55957 -2.56055v-57.3438h-57.3438v-56.832h-56.832v-57.8555h-171.521v114.688l174.08 174.08
c-1.70638 7.85091 -2.55957 16.7256 -2.55957 26.624c0 39.2533 13.9945 72.7038 41.9834 100.352c27.9896 27.6484 61.7816 41.6432 101.376 41.9844zM294.912 279.04c0 18.7734 9.55729 28.1602 28.6719 28.1602s28.6719 -9.38672 28.6719 -28.1602
c0 -19.4557 -9.55729 -29.1836 -28.6719 -29.1836s-28.6719 9.72786 -28.6719 29.1836z" />
    <glyph glyph-name="uniF106" unicode="&#xf106;" 
d="M466.432 364.032h-457.216v57.3438h457.216v-57.3438zM294.912 249.856h-285.696v57.3438h285.696v-57.3438zM466.432 78.3359h-457.216v57.3438h457.216v-57.3438zM352.256 -36.3516h-343.04v57.8555h343.04v-57.8555zM466.432 -7.16797
c0 -8.19206 -2.73047 -15.0189 -8.19141 -20.4805c-5.46159 -5.46094 -12.1175 -8.36198 -19.9678 -8.70312c-7.85091 -0.341797 -14.6777 2.55924 -20.4805 8.70312c-5.80273 6.14453 -8.7041 12.9714 -8.7041 20.4805c0 7.50911 2.90137 14.165 8.7041 19.9678
s12.6296 8.7041 20.4805 8.7041c7.50911 0 14.165 -2.90137 19.9678 -8.7041s8.5332 -12.4587 8.19141 -19.9678z" />
    <glyph glyph-name="uniF135" unicode="&#xf135;" 
d="M109.568 110.08v-17.9199c0 -2.73047 -0.853516 -4.94922 -2.56055 -6.65625c-1.70638 -1.70638 -3.92513 -2.55957 -6.65625 -2.55957h-17.9199c-2.38932 0 -4.60775 0.85319 -6.65527 2.55957c-2.04818 1.70703 -2.90169 3.92578 -2.56055 6.65625v17.9199
c0 2.73047 0.853516 4.94922 2.56055 6.65625c1.70638 1.70638 3.9248 2.55957 6.65527 2.55957h17.9199c2.73112 0 4.94987 -0.85319 6.65625 -2.55957c1.70703 -1.70703 2.56055 -3.92578 2.56055 -6.65625zM109.568 183.296v-18.4316
c0 -2.38932 -0.853516 -4.4375 -2.56055 -6.14453c-1.70638 -1.70638 -3.92513 -2.55957 -6.65625 -2.55957h-17.9199c-2.38932 0 -4.60775 0.85319 -6.65527 2.55957c-2.04818 1.70703 -2.90169 3.75521 -2.56055 6.14453v18.4316
c0 2.38932 0.853516 4.60807 2.56055 6.65625c1.70638 2.04818 3.9248 2.90137 6.65527 2.55957h17.9199c2.73112 0 4.94987 -0.85319 6.65625 -2.55957c1.70703 -1.70703 2.56055 -3.92578 2.56055 -6.65625zM109.568 256.512v-18.4316
c0 -2.38932 -0.853516 -4.4375 -2.56055 -6.14453c-1.70638 -1.70638 -3.92513 -2.73014 -6.65625 -3.07129h-17.9199c-2.38932 0 -4.60775 1.02376 -6.65527 3.07129c-2.04818 2.04818 -2.90169 4.09635 -2.56055 6.14453v18.4316
c0 2.38932 0.853516 4.60807 2.56055 6.65625c1.70638 2.04818 3.9248 2.90137 6.65527 2.55957h17.9199c2.73112 0 4.94987 -0.85319 6.65625 -2.55957c1.70703 -1.70638 2.56055 -3.92513 2.56055 -6.65625zM438.784 110.08v-17.9199
c0 -2.73047 -0.853516 -4.94922 -2.56055 -6.65625c-1.70638 -1.70638 -3.9248 -2.55957 -6.65527 -2.55957h-273.92c-2.73112 0 -4.94987 0.85319 -6.65625 2.55957c-1.70703 1.70703 -2.56055 3.92578 -2.56055 6.65625v17.9199
c0 2.73047 0.853516 4.94922 2.56055 6.65625c1.70638 1.70638 3.92513 2.55957 6.65625 2.55957h273.92c2.73047 0 4.94889 -0.85319 6.65527 -2.55957c1.70703 -1.70703 2.56055 -3.92578 2.56055 -6.65625zM438.784 183.296v-18.4316
c0 -2.38932 -0.853516 -4.4375 -2.56055 -6.14453c-1.70638 -1.70638 -3.9248 -2.55957 -6.65527 -2.55957h-273.92c-2.73112 0 -4.94987 0.85319 -6.65625 2.55957c-1.70703 1.70703 -2.56055 3.75521 -2.56055 6.14453v18.4316
c0 2.38932 0.853516 4.60807 2.56055 6.65625c1.70638 2.04818 3.92513 2.90137 6.65625 2.55957h273.92c2.73047 0 4.94889 -0.85319 6.65527 -2.55957c1.70703 -1.70703 2.56055 -3.92578 2.56055 -6.65625zM438.784 256.512v-18.4316
c0 -2.38932 -0.853516 -4.4375 -2.56055 -6.14453c-1.70638 -1.70638 -3.9248 -2.73014 -6.65527 -3.07129h-273.92c-2.73112 0 -4.94987 1.02376 -6.65625 3.07129c-1.70703 2.04818 -2.56055 4.09635 -2.56055 6.14453v18.4316
c0 2.38932 0.853516 4.60807 2.56055 6.65625c1.70638 2.04818 3.92513 2.90137 6.65625 2.55957h273.92c2.73047 0 4.94889 -0.85319 6.65527 -2.55957c1.70703 -1.70638 2.56055 -3.92513 2.56055 -6.65625zM475.648 55.2959v237.568
c0 2.73047 -1.02409 4.94889 -3.07227 6.65527c-2.04818 1.70703 -4.09635 2.56055 -6.14453 2.56055h-420.863c-2.38932 0 -4.4375 -0.853516 -6.14453 -2.56055c-1.70638 -1.70638 -2.73047 -3.9248 -3.07227 -6.65527v-237.568
c0 -2.38932 1.02409 -4.43717 3.07227 -6.14355c2.04818 -1.70703 4.09635 -2.73112 6.14453 -3.07227h420.863c2.38932 0 4.4375 1.02409 6.14453 3.07227c1.70638 2.04753 2.73047 4.09538 3.07227 6.14355zM512 366.08v-310.784
c0 -12.6296 -4.43717 -23.3815 -13.3115 -32.2559c-8.875 -8.875 -19.6273 -13.3125 -32.2568 -13.3125h-420.863c-12.2884 0 -23.0407 4.4375 -32.2568 13.3125c-9.21549 8.87435 -13.6527 19.6263 -13.3115 32.2559v310.784c0 12.6296 4.43717 23.3815 13.3115 32.2559
c8.875 8.875 19.6273 13.4831 32.2568 13.8242h420.863c12.6296 0 23.3818 -4.60807 32.2568 -13.8242c8.87435 -9.21615 13.3115 -19.9681 13.3115 -32.2559z" />
    <glyph glyph-name="uniF101" unicode="&#xf101;" 
d="M512 -63.4883h-512v512h512v-512zM448 0.511719v384h-384v-384h384zM256 96.7676l-128 192h256z" />
    <glyph glyph-name="uniF130" unicode="&#xf130;" 
d="M237.568 -36.3516l-228.353 229.376l228.353 228.352l81.4072 -80.8955l-90.624 -90.624h238.08v-114.177h-238.08l90.624 -90.1113z" />
    <glyph glyph-name="uniF141" unicode="&#xf141;" 
d="M0 146.432l82.9443 82.9443l84.9912 -83.9678l260.097 261.12l83.9678 -83.9688l-344.064 -344.063l-82.9434 83.9678z" />
    <glyph glyph-name="uniF149" unicode="&#xf149;" 
d="M0 192.512c0 70.6562 25.0879 131.072 75.2637 181.248c50.1764 50.1764 110.422 75.0938 180.736 74.752c70.3145 -0.341146 130.73 -25.2585 181.248 -74.752s75.4349 -109.91 74.752 -181.248c-0.682943 -71.3385 -25.6003 -131.755 -74.752 -181.248
c-49.1523 -49.4928 -109.568 -74.4102 -181.248 -74.752c-71.6797 -0.341146 -131.925 24.5762 -180.736 74.752c-48.8105 50.1764 -73.8984 110.592 -75.2637 181.248zM112.128 151.552h102.912v-102.912h81.9199v102.912h102.912v81.9199h-102.912v102.912h-81.9199
v-102.912h-102.912v-81.9199z" />
    <glyph glyph-name="uniF104" unicode="&#xf104;" 
d="M512.912 200l-102.592 -104h-26.3203v80h-384v48h384v80h26.3203z" />
    <glyph glyph-name="uniF13F" unicode="&#xf13f;" 
d="M415.232 -60.9277h-316.929c-52.7354 0 -95.2314 43.0078 -95.2314 95.2314v316.929c0 52.7354 42.4961 95.2314 95.2314 95.2314h316.929c52.2236 0 95.2314 -42.4961 95.2314 -95.2314v-316.929c0 -52.2236 -43.0078 -95.2314 -95.2314 -95.2314zM446.976 351.232
c0 17.9199 -14.3359 31.7432 -31.7432 31.7432h-316.929c-17.9199 0 -31.7441 -14.3359 -31.7441 -31.7432v-316.929c0 -17.4072 13.8242 -31.7441 31.7441 -31.7441h316.929c17.4072 0 31.7432 14.3369 31.7432 31.7441v316.929zM351.744 97.792v-47.6162
c0 -8.7041 -7.16797 -15.8721 -15.8721 -15.8721s-15.8721 7.16797 -15.8721 15.8721v47.6162c-17.4082 0 -31.7441 14.3359 -31.7441 31.7441v31.7441c0 17.4082 14.3359 31.7441 31.7441 31.7441v142.336c0 8.7041 7.16797 15.8721 15.8721 15.8721
s15.8721 -7.16797 15.8721 -15.8721v-142.336c17.4082 0 31.7441 -14.3359 31.7441 -31.7441v-31.7441c0 -17.4082 -14.3359 -31.7441 -31.7441 -31.7441zM193.024 193.024v-142.849c0 -8.7041 -7.16797 -15.8721 -15.8721 -15.8721s-15.8721 7.16797 -15.8721 15.8721
v142.849c-17.4082 0 -31.7441 14.3359 -31.7441 31.7432v31.7441c0 17.4082 14.3359 31.2324 31.7441 31.2324v47.6162c0 8.7041 7.16797 15.8721 15.8721 15.8721s15.8721 -7.16797 15.8721 -15.8721v-47.6162c17.9199 0 31.7432 -13.8242 31.7432 -31.2324v-31.7441
c0 -17.9199 -13.8232 -31.7432 -31.7432 -31.7432z" />
    <glyph glyph-name="uniF131" unicode="&#xf131;" 
d="M329.216 220.16v-55.2959c0 -2.38932 -0.85319 -4.4375 -2.55957 -6.14453c-1.70703 -1.70638 -3.92578 -2.55957 -6.65625 -2.55957h-100.352v-55.2959c0 -2.38932 -0.853516 -4.4375 -2.56055 -6.14453c-1.70638 -1.70638 -3.92513 -2.55957 -6.65625 -2.55957
c-2.38932 0 -4.77865 0.85319 -7.16797 2.55957l-91.1357 91.1367c-1.70638 1.70638 -2.55957 3.9248 -2.55957 6.65527c0 2.73112 0.85319 4.94987 2.55957 6.65625l91.6484 91.1357c1.70638 1.70703 3.9248 2.56055 6.65527 2.56055
c2.38932 0 4.4375 -0.853516 6.14453 -2.56055c1.70638 -1.70638 2.73047 -3.75423 3.07227 -6.14355v-55.2959h100.352c2.38932 0 4.60807 -0.853516 6.65625 -2.56055c2.04753 -1.70638 2.90072 -3.75423 2.55957 -6.14355zM374.784 192.512
c0 28.3307 -6.9974 54.2721 -20.9922 77.8242c-13.9948 23.5521 -32.7682 42.4961 -56.3203 56.832s-49.4932 21.3333 -77.8232 20.9922c-28.3307 -0.341146 -54.443 -7.33854 -78.3369 -20.9922c-23.8932 -13.653 -42.6663 -32.597 -56.3193 -56.832
c-13.6536 -24.2344 -20.651 -50.1758 -20.9922 -77.8242c-0.341146 -27.6478 6.65625 -53.5889 20.9922 -77.8232c14.3359 -24.235 33.109 -43.179 56.3193 -56.832c23.2109 -13.6536 49.3232 -20.651 78.3369 -20.9922c29.013 -0.341797 54.9541 6.6556 77.8232 20.9922
c22.8698 14.3359 41.6432 33.2799 56.3203 56.832c14.6771 23.5514 21.6745 49.4925 20.9922 77.8232zM438.784 192.512c0 -39.9355 -9.72819 -76.6289 -29.1846 -110.08c-19.4557 -33.4505 -46.0798 -60.0745 -79.8721 -79.8721
c-33.7917 -19.7969 -70.4847 -29.6953 -110.079 -29.6953c-39.5951 0 -76.4593 9.89844 -110.593 29.6953c-34.1328 19.7975 -60.5859 46.4215 -79.3594 79.8721c-18.7734 33.4512 -28.6722 70.1445 -29.6963 110.08c-1.02409 39.9362 8.87467 76.6296 29.6963 110.08
c20.821 33.4505 47.2741 60.0745 79.3594 79.8721s68.9495 29.6963 110.593 29.6963c41.6426 0 78.3356 -9.89876 110.079 -29.6963c31.7441 -19.7975 58.3682 -46.4215 79.8721 -79.8721c21.5046 -33.4505 31.2327 -70.1439 29.1846 -110.08z" />
    <glyph glyph-name="uniF12C" unicode="&#xf12c;" 
d="M292.352 55.2959v45.5684c0 2.73047 -0.85319 4.94889 -2.55957 6.65527c-1.70638 1.70703 -3.75423 2.56055 -6.14355 2.56055h-27.6484v146.432c0 2.73112 -0.85319 4.94987 -2.55957 6.65625c-1.70703 1.70638 -3.92578 2.55957 -6.65625 2.55957h-91.1357
c-2.73112 0 -4.94987 -0.85319 -6.65625 -2.55957c-1.70703 -1.70638 -2.56055 -3.92513 -2.56055 -6.65625v-45.5674c0 -2.73112 0.853516 -4.94987 2.56055 -6.65625c1.70638 -1.70703 3.92513 -2.56055 6.65625 -2.56055h27.1357v-91.6475h-27.1357
c-2.73112 0 -4.94987 -0.853516 -6.65625 -2.56055c-1.70703 -1.70638 -2.56055 -3.9248 -2.56055 -6.65527v-45.5684c0 -2.73047 0.853516 -4.94922 2.56055 -6.65625c1.70638 -1.70638 3.92513 -2.55957 6.65625 -2.55957h128c2.38932 0 4.43717 0.85319 6.14355 2.55957
c1.70638 1.70703 2.55957 3.92578 2.55957 6.65625zM256 311.296v45.5684c0 2.73047 -0.85319 4.94889 -2.55957 6.65527c-1.70703 1.70703 -3.92578 2.56055 -6.65625 2.56055h-54.7842c-2.73047 0 -4.94922 -0.853516 -6.65625 -2.56055
c-1.70638 -1.70638 -2.55957 -3.9248 -2.55957 -6.65527v-45.5684c0 -2.73047 0.85319 -4.94922 2.55957 -6.65625c1.70703 -1.70638 3.92578 -2.55957 6.65625 -2.55957h54.7842c2.73047 0 4.94922 0.85319 6.65625 2.55957
c1.70638 1.70703 2.55957 3.92578 2.55957 6.65625zM438.784 192.512c0 -39.9355 -9.72819 -76.6289 -29.1846 -110.08c-19.4557 -33.4505 -46.0798 -60.0745 -79.8721 -79.8721c-33.7917 -19.7969 -70.4847 -29.6953 -110.079 -29.6953
c-39.5951 0 -76.4593 9.89844 -110.593 29.6953c-34.1328 19.7975 -60.5859 46.4215 -79.3594 79.8721c-18.7734 33.4512 -28.6722 70.1445 -29.6963 110.08c-1.02409 39.9362 8.87467 76.6296 29.6963 110.08c20.821 33.4505 47.2741 60.0745 79.3594 79.8721
s68.9495 29.6963 110.593 29.6963c41.6426 0 78.3356 -9.89876 110.079 -29.6963c31.7441 -19.7975 58.3682 -46.4215 79.8721 -79.8721c21.5046 -33.4505 31.2327 -70.1439 29.1846 -110.08z" />
    <glyph glyph-name="uniF148" unicode="&#xf148;" 
d="M0 120.32v144.384h183.808v183.808h144.385v-183.808h183.808v-144.384h-183.808v-183.809h-144.385v183.809h-183.808z" />
    <glyph glyph-name="uniF14D" unicode="&#xf14d;" 
d="M251.104 231.344l80.2725 80.2725l-40.416 40.3994l124.56 -0.735352l-0.0634766 -123.744l-41.4404 41.4395l-80.2559 -80.2715zM414.816 176.88l1.18359 -112.896c0 -17.6641 -14.3359 -32 -32 -32h-256c-17.6641 0 -32 14.3359 -32 32v256c0 17.6641 14.3359 32 32 32
h112l32 -32l-143.328 -0.640625l-0.255859 -255.567l256.24 0.143555l-0.560547 144.112z" />
    <glyph glyph-name="uniF119" unicode="&#xf119;" 
d="M292.352 192.512c0 20.1387 -6.99707 37.376 -20.9912 51.7119c-13.9948 14.3359 -31.2321 21.5039 -51.7119 21.5039c-20.4805 0 -37.7181 -7.16797 -51.7129 -21.5039c-13.9941 -14.3359 -21.1621 -31.5732 -21.5039 -51.7119
c-0.341146 -20.1387 6.82682 -37.376 21.5039 -51.7119c14.6777 -14.3359 31.9154 -21.5039 51.7129 -21.5039c19.7969 0 37.0342 7.16797 51.7119 21.5039c14.6771 14.3359 21.6742 31.5732 20.9912 51.7119zM438.784 223.744v-63.4883
c0 -2.38932 -0.682617 -4.60807 -2.04785 -6.65625c-1.36523 -2.04753 -3.24284 -3.24219 -5.63281 -3.58398l-53.2471 -8.19141c-3.41341 -10.2402 -6.99772 -18.9443 -10.7529 -26.1123c6.48568 -9.21615 16.555 -22.3574 30.208 -39.4238
c2.04818 -2.04818 3.07227 -4.26693 3.07227 -6.65625s-0.85319 -4.60807 -2.55957 -6.65625c-5.12044 -7.16797 -14.5072 -17.5785 -28.1602 -31.2314c-13.6536 -13.6536 -22.6989 -20.3096 -27.1357 -19.9678c-2.38932 0 -4.77865 0.85319 -7.16797 2.55957
l-39.4248 30.7197c-8.5332 -4.43685 -17.237 -8.02083 -26.1113 -10.752c-3.07227 -25.9414 -5.80306 -43.6908 -8.19238 -53.248c-1.36523 -5.46094 -4.77865 -8.19141 -10.2402 -8.19141h-63.4873c-2.73112 0 -5.12044 0.85319 -7.16797 2.55957
c-2.04818 1.70703 -3.07227 3.75521 -3.07227 6.14453l-8.19238 52.7354c-9.21549 3.07227 -17.7487 6.65625 -25.5996 10.752l-40.4482 -30.7197c-2.04818 -1.70638 -4.4375 -2.55957 -7.16797 -2.55957s-5.11979 1.02376 -7.16797 3.07129
c-23.8932 21.8457 -39.5944 37.8883 -47.1035 48.1279c-1.36589 1.70703 -2.04883 3.92578 -2.04883 6.65625c0 2.04818 0.853516 4.09635 2.56055 6.14453c2.73047 4.0957 7.50911 10.4102 14.3359 18.9434s11.9469 15.36 15.3604 20.4805
c-5.12044 9.55729 -9.0459 18.944 -11.7764 28.1602l-52.2236 7.67969c-2.38932 0.341146 -4.26693 1.53581 -5.63281 3.58398c-1.36523 2.04818 -2.21842 4.26693 -2.55957 6.65625v63.4873c0 2.38932 0.85319 4.60807 2.55957 6.65625
c1.70703 2.04818 3.41374 3.24284 5.12012 3.58398l53.248 8.19238c2.73112 8.5332 6.486 17.237 11.2646 26.1113c-7.85091 10.9232 -18.0911 24.0648 -30.7207 39.4248c-2.04753 2.38932 -3.07129 4.77865 -3.07129 7.16797c0 1.70638 0.85319 3.75423 2.55957 6.14355
c5.11979 6.82682 14.5065 17.0667 28.1602 30.7197c13.653 13.6536 22.6982 20.4805 27.1357 20.4805c2.38932 0 4.94922 -0.85319 7.67969 -2.55957l39.4248 -30.7207c8.19206 4.4375 16.7253 8.02148 25.5996 10.752c3.07227 25.9414 5.97363 43.6908 8.7041 53.248
c1.02409 5.12044 4.4375 7.68066 10.2402 7.68066h63.4873c2.38932 0 4.60807 -0.682943 6.65625 -2.04883c2.04818 -1.36523 3.24284 -3.41309 3.58398 -6.14355l7.67969 -52.7363c9.55794 -3.07161 18.0915 -6.6556 25.6006 -10.752l40.96 30.7207
c1.70638 1.70638 3.92513 2.55957 6.65625 2.55957c2.38932 0 4.77865 -0.85319 7.16797 -2.55957c24.5755 -22.8698 40.2767 -39.0833 47.1035 -48.6406c1.36523 -1.70638 2.04785 -3.92513 2.04785 -6.65625c0 -2.04753 -0.682617 -4.09538 -2.04785 -6.14355
c-3.07161 -4.09635 -8.02083 -10.5817 -14.8477 -19.4561s-11.9469 -15.5303 -15.3604 -19.9678c4.77865 -9.55729 8.7041 -18.944 11.7764 -28.1602l52.2236 -7.67969c2.38932 -0.341797 4.4375 -1.53646 6.14453 -3.58398
c1.70638 -2.04818 2.389 -4.26693 2.04785 -6.65625z" />
    <glyph glyph-name="uniF109" unicode="&#xf109;" 
d="M374.784 193.536c0 30.7201 -8.19206 58.7093 -24.5762 83.9678l-215.552 -215.04c25.9414 -17.0664 54.2721 -25.5996 84.9922 -25.5996c21.1621 0 41.3008 4.2666 60.416 12.7998c19.1146 8.5332 35.4984 19.6266 49.1514 33.2803
c13.6536 13.653 24.7471 30.2077 33.2803 49.6641c8.5332 19.4557 12.6292 39.765 12.2881 60.9277zM89.5996 108.032l215.553 215.552c-25.6003 17.0664 -54.1016 25.5996 -85.5039 25.5996c-28.3307 0 -54.443 -6.8265 -78.3369 -20.4795
c-23.8932 -13.6536 -42.6663 -32.7682 -56.3193 -57.3438c-13.6536 -24.5762 -20.651 -50.5176 -20.9922 -77.8242c0 -31.0612 8.5332 -59.5625 25.5996 -85.5039zM438.784 193.536c0 -30.0371 -5.80273 -58.7093 -17.4082 -86.0166
c-11.6055 -27.3066 -27.1361 -50.6878 -46.5918 -70.1436c-19.4564 -19.4557 -42.8379 -35.1569 -70.1445 -47.1035c-27.3066 -11.9473 -55.637 -17.75 -84.9912 -17.4082c-29.3548 0.341146 -57.8564 6.14388 -85.5049 17.4082
c-27.6478 11.2637 -51.029 26.9648 -70.1436 47.1035s-34.6452 43.5199 -46.5918 70.1436c-11.9466 26.6243 -17.7493 55.2965 -17.4082 86.0166s6.14388 59.2214 17.4082 85.5039c11.2637 26.2826 26.7943 49.6637 46.5918 70.1436
c19.7975 20.4805 43.1787 36.0114 70.1436 46.5928c26.9655 10.5814 55.4671 16.3838 85.5049 17.4072c30.0371 1.02409 58.3675 -4.77832 84.9912 -17.4072c26.6243 -12.6296 50.0059 -28.1605 70.1445 -46.5928c20.1387 -18.4316 35.6693 -41.8128 46.5918 -70.1436
c10.9225 -28.3307 16.7253 -56.832 17.4082 -85.5039z" />
    <glyph glyph-name="uniF123" unicode="&#xf123;" 
d="M320 183.296c0 -2.38932 -1.02409 -4.60807 -3.07227 -6.65625l-91.1357 -91.1357c-2.04818 -1.70638 -4.09603 -2.55957 -6.14355 -2.55957c-2.04818 0 -4.26693 0.85319 -6.65625 2.55957l-91.6484 91.1357c-2.73047 3.07227 -3.41309 6.48568 -2.04785 10.2402
c1.70703 3.75456 4.6084 5.63184 8.7041 5.63184h54.7842v100.353c0 2.73047 0.85319 4.94889 2.55957 6.65527c1.70703 1.70703 3.92578 2.56055 6.65625 2.56055h54.7842c2.73047 0 4.94922 -0.853516 6.65625 -2.56055
c1.70638 -1.70638 2.55957 -3.9248 2.55957 -6.65527v-100.353h54.7842c2.73047 0 4.94922 -0.85319 6.65625 -2.55957c1.70638 -1.70703 2.55957 -3.92578 2.55957 -6.65625zM219.648 348.16c-28.3307 0 -54.443 -6.9974 -78.3369 -20.9922
c-23.8932 -13.9948 -42.6663 -32.9388 -56.3193 -56.832c-13.6536 -23.8932 -20.651 -49.8346 -20.9922 -77.8242c-0.341146 -27.9889 6.65625 -53.93 20.9922 -77.8232c14.3359 -23.8939 33.109 -42.8379 56.3193 -56.832
c23.2109 -13.9948 49.3232 -20.9922 78.3369 -20.9922c29.013 0 54.9541 6.9974 77.8232 20.9922c22.8698 13.9941 41.6432 32.9382 56.3203 56.832c14.6771 23.8932 21.6745 49.8343 20.9922 77.8232c-0.682943 27.9896 -7.68034 53.931 -20.9922 77.8242
c-13.3118 23.8932 -32.0853 42.8372 -56.3203 56.832c-24.2344 13.9948 -50.1755 20.9922 -77.8232 20.9922zM438.784 192.512c0 -39.9355 -9.72819 -76.6289 -29.1846 -110.08c-19.4557 -33.4505 -46.0798 -60.0745 -79.8721 -79.8721
c-33.7917 -19.7969 -70.4847 -29.6953 -110.079 -29.6953c-39.5951 0 -76.4593 9.89844 -110.593 29.6953c-34.1328 19.7975 -60.5859 46.4215 -79.3594 79.8721c-18.7734 33.4512 -28.6722 70.1445 -29.6963 110.08c-1.02409 39.9362 8.87467 76.6296 29.6963 110.08
c20.821 33.4505 47.2741 60.0745 79.3594 79.8721s68.9495 29.6963 110.593 29.6963c41.6426 0 78.3356 -9.89876 110.079 -29.6963c31.7441 -19.7975 58.3682 -46.4215 79.8721 -79.8721c21.5046 -33.4505 31.2327 -70.1439 29.1846 -110.08z" />
    <glyph glyph-name="uniF121" unicode="&#xf121;" 
d="M218.624 77.3115c1.36523 -3.41276 0.85319 -6.65527 -1.53613 -9.72754l-99.8398 -110.08c-2.04818 -1.70638 -4.26693 -2.55957 -6.65625 -2.55957c-2.73047 0 -4.94922 0.85319 -6.65625 2.55957l-101.376 110.08c-2.73047 3.07227 -3.24219 6.31478 -1.53516 9.72754
c1.70638 3.75521 4.43685 5.63281 8.19141 5.63281h64v356.352c0 2.73047 0.853516 4.94922 2.56055 6.65625c1.70638 1.70638 3.9248 2.55957 6.65527 2.55957h54.7842c2.73047 0 4.94922 -0.85319 6.65625 -2.55957c1.70638 -1.70703 2.55957 -3.92578 2.55957 -6.65625
v-356.352h64c3.75521 0 6.486 -1.8776 8.19238 -5.63281z" />
    <glyph glyph-name="uniF10B" unicode="&#xf10b;" 
d="M399.872 448.512v-512l-143.872 131.072l-143.872 -131.072v512h287.744zM335.872 256.512v32.2559h-64v64h-31.7441v-64h-64v-32.2559h64v-64h31.7441v64h64z" />
    <glyph glyph-name="uniF151" unicode="&#xf151;" 
d="M164.168 448.328v-59.6387l-104.53 -104.529l104.53 -104.202v-59.3105l-164.168 163.513zM283.771 448.328v-104.53c24.0299 -3.27669 46.3122 -8.19206 66.8467 -14.7461c20.5352 -6.55339 37.9023 -13.9808 52.1016 -22.2822
c14.1992 -8.30078 27.0879 -17.2572 38.666 -26.8691s20.9717 -19.5518 28.1807 -29.8193c7.20898 -10.2669 13.4349 -20.0973 18.6777 -29.4912c5.24284 -9.39323 9.06576 -18.568 11.4688 -27.5244c2.40299 -8.95703 4.36914 -16.4938 5.89844 -22.6104
s2.29395 -11.2503 2.29395 -15.4014v-5.57031c-1.3112 2.40299 -3.38672 5.57064 -6.22656 9.50293s-10.1579 10.9229 -21.9541 20.9717c-11.7969 10.0488 -25.4502 18.3499 -40.96 24.9033c-15.5104 6.99089 -37.028 12.6706 -64.5527 17.0391
c-16.821 2.62174 -34.4066 3.93262 -52.7568 3.93262c-12.015 0 -24.5762 -0.546224 -37.6836 -1.63867v-103.547l-164.167 163.513z" />
    <glyph glyph-name="uniF10D" unicode="&#xf10d;" 
d="M334.848 192l177.152 -177.152l-78.8477 -78.8477l-177.152 177.152l-177.152 -177.152l-78.8477 78.8477l177.152 177.152l-177.152 177.152l78.8477 78.8477l177.152 -177.152l177.152 177.152l78.8477 -78.8477z" />
    <glyph glyph-name="uniF168" unicode="&#xf168;" 
d="M146.432 55.2959v54.7842c0 2.73047 -0.85319 4.94922 -2.55957 6.65625c-1.70703 1.70638 -3.92578 2.55957 -6.65625 2.55957h-91.6475c-2.38932 0 -4.60807 -0.85319 -6.65625 -2.55957c-2.04818 -1.70703 -2.90169 -3.92578 -2.56055 -6.65625v-54.7842
c0 -2.73047 0.853516 -4.94922 2.56055 -6.65625c1.70638 -1.70638 3.92513 -2.55957 6.65625 -2.55957h91.6475c2.73047 0 4.94922 0.85319 6.65625 2.55957c1.70638 1.70703 2.55957 3.92578 2.55957 6.65625zM146.432 164.864v55.2959
c0 2.38932 -0.85319 4.43717 -2.55957 6.14355c-1.70703 1.70703 -3.92578 2.56055 -6.65625 2.56055h-91.6475c-2.38932 0 -4.60807 -0.853516 -6.65625 -2.56055c-2.04818 -1.70638 -2.90169 -3.75423 -2.56055 -6.14355v-55.2959
c0 -2.38932 0.853516 -4.4375 2.56055 -6.14453c1.70638 -1.70638 3.92513 -2.55957 6.65625 -2.55957h91.6475c2.73047 0 4.94922 0.85319 6.65625 2.55957c1.70638 1.70703 2.55957 3.75521 2.55957 6.14453zM292.352 55.2959v54.7842
c0 2.73047 -0.85319 4.94922 -2.55957 6.65625c-1.70638 1.70638 -3.75423 2.55957 -6.14355 2.55957h-91.6484c-2.73047 0 -4.94922 -0.85319 -6.65625 -2.55957c-1.70638 -1.70703 -2.55957 -3.92578 -2.55957 -6.65625v-54.7842
c0 -2.73047 0.85319 -4.94922 2.55957 -6.65625c1.70703 -1.70638 3.92578 -2.55957 6.65625 -2.55957h91.6484c2.38932 0 4.43717 0.85319 6.14355 2.55957c1.70638 1.70703 2.55957 3.92578 2.55957 6.65625zM146.432 274.944v54.7832
c0 2.73112 -0.85319 4.94987 -2.55957 6.65625c-1.70703 1.70703 -3.92578 2.56055 -6.65625 2.56055h-91.6475c-2.38932 0 -4.60807 -0.853516 -6.65625 -2.56055c-2.04818 -1.70638 -2.90169 -3.92513 -2.56055 -6.65625v-54.7832
c0 -2.73112 0.853516 -4.94987 2.56055 -6.65625c1.70638 -1.70703 3.92513 -2.56055 6.65625 -2.56055h91.6475c2.73047 0 4.94922 0.853516 6.65625 2.56055c1.70638 1.70638 2.55957 3.92513 2.55957 6.65625zM292.352 164.864v55.2959
c0 2.38932 -0.85319 4.43717 -2.55957 6.14355c-1.70638 1.70703 -3.75423 2.56055 -6.14355 2.56055h-91.6484c-2.73047 0 -4.94922 -0.853516 -6.65625 -2.56055c-1.70638 -1.70638 -2.55957 -3.75423 -2.55957 -6.14355v-55.2959
c0 -2.38932 0.85319 -4.4375 2.55957 -6.14453c1.70703 -1.70638 3.92578 -2.55957 6.65625 -2.55957h91.6484c2.38932 0 4.43717 0.85319 6.14355 2.55957c1.70638 1.70703 2.55957 3.75521 2.55957 6.14453zM438.784 55.2959v54.7842
c0 2.73047 -0.853516 4.94922 -2.56055 6.65625c-1.70638 1.70638 -3.9248 2.55957 -6.65527 2.55957h-91.1367c-2.73047 0 -4.94889 -0.85319 -6.65527 -2.55957c-1.70703 -1.70703 -2.56055 -3.92578 -2.56055 -6.65625v-54.7842
c0 -2.73047 0.853516 -4.94922 2.56055 -6.65625c1.70638 -1.70638 3.9248 -2.55957 6.65527 -2.55957h91.1367c2.73047 0 4.94889 0.85319 6.65527 2.55957c1.70703 1.70703 2.56055 3.92578 2.56055 6.65625zM292.352 274.944v54.7832
c0 2.73112 -0.85319 4.94987 -2.55957 6.65625c-1.70638 1.70703 -3.75423 2.56055 -6.14355 2.56055h-91.6484c-2.73047 0 -4.94922 -0.853516 -6.65625 -2.56055c-1.70638 -1.70638 -2.55957 -3.92513 -2.55957 -6.65625v-54.7832
c0 -2.73112 0.85319 -4.94987 2.55957 -6.65625c1.70703 -1.70703 3.92578 -2.56055 6.65625 -2.56055h91.6484c2.38932 0 4.43717 0.853516 6.14355 2.56055c1.70638 1.70638 2.55957 3.92513 2.55957 6.65625zM438.784 164.864v55.2959
c0 2.38932 -0.853516 4.43717 -2.56055 6.14355c-1.70638 1.70703 -3.9248 2.56055 -6.65527 2.56055h-91.1367c-2.73047 0 -4.94889 -0.853516 -6.65527 -2.56055c-1.70703 -1.70638 -2.56055 -3.75423 -2.56055 -6.14355v-55.2959
c0 -2.38932 0.853516 -4.4375 2.56055 -6.14453c1.70638 -1.70638 3.9248 -2.55957 6.65527 -2.55957h91.1367c2.73047 0 4.94889 0.85319 6.65527 2.55957c1.70703 1.70703 2.56055 3.75521 2.56055 6.14453zM438.784 274.944v54.7832
c0 2.73112 -0.853516 4.94987 -2.56055 6.65625c-1.70638 1.70703 -3.9248 2.56055 -6.65527 2.56055h-91.1367c-2.73047 0 -4.94889 -0.853516 -6.65527 -2.56055c-1.70703 -1.70638 -2.56055 -3.92513 -2.56055 -6.65625v-54.7832
c0 -2.73112 0.853516 -4.94987 2.56055 -6.65625c1.70638 -1.70703 3.9248 -2.56055 6.65527 -2.56055h91.1367c2.73047 0 4.94889 0.853516 6.65527 2.56055c1.70703 1.70638 2.56055 3.92513 2.56055 6.65625zM475.648 366.08v-310.784
c0 -12.6296 -4.60807 -23.3815 -13.8242 -32.2559c-9.21615 -8.875 -19.9681 -13.3125 -32.2559 -13.3125h-384c-12.2884 0 -23.0407 4.4375 -32.2568 13.3125c-9.21549 8.87435 -13.6527 19.6263 -13.3115 32.2559v310.784c0 12.6296 4.43717 23.3815 13.3115 32.2559
c8.875 8.875 19.6273 13.4831 32.2568 13.8242h384c12.6289 0 23.3809 -4.60807 32.2559 -13.8242c8.87435 -9.21615 13.4824 -19.9681 13.8242 -32.2559z" />
    <glyph glyph-name="uniF16D" unicode="&#xf16d;" 
d="M292.352 100.864c0 -4.77865 -1.70638 -9.04525 -5.11914 -12.7998c-3.41341 -3.75521 -7.68034 -5.46191 -12.8008 -5.12012h-256c-5.11979 0 -9.38639 1.70671 -12.7998 5.12012c-3.41341 3.41276 -5.29069 7.67936 -5.63184 12.7998
c-0.341146 5.11979 1.53613 9.55697 5.63184 13.3115l128 128c3.41341 3.41341 7.68001 5.12012 12.7998 5.12012c5.12044 0 9.38737 -1.70671 12.8008 -5.12012l128 -128c3.41276 -3.75456 5.11914 -8.19173 5.11914 -13.3115z" />
    <glyph glyph-name="uniF11B" unicode="&#xf11b;" 
d="M0 192.512c0 70.6562 25.0879 131.072 75.2637 181.248c50.1764 50.1764 110.422 75.0938 180.736 74.752c71.3385 0 131.925 -25.2585 181.76 -75.7754l74.2402 52.7354v-238.08l-227.84 76.2881l67.0723 47.6162c-27.9896 22.1868 -59.7337 33.2803 -95.2324 33.2803
c-41.9837 0 -77.8236 -14.848 -107.52 -44.5439c-29.6966 -29.696 -44.5449 -65.5361 -44.5449 -107.521c0 -41.9837 14.8483 -77.8236 44.5449 -107.52c29.696 -29.696 65.5358 -44.5439 107.52 -44.5439c27.9896 0 53.5895 6.8265 76.7998 20.4795
c23.2109 13.6536 41.6429 32.2565 55.2959 55.8086l90.1123 -52.2246c-22.8691 -38.5703 -53.9303 -69.6315 -93.1836 -93.1836c-39.2539 -23.5521 -82.262 -35.1576 -129.024 -34.8164c-70.6562 0 -130.902 24.9173 -180.736 74.752
c-49.8346 49.8346 -74.9225 110.251 -75.2637 181.248z" />
    <glyph glyph-name="uniF167" unicode="&#xf167;" 
d="M3.49219 294.4l101 102.399h25.0312v-78.7695h378.093v-47.2607h-378.093v-78.7695h-25.0312zM508.508 89.5996l-101.016 -102.399h-25.9082v78.7686h-378.092v47.2607h378.092v78.7705h25.9082z" />
    <glyph glyph-name="uniF129" unicode="&#xf129;" 
d="M238.08 364.032c23.2109 0 47.1042 -5.80273 71.6797 -17.4082c24.5762 -11.6055 45.7389 -25.6003 63.4883 -41.9844c17.7493 -16.3835 33.9626 -32.9382 48.6396 -49.6641c14.6777 -16.7253 25.6006 -30.8903 32.7686 -42.4951l11.7754 -17.4082
c-3.07161 -4.77865 -7.16764 -11.0934 -12.2881 -18.9443c-5.11979 -7.85091 -15.8717 -21.6748 -32.2559 -41.4717c-16.3841 -19.7975 -32.9388 -37.3763 -49.6641 -52.7363s-37.3757 -29.3548 -61.9512 -41.9844c-24.5762 -12.6289 -48.6403 -18.7728 -72.1924 -18.4316
c-23.5521 0.341146 -47.4453 6.14388 -71.6797 17.4082c-24.235 11.2637 -45.3978 25.7702 -63.4883 43.5195s-34.4746 34.8161 -49.1523 51.2002c-14.6771 16.3841 -25.5996 31.0615 -32.7676 44.0322l-11.7764 17.4082c2.73047 4.77865 6.65592 10.9225 11.7764 18.4316
c5.11979 7.50911 15.8717 20.9919 32.2559 40.4482c16.3841 19.4557 33.1094 36.693 50.1758 51.7119c17.0671 15.0189 37.8883 28.5016 62.4639 40.4482c24.5762 11.9466 48.6403 17.9199 72.1924 17.9199zM238.08 78.3359c31.4023 0 58.3675 11.0934 80.8955 33.2803
c22.528 22.1868 33.6214 49.152 33.2803 80.8955c-0.341146 31.7441 -11.4346 58.7096 -33.2803 80.8965c-21.8451 22.1868 -48.8102 33.4508 -80.8955 33.792c-32.0853 0.341146 -59.0508 -10.9229 -80.8965 -33.792c-21.8451 -22.8698 -33.109 -49.8353 -33.792 -80.8965
c-0.682292 -31.0612 10.5817 -58.0264 33.792 -80.8955c23.2109 -22.8698 50.1764 -33.9632 80.8965 -33.2803zM180.736 192.512c0 38.2298 19.1146 57.3447 57.3438 57.3447c38.2292 0 57.1732 -19.1149 56.832 -57.3447
c-0.341146 -38.2292 -19.2852 -57.1732 -56.832 -56.832c-37.5469 0.341797 -56.6615 19.2858 -57.3438 56.832z" />
    <glyph glyph-name="uniF10A" unicode="&#xf10a;" 
d="M479.232 3.07227c-49.1523 -2.56055 -141.824 -10.752 -192 -36.8643c-2.56055 -15.3604 -15.3604 -27.1357 -31.2324 -27.1357s-28.1602 11.7754 -30.7197 27.1357c-50.1768 26.1123 -143.36 34.8164 -192 36.8643c-17.4082 0 -31.7441 14.3359 -31.7441 31.7441
v381.951c0 17.4082 14.3359 31.7441 31.7441 31.7441c1.02344 0 2.04785 -0.511719 3.07129 -0.511719c219.137 -5.63184 219.648 -62.9756 219.648 -62.9756s1.02441 57.3438 219.648 62.9756c1.53516 0 2.04785 0.511719 3.58398 0.511719
c17.4072 0 31.7432 -14.3359 31.7432 -31.7441v-381.951c0 -17.4082 -14.3359 -31.7441 -31.7432 -31.7441zM224.256 348.672c-40.96 20.9922 -109.056 29.6963 -159.231 33.2803v-316.928c85.5039 -4.6084 133.632 -17.4082 159.231 -30.208v313.855zM446.976 381.952
c-50.1758 -3.58398 -117.76 -12.2881 -158.72 -33.2803v-313.855c25.6006 12.7998 73.7285 25.5996 158.72 30.208v316.928zM415.232 321.024v-63.4883s-95.2324 0 -95.2324 -31.7441v63.4883s0 31.7441 95.2324 31.7441zM415.232 194.048v-64s-95.2324 0 -95.2324 -31.7441
v64s0 31.7441 95.2324 31.7441zM192.512 289.28v-63.4883c0 31.7441 -95.2314 31.7441 -95.2314 31.7441v63.4883c95.2314 0 95.2314 -31.7441 95.2314 -31.7441zM192.512 162.304v-64c0 31.7441 -95.2314 31.7441 -95.2314 31.7441v64
c95.2314 0 95.2314 -31.7441 95.2314 -31.7441z" />
    <glyph glyph-name="uniF166" unicode="&#xf166;" 
d="M509.952 193.024c0 -10.752 -1.02441 -20.9922 -2.04785 -31.7441c-0.512695 -2.56055 -1.02441 -5.12012 -1.02441 -7.68066c-1.53613 -8.70312 -3.07227 -16.8955 -5.63184 -25.5996c-0.511719 -1.53613 -0.511719 -3.07227 -1.02441 -4.6084
c-6.14355 -20.9912 -14.8477 -40.96 -25.5996 -59.3916c-22.0156 -36.8643 -52.7363 -67.584 -89.5996 -89.5996c-18.4326 -10.752 -38.4004 -19.4561 -59.3926 -25.6006c-1.53613 -0.511719 -3.07227 -0.511719 -4.60742 -1.02344
c-8.19238 -2.04883 -16.8965 -4.09668 -25.6006 -5.12012c-2.55957 -0.512695 -5.12012 -1.02441 -7.67969 -1.53613c-10.2402 -1.02441 -20.9922 -2.04785 -31.7441 -2.04785v0v0c-10.752 0 -20.9922 1.02344 -31.7441 2.04785
c-2.55957 0.511719 -4.60742 1.02344 -7.16797 1.02344c-8.7041 1.53613 -17.4082 3.58398 -26.1123 5.63281c-1.02344 0.511719 -2.55957 0.511719 -4.0957 1.02344c-20.9922 6.14453 -40.96 14.8486 -59.3916 25.6006c-37.376 22.0156 -68.0967 52.7354 -90.1123 89.5996
c-10.752 18.4316 -19.4561 38.4004 -25.5996 59.3916c0 1.53613 -0.512695 3.07227 -1.02441 4.6084c-2.04785 8.7041 -4.0957 16.8965 -5.12012 25.5996c-0.511719 2.56055 -1.02344 5.12012 -1.02344 7.68066c-1.53613 10.752 -2.56055 20.9922 -2.56055 31.7441v0v0
c0 10.752 1.02441 21.5039 2.04785 31.7432c0.512695 2.56055 1.02441 5.12012 1.53613 7.68066c1.02441 8.7041 3.07227 16.8955 5.12012 25.5996c0.511719 1.53613 0.511719 3.07227 1.02441 4.6084c6.14355 20.9922 14.8477 40.96 25.5996 59.3916
c22.0156 36.8643 52.7363 67.584 90.1123 89.6006c17.9199 10.752 38.3994 19.4551 59.3916 25.5996c1.02441 0.511719 2.56055 0.511719 4.0957 1.02441c8.7041 2.04785 16.8965 4.0957 25.6006 5.11914c2.55957 0.512695 5.12012 1.02441 7.67969 1.53613
c10.752 1.02441 20.9922 2.04785 31.7441 2.04785v0v0c10.752 0 21.5039 -1.02344 31.7441 -2.04785c2.55957 -0.511719 5.12012 -1.02344 7.67969 -1.02344c8.7041 -1.53613 16.8965 -3.58398 25.6006 -5.63184c1.53516 -0.512695 3.07129 -0.512695 4.60742 -1.02441
c20.9922 -6.14453 40.96 -14.8477 59.3926 -25.5996c36.8633 -22.0166 67.584 -52.7363 89.5996 -89.6006c10.752 -18.4316 19.4561 -38.3994 25.5996 -59.3916c0.512695 -1.53613 0.512695 -3.07227 1.02441 -4.6084c2.04785 -8.19141 4.0957 -16.8955 5.12012 -25.5996
c0.511719 -2.56055 1.02344 -5.12012 1.53613 -7.68066c1.02344 -10.2393 2.04785 -20.9912 2.04785 -31.7432v0v0zM108.544 250.88l-47.1035 47.1045c-16.8965 -31.2324 -27.6484 -66.5605 -27.6484 -104.96c0 -38.4004 10.752 -73.7285 27.6484 -104.96l47.1035 47.1035
c-7.16797 17.9199 -11.2637 37.376 -11.2637 57.8564c0 20.4795 4.0957 39.9355 11.2637 57.8555zM256 -29.1836c38.4004 0 73.7275 10.2393 104.96 27.6475l-47.1035 47.1045c-17.9209 -7.16797 -37.376 -11.2646 -57.8564 -11.2646s-39.9355 4.09668 -57.8564 11.2646
l-47.1035 -47.1045c31.2324 -17.4082 66.5596 -27.6475 104.96 -27.6475zM256 415.232c-38.4004 0 -73.7275 -10.752 -104.96 -27.6484l47.1035 -47.1035c17.9209 7.16797 37.376 11.2637 57.8564 11.2637s39.9355 -4.0957 57.8564 -11.2637l47.1035 47.1035
c-31.2324 16.8965 -66.5596 27.6484 -104.96 27.6484zM378.368 225.28v0c-11.7764 44.0312 -46.0801 78.3359 -90.1123 90.1113v0v0c-4.0957 1.02441 -8.19141 2.04883 -12.7998 2.56055c-6.14453 1.02344 -12.7998 2.04785 -19.4561 2.04785
s-13.3115 -1.02441 -19.4561 -2.04785c-4.6084 -0.511719 -8.7041 -1.53613 -12.7998 -2.56055v0v0c-44.0322 -11.7754 -78.3359 -46.0801 -90.1123 -90.1113v0v0c-1.02344 -4.09668 -2.04785 -8.19238 -2.55957 -12.7998
c-1.02441 -6.14453 -2.04785 -12.8008 -2.04785 -19.4561c0 -6.65625 1.02344 -13.3125 2.04785 -19.4561c0.511719 -4.6084 1.53613 -8.7041 2.55957 -12.8008v0v0c11.7764 -44.0312 46.0801 -78.3359 90.1123 -90.1113v0v0
c4.0957 -1.02441 8.19141 -2.04785 12.7998 -2.56055c6.14453 -1.02344 12.7998 -2.04785 19.4561 -2.04785s13.3115 1.02441 19.4561 2.04785c4.6084 0.512695 8.7041 1.53613 13.3115 2.56055v0v0c43.5205 11.7754 77.8242 46.0801 89.6006 90.1113v0v0
c1.02344 4.09668 2.04785 8.19238 2.55957 12.8008c1.02441 6.14355 2.04785 12.7998 2.04785 19.4561c0 6.65527 -1.02344 13.3115 -2.04785 19.4561c-0.511719 4.60742 -1.53613 8.70312 -2.55957 12.7998v0zM450.56 297.984l-47.1035 -47.1045
c7.16797 -17.9199 11.2637 -37.376 11.2637 -57.8555c0 -20.4805 -4.0957 -39.9365 -11.2637 -57.8564l47.1035 -47.1035c17.4082 31.2314 27.6484 66.5596 27.6484 104.96c0 38.3994 -10.2402 73.7275 -27.6484 104.96z" />
    <glyph glyph-name="uniF12D" unicode="&#xf12d;" 
d="M94.208 395.264c15.3604 10.752 39.4238 15.8721 72.1924 15.8721h39.4238v-39.9355h-20.9922c-10.2402 0 -19.4561 -0.511719 -26.1123 -1.53613c-6.65527 -1.02441 -11.7754 -3.07227 -15.8721 -5.63184c-3.58398 -3.07227 -6.14355 -6.65625 -7.67969 -11.2646
c-1.53613 -4.60742 -2.55957 -10.2393 -2.55957 -17.4072c0 -13.8242 0.511719 -27.1367 1.53516 -40.4482c0.512695 -13.3125 1.02441 -27.6484 1.02441 -43.0078c0 -19.4561 -4.0957 -33.792 -11.7764 -42.4961c-7.67969 -8.7041 -20.9912 -14.3359 -39.4238 -17.4082
v-2.04785c18.4326 -3.07227 31.2324 -9.21582 39.4238 -17.9199c8.19238 -8.7041 11.7764 -22.5283 11.7764 -41.9844c0 -15.8721 -0.511719 -30.208 -1.02441 -43.0078c-1.02344 -13.3125 -1.53516 -26.624 -1.53516 -40.4482
c0 -7.16797 1.02344 -13.3115 2.55957 -17.9199c1.53613 -4.60742 4.0957 -8.19141 7.67969 -10.752c4.09668 -2.55957 9.2168 -4.6084 15.8721 -5.63184c7.16797 -1.02441 15.8721 -1.53613 26.1123 -1.53613h20.9922v-39.9355h-39.4238
c-32.7686 0 -56.832 5.11914 -72.1924 15.3594c-15.3604 10.752 -23.04 29.6963 -23.04 57.3438c0 9.2168 0.511719 17.4082 1.02441 24.5762c0.511719 7.16797 1.02344 13.8242 1.53516 20.4805c1.02441 6.65625 1.53613 13.3115 2.04883 19.9678
c0.511719 6.65625 0.511719 14.3359 0.511719 22.5283c0 4.0957 -1.02441 8.7041 -3.07227 13.3115c-2.04785 4.09668 -5.63184 8.19238 -11.2637 11.7764c-5.12012 3.58398 -12.2881 6.14355 -21.5039 8.7041c-9.21582 2.55957 -20.4805 3.58398 -34.3047 4.0957v44.0322
c13.8242 0 25.0889 1.53613 34.3047 3.58398c8.7041 2.55957 16.3838 5.12012 21.5039 8.7041c5.63184 3.58398 9.21582 7.67969 11.2637 12.2881c2.04785 4.0957 3.07227 8.7041 3.07227 13.3115c0 7.67969 0 14.8477 -0.511719 22.0166
c-0.512695 6.65527 -1.02441 13.3115 -2.04883 19.9678c-0.511719 6.65527 -1.02344 13.8242 -1.53516 20.9922c-0.512695 7.67969 -1.02441 15.3594 -1.02441 24.5752c0 27.6484 7.67969 46.5928 23.04 56.832zM478.208 216.576
c8.7041 -2.04785 20.4805 -3.58398 34.3037 -3.58398v-44.0322c-13.8232 -0.511719 -25.0879 -2.04785 -34.3037 -4.0957s-16.3838 -5.12012 -22.0156 -8.7041c-5.12012 -3.58398 -9.2168 -7.67969 -11.2646 -11.7764
c-2.04785 -4.60742 -3.07129 -9.21582 -3.07129 -13.3115c0 -8.19238 0.511719 -15.8721 1.02344 -22.5283s1.02441 -13.3115 2.04785 -19.9678c0.512695 -6.65625 1.53613 -13.3125 2.04785 -20.4805c0.512695 -7.16797 0.512695 -15.3594 0.512695 -24.5762
c0 -27.6475 -7.68066 -46.5918 -23.04 -57.3438c-15.3604 -10.2402 -39.4238 -15.3594 -72.1924 -15.3594h-39.4238v39.9355h20.9922c10.752 0 19.4561 0.511719 26.1113 1.53613c6.65625 1.02344 11.7764 2.55957 15.3604 5.63184
c4.0957 2.56055 6.65625 6.14453 8.19238 10.752c1.53613 4.6084 2.04785 10.752 2.04785 17.9199c0 13.8242 0 27.1357 -1.02441 40.4482c-0.511719 12.7998 -1.02344 27.1357 -1.02344 43.0078c0 19.4561 4.0957 33.2803 11.7754 41.9844
c8.19238 8.7041 20.9922 14.8477 39.4248 17.9199v2.04785c-18.4326 3.07227 -31.2324 8.7041 -39.4248 17.4082c-7.67969 8.7041 -11.7754 23.04 -11.7754 42.4961c0 15.3594 0 29.6953 1.02344 43.0078c1.02441 13.3115 1.02441 26.624 1.02441 40.4482
c0 7.16797 -0.511719 12.7998 -2.04785 17.4072c-1.53613 4.6084 -4.09668 8.19238 -8.19238 11.2646c-3.58398 2.55957 -8.7041 4.60742 -15.3604 5.63184c-6.65527 1.02441 -15.3594 1.53613 -26.1113 1.53613h-20.9922v39.9355h39.4238
c32.7686 0 56.832 -5.12012 72.1924 -15.8721c15.3594 -10.2393 23.04 -29.1836 23.04 -56.832c0 -9.21582 0 -16.8955 -0.512695 -24.5752c-0.511719 -7.16797 -1.53516 -14.3369 -2.04785 -20.9922c-1.02344 -6.65625 -1.53613 -13.3125 -2.04785 -19.9678
c-0.511719 -7.16895 -1.02344 -14.3369 -1.02344 -22.0166c0 -4.60742 1.02344 -9.21582 3.07129 -13.3115c2.04785 -4.6084 6.14453 -8.7041 11.2646 -12.2881c5.63184 -3.58398 12.7998 -6.14453 22.0156 -8.7041z" />
    <glyph glyph-name="uniF14F" unicode="&#xf14f;" 
d="M192 96.7676h32.2559v-64h-32.2559v64zM256 96.7676h32.2559v-64h-32.2559v64zM320 96.7676h32.2559v-64h-32.2559v64zM416.256 144.384l95.7441 -79.8721l-95.7441 -79.8721h-32.2559v159.744h32.2559zM512 400.384v-159.744h-159.744v159.744h159.744zM463.872 288.768
v64h-64v-64h64zM0 -15.3604v159.744h160.256v-159.744h-160.256zM48.1279 96.7676v-64h64v64h-64zM288.256 352.768h31.7441v-64h-31.7441v64zM224.256 352.768h31.7441v-64h-31.7441v64zM160.256 352.768h31.7441v-64h-31.7441v64zM128 240.64h-32.2559l-95.7441 79.8721
l95.7441 79.8721h32.2559v-159.744z" />
    <glyph glyph-name="uniF13A" unicode="&#xf13a;" 
d="M475.648 265.728c9.89844 0 18.4316 -3.58398 25.5996 -10.752s10.752 -15.8717 10.752 -26.1113c0 -10.2402 -3.58398 -18.7738 -10.752 -25.6006c-7.16797 -6.82617 -15.7012 -10.4102 -25.5996 -10.752v-109.567c0 -9.89909 -3.75488 -18.4326 -11.2646 -25.6006
c-7.50911 -7.16797 -16.0423 -10.9225 -25.5996 -11.2637c-79.5306 66.2188 -156.843 102.4 -231.937 108.544c-10.9225 -3.41341 -19.6263 -9.55729 -26.1113 -18.4316c-6.48568 -8.875 -9.38704 -18.6032 -8.7041 -29.1846
c0.682292 -10.5814 4.43685 -19.2852 11.2637 -26.1113c-3.75456 -6.48568 -5.97331 -12.8005 -6.65625 -18.9443c-0.682292 -6.14388 0.000651042 -11.6051 2.04883 -16.3838c2.04753 -4.77865 5.11947 -10.0693 9.21582 -15.8721
c4.0957 -5.80273 8.70345 -10.5814 13.8232 -14.3359c5.12044 -3.75521 11.0941 -8.53385 17.9209 -14.3359c-5.80273 -10.9232 -16.555 -18.7741 -32.2568 -23.5527c-15.7012 -4.77865 -31.7438 -5.97331 -48.1279 -3.58398
c-16.3835 2.38932 -28.8421 7.68001 -37.376 15.8721c-1.36523 4.4375 -4.2666 12.8001 -8.7041 25.0879c-4.43685 12.2884 -7.50879 21.334 -9.21582 27.1367c-1.70638 5.80273 -3.75423 14.3359 -6.14355 25.5996c-2.38932 11.2643 -3.92546 20.8216 -4.6084 28.6719
c-0.682292 7.85091 -0.34082 17.2376 1.02441 28.1602c1.36523 10.9225 3.41309 21.5039 6.14355 31.7441h-34.8154c-12.2884 0 -23.0407 4.43717 -32.2568 13.3115c-9.21549 8.875 -13.6527 19.627 -13.3115 32.2559v54.7842c0 12.6296 4.43717 23.3815 13.3115 32.2559
c8.875 8.875 19.6273 13.3125 32.2568 13.3125h137.216c82.944 0 168.277 36.6934 256 110.08c9.89844 0 18.4316 -3.75456 25.5996 -11.2637c7.16797 -7.50977 10.9229 -16.0433 11.2646 -25.6006v-109.568zM438.784 93.1836v272.385
c-75.0938 -57.3444 -148.139 -89.9417 -219.136 -97.792v-77.3125c71.6797 -7.85026 144.725 -40.277 219.136 -97.2803z" />
    <glyph glyph-name="uniF145" unicode="&#xf145;" 
d="M192 2.04785l-189.952 -63.4883l62.9766 190.465l317.439 317.439l126.977 -126.976zM65.0244 2.04785l95.2314 31.7441l-63.4883 63.4883zM128.512 129.024l63.4883 -63.4883l190.464 190.464l-63.4883 63.4883z" />
    <glyph glyph-name="uniF11A" unicode="&#xf11a;" 
d="M0 448.512h512v-512h-512v512zM448 0.511719v256h-384v-256h384zM448 320.512v64h-384v-64h384zM224.256 32.7676v95.7441h-64l95.7441 96.2559l96.2559 -96.2559h-64v-95.7441h-64z" />
    <glyph glyph-name="uniF157" unicode="&#xf157;" 
d="M237.568 421.376l228.863 -228.352l-228.863 -229.376l-80.3848 81.9199l89.6006 90.1113h-237.568v114.688h237.568l-89.6006 90.1123z" />
    <glyph glyph-name="uniF15C" unicode="&#xf15c;" 
d="M495.616 19.9678c18.9434 -18.9434 18.9434 -49.1514 0 -67.584c-18.4326 -18.9434 -48.6406 -18.9434 -67.584 0l-111.616 111.616c-31.7441 -19.4561 -68.0957 -31.2324 -108.032 -31.2324c-114.176 0 -206.848 92.6729 -206.848 206.849
s92.6719 206.848 206.848 206.848s206.849 -92.6719 206.849 -206.848c0 -39.4238 -11.7764 -76.2881 -31.2324 -108.032zM208.384 96.7676c78.8486 0 142.849 64 142.849 142.849c0 79.3594 -64 143.359 -142.849 143.359c-79.3594 0 -143.359 -64 -143.359 -143.359
c0 -78.8486 64 -142.849 143.359 -142.849z" />
    <glyph glyph-name="uniF134" unicode="&#xf134;" 
d="M416.256 100.864c0 7.85026 -2.73047 14.3356 -8.19141 19.4561l-59.3926 59.3916c-5.46094 5.46159 -11.9463 8.19238 -19.4561 8.19238c-8.19206 0 -15.0186 -3.07194 -20.4795 -9.21582c0.341146 -0.341797 2.04785 -2.0485 5.12012 -5.12012
c3.07161 -3.07227 5.11947 -5.12044 6.14355 -6.14453s2.56022 -2.90137 4.6084 -5.63184c2.04753 -2.73047 3.24219 -5.11979 3.58398 -7.16797c0.341146 -2.04818 0.682292 -4.60807 1.02344 -7.67969c0 -7.85091 -2.73047 -14.3363 -8.19141 -19.4561
c-5.46159 -5.12044 -11.9469 -7.85124 -19.4561 -8.19238c-2.73112 0 -5.29134 0.341471 -7.68066 1.02441c-2.38932 0.682292 -4.77865 1.87695 -7.16797 3.58398c-2.38932 1.70638 -4.2666 3.24219 -5.63184 4.60742s-3.41309 3.41341 -6.14355 6.14453
c-2.73112 2.73047 -4.43783 4.43717 -5.12012 5.12012c-6.48568 -5.80273 -9.72852 -12.6296 -9.72852 -20.4805s2.73079 -14.3363 8.19238 -19.4561l58.8799 -59.3916c5.11979 -5.12044 11.6051 -7.68066 19.4561 -7.68066c7.50911 0 13.9945 2.56022 19.4561 7.68066
l41.9844 41.4717c5.46094 5.46159 8.19141 11.9469 8.19141 19.4561v-0.511719zM215.04 302.592c0 7.50977 -2.5599 13.9951 -7.67969 19.4561l-58.8799 58.8799c-5.46159 5.46159 -11.9469 8.19238 -19.4561 8.19238c-7.50977 0 -13.9951 -2.5599 -19.4561 -7.67969
l-41.9844 -41.9844c-5.46159 -5.11979 -8.19238 -11.4346 -8.19238 -18.9443c0 -7.50911 2.73079 -13.9945 8.19238 -19.4561l59.3916 -59.3916c5.12044 -5.11979 11.6058 -7.67969 19.4561 -7.67969c7.85091 0 14.6777 2.90137 20.4805 8.7041
c-0.682943 0.682292 -2.56022 2.55957 -5.63184 5.63184c-3.07227 3.07161 -5.12044 5.11947 -6.14453 6.14355s-2.38932 2.73079 -4.0957 5.12012s-2.90104 4.77865 -3.58398 7.16797s-1.02441 5.12012 -1.02441 8.19238c0 7.50911 2.56022 13.9945 7.68066 19.4561
c5.11979 5.46094 11.6051 8.02083 19.4561 7.67969c3.07161 0 5.80208 -0.341471 8.19141 -1.02441c2.38932 -0.682292 4.77865 -1.87695 7.16797 -3.58398c2.38932 -1.70638 4.09603 -3.07161 5.12012 -4.0957s3.07227 -3.07194 6.14453 -6.14355
c3.07161 -3.07227 4.94889 -4.94987 5.63184 -5.63281c6.14388 5.80273 9.21582 12.8001 9.21582 20.9922zM471.04 100.864c0 -22.528 -8.19206 -41.8135 -24.5762 -57.8564l-41.9834 -41.4717c-15.7018 -16.043 -34.9873 -24.0645 -57.8564 -24.0645
c-23.2109 0 -42.667 8.19206 -58.3682 24.5762l-58.8799 58.8799c-15.7012 16.043 -23.5518 35.499 -23.5518 58.3682c0 23.2109 8.36263 43.0085 25.0879 59.3926l-25.0879 25.0879c-16.3841 -16.7253 -36.1816 -25.0879 -59.3926 -25.0879
c-22.8691 0 -42.3249 8.02116 -58.3672 24.0635l-59.3926 59.3916c-16.0423 16.043 -24.0635 35.499 -24.0635 58.3682c0 22.8698 8.02116 42.1553 24.0635 57.8564l41.9844 41.9834c16.0423 15.7018 35.4984 23.5527 58.3682 23.5527
c22.8691 0 42.3249 -8.02148 58.3672 -24.0645l58.8809 -59.3916c15.7012 -15.7012 23.5518 -34.9867 23.5518 -57.8564c0 -23.5521 -8.36263 -43.5199 -25.0879 -59.9033l25.0879 -25.0889c16.3841 16.7259 36.1813 25.0889 59.3916 25.0889
c22.8691 0 42.3252 -8.02148 58.3682 -24.0645l59.3916 -59.3916c16.043 -16.043 24.0645 -35.499 24.0645 -58.3682z" />
    <glyph glyph-name="uniF13E" unicode="&#xf13e;" 
d="M329.216 220.16v-18.4326c0 -2.73047 -0.85319 -4.94889 -2.55957 -6.65527c-1.70703 -1.70703 -3.92578 -2.56055 -6.65625 -2.56055h-237.568c-2.73047 0 -4.94889 0.853516 -6.65527 2.56055c-1.70703 1.70638 -2.56055 3.9248 -2.56055 6.65527v18.4326
c0 2.38932 0.853516 4.43717 2.56055 6.14355c1.70638 1.70703 3.9248 2.56055 6.65527 2.56055h237.568c2.73047 0 4.94922 -0.853516 6.65625 -2.56055c1.70638 -1.70638 2.55957 -3.75423 2.55957 -6.14355zM365.568 92.1602v237.567
c0 12.6296 -4.4375 23.3818 -13.3125 32.2568c-8.87435 8.87435 -19.6263 13.3115 -32.2559 13.3115h-237.568c-12.6289 0 -23.3809 -4.43717 -32.2559 -13.3115c-8.87435 -8.875 -13.4824 -19.6273 -13.8242 -32.2568v-237.567
c0 -12.6296 4.60807 -23.5524 13.8242 -32.7686c9.21615 -9.21549 19.9681 -13.6527 32.2559 -13.3115h237.568c12.6296 0 23.3815 4.43717 32.2559 13.3115c8.875 8.875 13.3125 19.7979 13.3125 32.7686zM402.432 329.728v-237.567
c0 -22.8691 -8.02116 -42.3252 -24.0635 -58.3682c-16.043 -16.043 -35.499 -24.0645 -58.3682 -24.0645h-237.568c-22.8691 0 -42.3249 8.02148 -58.3672 24.0645c-16.043 16.043 -24.0645 35.499 -24.0645 58.3682v237.567c0 22.528 8.02148 41.8135 24.0645 57.8564
c16.0423 16.043 35.498 24.235 58.3672 24.5762h237.568c22.528 0 41.984 -8.19206 58.3682 -24.5762s24.4053 -35.6696 24.0635 -57.8564z" />
    <glyph glyph-name="uniF120" unicode="&#xf120;" 
d="M292.352 192.512c0 -20.1387 -6.99707 -37.376 -20.9912 -51.7119c-13.9948 -14.3359 -31.2321 -21.5039 -51.7119 -21.5039c-20.4805 0 -37.7181 7.16797 -51.7129 21.5039c-13.9941 14.3359 -21.1621 31.5732 -21.5039 51.7119
c-0.341146 20.1387 6.82682 37.376 21.5039 51.7119c14.6777 14.3359 31.9154 21.5039 51.7129 21.5039c19.7969 0 37.0342 -7.16797 51.7119 -21.5039c14.6771 -14.3359 21.6742 -31.5732 20.9912 -51.7119zM219.648 348.16c-28.3307 0 -54.443 -6.9974 -78.3369 -20.9922
c-23.8932 -13.9948 -42.6663 -32.9388 -56.3193 -56.832c-13.6536 -23.8932 -20.651 -49.8346 -20.9922 -77.8242c-0.341146 -27.9889 6.65625 -53.93 20.9922 -77.8232c14.3359 -23.8939 33.109 -42.8379 56.3193 -56.832
c23.2109 -13.9948 49.3232 -20.9922 78.3369 -20.9922c29.013 0 54.9541 6.9974 77.8232 20.9922c22.8698 13.9941 41.6432 32.9382 56.3203 56.832c14.6771 23.8932 21.6745 49.8343 20.9922 77.8232c-0.682943 27.9896 -7.68034 53.931 -20.9922 77.8242
c-13.3118 23.8932 -32.0853 42.8372 -56.3203 56.832c-24.2344 13.9948 -50.1755 20.9922 -77.8232 20.9922zM438.784 192.512c0 -39.9355 -9.72819 -76.6289 -29.1846 -110.08c-19.4557 -33.4505 -46.0798 -60.0745 -79.8721 -79.8721
c-33.7917 -19.7969 -70.4847 -29.6953 -110.079 -29.6953c-39.5951 0 -76.4593 9.89844 -110.593 29.6953c-34.1328 19.7975 -60.5859 46.4215 -79.3594 79.8721c-18.7734 33.4512 -28.6722 70.1445 -29.6963 110.08c-1.02409 39.9362 8.87467 76.6296 29.6963 110.08
c20.821 33.4505 47.2741 60.0745 79.3594 79.8721s68.9495 29.6963 110.593 29.6963c41.6426 0 78.3356 -9.89876 110.079 -29.6963c31.7441 -19.7975 58.3682 -46.4215 79.8721 -79.8721c21.5046 -33.4505 31.2327 -70.1439 29.1846 -110.08z" />
    <glyph glyph-name="uniF16A" unicode="&#xf16a;" 
d="M218.624 307.712c-1.70638 -3.75456 -4.43717 -5.63184 -8.19238 -5.63184h-64v-356.353c0 -2.73047 -0.85319 -4.94889 -2.55957 -6.65527c-1.70703 -1.70703 -3.92578 -2.56055 -6.65625 -2.56055h-54.7842c-2.73047 0 -4.94889 0.853516 -6.65527 2.56055
c-1.70703 1.70638 -2.56055 3.9248 -2.56055 6.65527v356.353h-64c-4.0957 0 -6.82617 1.87728 -8.19141 5.63184c-1.36589 3.75456 -0.854167 6.9974 1.53516 9.72852l99.8408 110.079c1.70638 1.70703 3.9248 2.56055 6.65527 2.56055
c2.38932 0 4.60807 -0.853516 6.65625 -2.56055l101.376 -110.079c2.38932 -3.07227 2.90137 -6.3151 1.53613 -9.72852z" />
    <glyph glyph-name="uniF13C" unicode="&#xf13c;" 
d="M0 192.512c0 70.6562 25.0879 131.072 75.2637 181.248c50.1764 50.1764 110.422 75.0938 180.736 74.752c70.3145 -0.341146 130.73 -25.2585 181.248 -74.752s75.4349 -109.91 74.752 -181.248c-0.682943 -71.3385 -25.6003 -131.755 -74.752 -181.248
c-49.1523 -49.4928 -109.568 -74.4102 -181.248 -74.752c-71.6797 -0.341146 -131.925 24.5762 -180.736 74.752c-48.8105 50.1764 -73.8984 110.592 -75.2637 181.248zM109.056 150.528h293.889v83.9678h-293.889v-83.9678z" />
    <glyph glyph-name="uniF161" unicode="&#xf161;" 
d="M398.464 0h-284.944c-62.5918 0 -113.52 50.9443 -113.52 113.536v140.944c0 62.5918 50.9277 113.52 113.52 113.52h284.944c62.5918 0 113.536 -50.9277 113.536 -113.52v-140.944c0 -62.5918 -50.9443 -113.536 -113.536 -113.536zM113.52 336
c-44.9434 0 -81.5195 -36.5762 -81.5195 -81.5195v-140.944c0 -44.96 36.5762 -81.5361 81.5195 -81.5361h284.944c44.96 0 81.5361 36.5762 81.5361 81.5361v140.944c0 44.9434 -36.5762 81.5195 -81.5361 81.5195h-284.944zM358.848 122.672
c3.56836 -3.56836 5.34473 -7.87207 5.34473 -12.96s-1.77637 -9.3916 -5.34473 -12.96c-3.56738 -3.56836 -7.87207 -5.34375 -12.9434 -5.34375c-5.08789 0 -9.4082 1.77539 -12.9766 5.34375l-42.2881 42.6562c-13.1836 -7.87207 -26.9121 -11.792 -41.1357 -11.792
c-21.5996 0 -40.1279 7.66406 -55.6318 23.0234c-15.4883 15.376 -23.2324 33.9844 -23.2324 55.8242c0 21.584 7.68066 40.0479 23.04 55.4238c15.3604 15.3604 33.9688 23.04 55.8086 23.04c21.8555 0 40.4473 -7.67969 55.8232 -23.04
c15.3447 -15.376 23.0244 -33.8398 23.0244 -55.4238c0 -13.7119 -4.06348 -27.4238 -12.1924 -41.1357zM210.848 168c10.8008 -10.6562 23.6807 -16 38.6719 -16c14.9766 0 27.8242 5.34375 38.4805 16c10.6562 10.6719 16 23.4883 16 38.4805
c0 14.9912 -5.34375 27.8076 -16 38.4795s-23.5039 16 -38.4805 16c-14.9912 0 -27.8711 -5.32812 -38.6719 -16c-10.7998 -10.6719 -16.1914 -23.4883 -16.1914 -38.4795c0.015625 -14.9922 5.3916 -27.8086 16.1914 -38.4805z" />
    <glyph glyph-name="uniF11C" unicode="&#xf11c;" 
d="M512 -6.65625c0 -30.208 -24.0645 -54.7842 -54.2725 -54.7842h-400.896c-30.208 0 -54.7842 24.5762 -54.7842 54.7842v400.384c0 30.208 24.5762 54.7842 54.7842 54.7842h400.896c30.208 0 54.2725 -24.5762 54.2725 -54.7842v-400.384zM464.384 398.848
c0 1.02441 -0.511719 2.04883 -1.53613 2.04883h-411.136c-1.02344 0 -1.53613 -1.02441 -1.53613 -2.04883v-410.624c0 -1.02344 0.512695 -2.04785 1.53613 -2.04785h411.136c1.02441 0 1.53613 1.02441 1.53613 2.04785v410.624zM100.864 76.7998l-38.9121 27.6484
l96.2559 134.655l61.4404 -61.4395l65.5352 114.688l65.0244 -80.8955l61.4404 98.8164l40.96 -25.0889l-97.792 -156.159l-62.9766 78.3359l-61.4395 -108.032l-66.0488 66.0479z" />
    <glyph glyph-name="uniF154" unicode="&#xf154;" 
d="M0 10.752l102.912 103.424l-75.7764 74.752h225.792v-225.792l-74.752 75.7764l-102.912 -102.912zM259.072 195.072v225.792l74.752 -75.7764l103.424 102.912l74.752 -74.752l-102.912 -103.424l75.7764 -74.752h-225.792z" />
    <glyph glyph-name="uniF14A" unicode="&#xf14a;" 
d="M365.568 174.08v36.8643c0 4.77865 -1.70671 9.04525 -5.12012 12.7998s-7.68001 5.46126 -12.7998 5.12012h-91.6484v91.6475c0 5.12044 -1.87728 9.38704 -5.63184 12.7998c-3.75456 3.41341 -8.02116 5.29102 -12.7998 5.63281h-36.3525
c-5.11979 0 -9.38639 -1.8776 -12.7998 -5.63281c-3.41341 -3.75456 -5.29069 -8.02116 -5.63184 -12.7998v-91.6475h-91.1357c-5.12044 0 -9.55794 -1.70671 -13.3125 -5.12012s-5.46126 -7.68001 -5.12012 -12.7998v-36.8643
c0 -4.77865 1.70671 -9.04525 5.12012 -12.7998s7.85091 -5.46126 13.3125 -5.12012h91.1357v-91.6484c0 -4.77865 1.87728 -9.04525 5.63184 -12.7998s8.02116 -5.63184 12.7998 -5.63184h36.3525c5.11979 0 9.38639 1.87728 12.7998 5.63184
s5.29069 8.02116 5.63184 12.7998v91.6484h91.6484c4.77865 0 9.04525 1.70671 12.7998 5.12012s5.46126 7.68001 5.12012 12.7998zM438.784 329.728v-274.432c0 -22.528 -8.02148 -41.8132 -24.0645 -57.8555c-16.0423 -16.043 -35.4984 -24.235 -58.3682 -24.5762h-273.92
c-22.8691 0 -42.3249 8.19206 -58.3672 24.5762c-16.043 16.3835 -24.0645 35.6686 -24.0645 57.8555v274.432c0 22.528 8.02148 41.8135 24.0645 57.8564c16.0423 16.043 35.498 24.235 58.3672 24.5762h273.92c22.8698 0 42.3258 -8.19206 58.3682 -24.5762
c16.043 -16.3841 24.0645 -35.6696 24.0645 -57.8564z" />
    <glyph glyph-name="uniF13B" unicode="&#xf13b;" 
d="M0 120.32v144.384h512v-144.384h-512z" />
    <glyph glyph-name="uniF15A" unicode="&#xf15a;" 
d="M0 12.2881l180.224 180.224l-180.224 180.225l75.7764 75.7754l180.224 -179.712l75.7764 -76.2881l-256 -256z" />
    <glyph glyph-name="uniF15D" unicode="&#xf15d;" 
d="M252.384 244.576h-73.1357v-24.3838h48.7676v-24.3682h-48.7676v-48.7686h-48.752v121.904h121.904v-24.3838h-0.0166016zM398.672 244.576h-73.1357v-24.3838h48.7676v-24.3682h-48.7676v-48.7686h-48.7686v121.904h121.904v-24.3838zM398.464 16h-284.944
c-62.5918 0 -113.52 50.9443 -113.52 113.536v140.944c0 62.5918 50.9277 113.52 113.52 113.52h284.944c62.5918 0 113.536 -50.9277 113.536 -113.52v-140.944c0 -62.5918 -50.9443 -113.536 -113.536 -113.536zM113.52 352
c-44.9434 0 -81.5195 -36.5762 -81.5195 -81.5195v-140.944c0 -44.96 36.5762 -81.5361 81.5195 -81.5361h284.944c44.96 0 81.5361 36.5762 81.5361 81.5361v140.944c0 44.9434 -36.5762 81.5195 -81.5361 81.5195h-284.944z" />
    <glyph glyph-name="uniF136" unicode="&#xf136;" 
d="M91.6484 228.864h145.92v55.2959c0 20.1387 -7.16797 37.376 -21.5039 51.7119c-14.3366 14.3359 -31.5742 21.3333 -51.7129 20.9922c-20.1387 -0.341797 -37.376 -7.33919 -51.7119 -20.9922c-14.3359 -13.6536 -21.333 -30.891 -20.9912 -51.7119v-55.2959z
M329.216 201.728v-164.863c0 -7.50977 -2.73047 -13.8245 -8.19141 -18.9443c-5.46159 -5.11979 -11.9469 -7.85059 -19.4561 -8.19238h-273.92c-7.85091 0 -14.3363 2.73079 -19.4561 8.19238c-5.12044 5.46159 -7.85124 11.7764 -8.19238 18.9443v164.863
c0 7.50977 2.73079 13.9951 8.19238 19.4561c5.46094 5.46159 11.9463 8.02181 19.4561 7.68066h8.70312v55.2959c0 34.8158 12.6296 64.8532 37.8887 90.1123c25.2585 25.2585 55.2956 37.8877 90.1113 37.8877c34.8164 0 65.0244 -12.6292 90.624 -37.8877
c25.6003 -25.2591 38.0589 -55.2965 37.376 -90.1123v-55.2959h9.2168c7.85026 0 14.3356 -2.56022 19.4561 -7.68066c5.11979 -5.11979 7.85026 -11.6051 8.19141 -19.4561z" />
    <glyph glyph-name="uniF162" unicode="&#xf162;" 
d="M252.384 228.576h-73.1357v-24.3838h73.1357v-73.1367h-121.888v24.3682h73.1357v24.3838h-73.1357v73.1523h121.904v-24.3838h-0.0166016zM398.672 228.576h-73.1357v-24.3838h48.7676v-24.3682h-48.7676v-48.7686h-48.7686v121.904h121.904v-24.3838zM398.464 0
h-284.944c-62.5918 0 -113.52 50.9443 -113.52 113.536v140.944c0 62.5918 50.9277 113.52 113.52 113.52h284.944c62.5918 0 113.536 -50.9277 113.536 -113.52v-140.944c0 -62.5918 -50.9443 -113.536 -113.536 -113.536zM113.52 336
c-44.9434 0 -81.5195 -36.5762 -81.5195 -81.5195v-140.944c0 -44.96 36.5762 -81.5361 81.5195 -81.5361h284.944c44.96 0 81.5361 36.5762 81.5361 81.5361v140.944c0 44.9434 -36.5762 81.5195 -81.5361 81.5195h-284.944z" />
    <glyph glyph-name="uniF163" unicode="&#xf163;" 
d="M243.248 131.04h-121.904v121.92h48.752v-97.5361h24.3848v97.5361h48.7676v-121.92zM389.536 228.576h-73.1357v-24.3838h48.7676v-24.3682h-48.7676v-48.7686h-48.752v121.904h121.903v-24.3838h-0.015625zM398.464 0h-284.944
c-62.5918 0 -113.52 50.9443 -113.52 113.536v140.944c0 62.5918 50.9277 113.52 113.52 113.52h284.944c62.5918 0 113.536 -50.9277 113.536 -113.52v-140.944c0 -62.5918 -50.9443 -113.536 -113.536 -113.536zM113.52 336
c-44.9434 0 -81.5195 -36.5762 -81.5195 -81.5195v-140.944c0 -44.96 36.5762 -81.5361 81.5195 -81.5361h284.944c44.96 0 81.5361 36.5762 81.5361 81.5361v140.944c0 44.9434 -36.5762 81.5195 -81.5361 81.5195h-284.944z" />
    <glyph glyph-name="uniF153" unicode="&#xf153;" 
d="M286.4 -64l75.1992 75.2002l-102.399 104l73.5996 73.5996l104 -102.399l75.2002 75.1992v-225.6h-225.6zM179.2 195.2l-104 104l-75.2002 -76.7998v225.6h225.6l-75.1992 -75.2002l102.399 -104z" />
    <glyph glyph-name="uniF140" unicode="&#xf140;" 
d="M25.5996 320v31.7441c0 52.7363 85.5039 95.2314 190.465 95.2314c104.96 0 190.976 -42.4951 190.976 -95.2314v-31.7441c0 -36.3516 -39.4238 -67.584 -98.3037 -83.4561c-2.04785 -0.511719 -4.09668 -1.02441 -6.14453 -1.53613
c-25.5996 -6.65625 -55.2959 -10.752 -86.5273 -10.752c-104.961 0 -190.465 43.0078 -190.465 95.7441zM384 235.008c14.8477 11.7764 23.04 26.624 23.04 43.0078v-51.1992c-7.16797 3.58398 -14.8477 6.14355 -23.04 8.19141zM205.824 2.04785
c14.3359 -25.5996 35.8398 -46.5918 61.4395 -60.416c-16.3838 -2.55957 -33.2793 -3.58398 -51.1992 -3.58398c-104.961 0 -190.465 42.4961 -190.465 95.2324v53.7598c0 -50.6885 79.8721 -82.9443 180.225 -84.9922zM191.488 34.3037
c-93.6963 6.14453 -165.889 46.0801 -165.889 94.7207v53.7598c0 -47.6162 69.1201 -78.8486 159.744 -84.4805c-0.511719 -5.63184 -1.02344 -11.2637 -1.02344 -16.8955c0 -16.3838 2.55957 -32.2559 7.16797 -47.1045zM192 129.536
c-93.6963 6.14355 -166.4 46.0801 -166.4 94.7197v53.7598c0 -52.7354 85.5039 -85.5039 190.465 -85.5039c5.11914 0 9.72754 0 14.3359 0.512695c-17.4082 -17.9209 -30.7207 -39.4248 -38.4004 -63.4883zM486.912 81.4082c0 -79.3604 -64.5117 -143.36 -143.36 -143.36
c-78.8477 0 -143.359 64 -143.359 143.36c0 79.3594 64.5117 142.848 143.359 142.848c78.8486 0 143.36 -64 143.36 -142.848zM438.784 97.2803h-79.3604v79.3594h-31.7441v-79.3594h-79.3594v-31.7441h79.3594v-79.8721h31.7441v79.8721h79.3604v31.7441z" />
    <glyph glyph-name="uniF11F" unicode="&#xf11f;" 
d="M335.36 447.488l158.72 -158.721v-253.951h-95.2324v-95.2324h-380.928v412.672h95.2324v95.2324h222.208zM335.36 3.07227v31.7441h-222.208v253.951h-31.7441v-285.695h253.952zM430.592 98.3037v158.721h-126.976v126.976h-126.977v-285.696h253.952z" />
    <glyph glyph-name="uniF105" unicode="&#xf105;" 
d="M0 -63.4883v205.824h205.824l-81.9199 -81.9199c36.8639 -36.5228 80.8958 -54.7842 132.096 -54.7842c42.6667 0 80.5547 12.8001 113.664 38.4004c33.1094 25.5996 55.2959 58.3675 66.5596 98.3037h70.6562c-11.9466 -59.0508 -41.472 -108.203 -88.5762 -147.456
c-47.1035 -39.2533 -101.205 -58.7093 -162.304 -58.3682c-70.6562 0 -130.902 24.9173 -180.736 74.752zM5.12012 242.688c11.9466 59.3919 41.472 108.544 88.5762 147.455c47.1035 38.9121 101.205 58.3682 162.304 58.3682c70.6562 0 131.072 -24.9173 181.248 -74.752
l74.752 74.752v-205.823h-205.824l81.9199 81.9199c-36.8639 36.5221 -80.8958 54.7832 -132.096 54.7832c-42.6667 0 -80.5547 -12.7998 -113.664 -38.3994c-33.1094 -25.6003 -55.2959 -58.3682 -66.5596 -98.3037h-70.6562z" />
    <glyph glyph-name="uniF11E" unicode="&#xf11e;" 
d="M287.744 447.488l159.231 -159.232v-350.72h-381.951v509.952h222.72zM128.512 1.53613h254.977v254.464h-127.488v127.488h-127.488v-381.952z" />
    <glyph glyph-name="uniF176" unicode="&#xf176;" 
d="M0 192c0 70.4004 25.5996 131.2 75.2002 180.8c49.5996 49.6006 110.399 76.7998 180.8 75.2002s131.2 -25.5996 180.8 -75.2002c51.2002 -48 75.2002 -108.8 75.2002 -180.8s-25.5996 -131.2 -75.2002 -180.8c-49.5996 -49.6006 -108.8 -73.6006 -180.8 -75.2002
s-131.2 24 -180.8 75.2002c-49.6006 51.2002 -73.6006 110.399 -75.2002 180.8zM56 192c0 -56 19.2002 -102.4 59.2002 -140.8c40 -38.4004 86.3994 -59.2002 140.8 -59.2002s102.4 19.2002 140.8 59.2002c38.4004 40 59.2002 86.3994 59.2002 140.8
s-19.2002 102.4 -59.2002 140.8c-40 38.4004 -86.3994 60.7998 -140.8 59.2002c-54.4004 0 -102.4 -19.2002 -140.8 -59.2002c-38.4004 -40 -59.2002 -84.7998 -59.2002 -140.8zM112 152v81.5996h104v102.4h81.5996v-104h102.4v-81.5996h-104v-102.4h-81.5996v104h-102.4z
" />
    <glyph glyph-name="uniF16E" unicode="&#xf16e;" 
d="M0 102.4l256 256l256 -256l-75.7764 -75.7764l-180.224 179.712l-180.224 -179.712z" />
    <glyph glyph-name="uniF14E" unicode="&#xf14e;" 
d="M492.544 -62.4639h-474.624c0 61.4395 71.6797 112.64 169.472 129.536v25.0879c-40.4473 23.5518 -67.584 67.0723 -67.584 116.736v3.58398c-19.9678 7.16797 -33.792 25.5996 -33.792 47.6152c0 22.0166 13.8242 40.4482 33.792 47.1045v3.58398
c0 74.752 60.416 135.68 135.681 135.68c75.2637 0 135.68 -60.9277 135.68 -135.68v-3.58398c19.4561 -6.65625 33.792 -25.0879 33.792 -47.1045c0 -22.0156 -14.3359 -40.4473 -33.792 -47.6152v-3.58398c0 -49.6641 -27.6484 -93.1846 -68.0957 -116.736v-25.0879
c97.792 -16.8965 169.472 -68.0967 169.472 -129.536z" />
    <glyph glyph-name="uniF14C" unicode="&#xf14c;" 
d="M240 177.184l0.0644531 123.761l41.4395 -41.4561l80.2559 80.2715l42.6562 -42.6396l-80.2725 -80.2725l40.4004 -40.3994zM414.816 176.896l1.18359 -112.896c0 -17.6641 -14.3359 -32 -32 -32h-256c-17.6641 0 -32 14.3359 -32 32v256c0 17.6641 14.3359 32 32 32h112
l32 -32l-143.328 -0.624023l-0.255859 -255.584l256.24 0.143555l-0.560547 144.112z" />
    <glyph glyph-name="uniF147" unicode="&#xf147;" 
d="M395.424 183.136l-379.424 -210.863c-4.38411 -2.47526 -8.14421 -2.76335 -11.2803 -0.864258c-3.13607 1.89844 -4.70931 5.3278 -4.71973 10.2881v420.576c0 4.94922 1.57324 8.37826 4.71973 10.2871c3.14714 1.90951 6.90723 1.62174 11.2803 -0.863281
l379.424 -210.864c4.38411 -2.47461 6.57617 -5.42936 6.57617 -8.86426c0 -3.43424 -2.19206 -6.389 -6.57617 -8.86426v0.0322266z" />
    <glyph glyph-name="uniF170" unicode="&#xf170;" 
d="M410.624 170.496c49.6641 -27.6484 89.0879 -76.7998 98.8164 -134.656c0 -52.7363 -42.4961 -95.2314 -95.2324 -95.2314h-44.0322c18.9443 16.3838 32.7686 38.3994 39.4238 63.4873h4.6084c17.4082 0 31.7441 13.8242 31.7441 31.7441
c-8.19238 31.7441 -29.6963 57.8564 -57.8564 75.2637c-14.8477 25.6006 -34.8154 48.6406 -58.8799 67.585c3.58398 6.14355 6.65625 12.7998 9.21582 19.4551c25.6006 8.19238 44.0322 31.7441 44.0322 59.9043v63.4883c0 28.1602 -18.4316 51.7119 -44.0322 59.9043
c-10.2393 25.0879 -27.1357 47.1035 -48.1279 63.4873c9.21582 2.04785 18.9443 3.58398 28.6719 3.58398c70.1445 0 126.977 -56.832 126.977 -126.976v-63.4883c0 -34.3037 -13.8242 -65.0234 -35.3281 -87.5518zM287.232 -59.3916h-190.465
c-52.7354 0 -95.2314 42.4951 -95.2314 95.2314v0c9.72754 58.3682 48.6396 107.008 98.8154 134.656c-22.0156 22.5283 -35.3271 53.248 -35.3271 87.5518v63.4883c0 70.1436 56.832 126.976 126.976 126.976s126.976 -56.832 126.976 -126.976v-63.4883
c0 -33.792 -13.8232 -64.5117 -35.3271 -87.5518c49.6631 -27.6484 89.0879 -76.2881 98.8154 -134.656v0c0 -52.7363 -42.4961 -95.2314 -95.2314 -95.2314zM255.488 258.048v63.4883c0 34.8154 -28.6719 63.4883 -63.4883 63.4883
c-35.3281 0 -63.4883 -28.6729 -63.4883 -63.4883v-63.4883c0 -35.3281 28.1602 -63.4883 63.4883 -63.4883c34.8164 0 63.4883 28.1602 63.4883 63.4883zM318.976 35.8398c-14.3359 54.7842 -68.0957 95.2324 -126.976 95.2324v0v0
c-59.3916 0 -113.152 -40.4482 -126.976 -95.2324v0c0 -17.9199 13.8232 -31.7441 31.7432 -31.7441h190.465c17.4072 0 31.7432 13.8242 31.7432 31.7441v0z" />
    <glyph glyph-name="uniF132" unicode="&#xf132;" 
d="M182.784 320.512v-256c0 -4.77865 -1.70671 -9.04525 -5.12012 -12.7998s-7.85091 -5.63184 -13.3125 -5.63184c-5.46094 0 -9.72754 1.87728 -12.7998 5.63184l-128 128c-3.41341 3.75456 -5.12012 8.02116 -5.12012 12.7998s1.70671 9.04525 5.12012 12.7998l128 128
c3.75456 3.75521 8.02116 5.63281 12.7998 5.63281s9.21615 -1.8776 13.3125 -5.63281c4.0957 -3.75456 5.80241 -8.02116 5.12012 -12.7998z" />
    <glyph glyph-name="uniF16F" unicode="&#xf16f;" 
d="M331.776 -62.4639h-191.488c-52.7363 0 -95.2324 42.4961 -95.2324 95.7441v0c9.72852 58.3682 49.1523 107.52 98.8164 135.168c-21.5039 22.5273 -35.3281 53.7598 -35.3281 87.5518v64c0 70.1436 56.832 127.488 127.488 127.488s127.487 -57.3447 127.487 -127.488
v-64c0 -33.792 -13.8232 -65.0244 -35.3271 -87.5518c49.6641 -27.6484 89.0879 -76.7998 98.8154 -135.168v0c0 -53.248 -42.4961 -95.7441 -95.2314 -95.7441zM299.52 256v64c0 34.8164 -28.1592 63.4883 -63.4873 63.4883s-63.4883 -28.6719 -63.4883 -63.4883v-64
c0 -34.8164 28.1602 -63.4883 63.4883 -63.4883s63.4873 28.6719 63.4873 63.4883zM363.52 33.2803c-14.3359 54.7842 -68.0957 95.2314 -127.487 95.2314v0v0c-59.3926 0 -113.152 -40.4473 -127.488 -95.2314v0c0 -17.9199 14.3359 -32.2559 31.7441 -32.2559h190.976
c17.9199 0 32.2559 14.3359 32.2559 32.2559v0z" />
    </font>
</defs>
</svg>
